<svg xmlns="http://www.w3.org/2000/svg" fill="none" viewBox="0 0 210 299" height="299" width="210">
<path fill="#338A86" d="M199.367 99.6835C199.367 154.737 154.737 199.367 99.6835 199.367C44.6298 199.367 0 154.737 0 99.6835C0 44.6298 44.6298 0 99.6835 0C154.737 0 199.367 44.6298 199.367 99.6835ZM29.9051 99.6835C29.9051 138.221 61.1459 169.462 99.6835 169.462C138.221 169.462 169.462 138.221 169.462 99.6835C169.462 61.1459 138.221 29.9051 99.6835 29.9051C61.1459 29.9051 29.9051 61.1459 29.9051 99.6835Z"></path>
<path fill="#0A3146" d="M134.055 101.642C150.62 105.703 165.866 113.947 178.334 125.585C190.803 137.223 200.076 151.865 205.269 168.111C210.461 184.358 211.398 201.664 207.99 218.376C204.582 235.088 196.942 250.646 185.803 263.562C174.664 276.477 160.397 286.319 144.367 292.145C128.337 297.971 111.08 299.587 94.2476 296.837C77.4149 294.088 61.5691 287.065 48.226 276.442C34.8829 265.818 24.4888 251.949 18.0379 236.16L41.1076 226.734C45.9457 238.576 53.7413 248.978 63.7486 256.946C73.7559 264.913 85.6403 270.18 98.2648 272.242C110.889 274.304 123.832 273.093 135.854 268.723C147.877 264.354 158.577 256.972 166.931 247.286C175.286 237.599 181.015 225.93 183.571 213.396C186.127 200.863 185.425 187.883 181.531 175.698C177.636 163.513 170.681 152.531 161.33 143.803C151.978 135.075 140.544 128.892 128.12 125.846L134.055 101.642Z"></path>
<path fill="#0A3146" d="M157.395 110.701C157.395 123.74 146.825 134.311 133.786 134.311C120.747 134.311 110.176 123.74 110.176 110.701C110.176 97.6622 120.747 87.092 133.786 87.092C146.825 87.092 157.395 97.6622 157.395 110.701Z"></path>
</svg>
