<svg width="683" height="342" viewBox="0 0 683 342" fill="none" xmlns="http://www.w3.org/2000/svg">
<path d="M122.028 217.022L116.05 223.75L129.506 235.706L135.484 228.978L122.028 217.022ZM69.7372 104C108.243 104 139.295 134.862 139.295 172.733H157.295C157.295 124.742 118.004 86 69.7372 86V104ZM139.295 172.733C139.295 189.966 132.883 204.806 122.028 217.022L135.484 228.978C148.955 213.817 157.295 194.819 157.295 172.733H139.295ZM16.1378 128.311C28.8538 113.425 48.089 104 69.7372 104V86C42.7746 86 18.5553 97.7684 2.45155 116.62L16.1378 128.311Z" fill="#BABABA"/>
<path d="M9 209L9 9" stroke="#BABABA" stroke-width="18" stroke-linecap="square" stroke-linejoin="round"/>
<path d="M190.55 106C180.197 118.859 174 135.206 174 153C174 194.421 207.579 228 249 228C276.554 228 299.962 214.142 313 192" stroke="#BABABA" stroke-width="18" stroke-linecap="square"/>
<path d="M316 218L317 111" stroke="#BABABA" stroke-width="18" stroke-linecap="square" stroke-linejoin="round"/>
<path d="M664.614 124.544L671.824 129.93L682.597 115.509L675.386 110.123L664.614 124.544ZM550 171C550 138.259 580.138 110 619.559 110V92C572.206 92 532 126.422 532 171H550ZM619.559 110C636.842 110 652.54 115.524 664.614 124.544L675.386 110.123C660.166 98.7529 640.679 92 619.559 92V110Z" fill="#BABABA"/>
<path d="M541 216V109" stroke="#BABABA" stroke-width="18" stroke-linecap="square" stroke-linejoin="round"/>
<circle cx="425" cy="160" r="75" stroke="#1C7D78" stroke-width="18"/>
<path d="M443.684 183C480.225 189.202 508 220.168 508 257.434C508 299.168 473.167 333 430.198 333C397.498 333 369.509 313.405 358 285.646" stroke="white" stroke-width="18" stroke-linecap="square" stroke-linejoin="round"/>
<circle cx="429.5" cy="183.5" r="9" fill="white" stroke="white" stroke-width="17"/>
</svg>
