<?xml version="1.0" encoding="UTF-8" standalone="no"?>
<!-- Created with Inkscape (http://www.inkscape.org/) -->

<svg
   width="210mm"
   height="235mm"
   viewBox="0 0 210 235"
   version="1.1"
   id="svg1"
   xml:space="preserve"
   inkscape:version="1.4.2 (ebf0e940, 2025-05-08)"
   sodipodi:docname="security-key.svg"
   xmlns:inkscape="http://www.inkscape.org/namespaces/inkscape"
   xmlns:sodipodi="http://sodipodi.sourceforge.net/DTD/sodipodi-0.dtd"
   xmlns="http://www.w3.org/2000/svg"
   xmlns:svg="http://www.w3.org/2000/svg"><sodipodi:namedview
     id="namedview1"
     pagecolor="#ffffff"
     bordercolor="#000000"
     borderopacity="0.25"
     inkscape:showpageshadow="2"
     inkscape:pageopacity="0.0"
     inkscape:pagecheckerboard="0"
     inkscape:deskcolor="#d1d1d1"
     inkscape:document-units="mm"
     inkscape:zoom="0.31708605"
     inkscape:cx="553.47753"
     inkscape:cy="509.32547"
     inkscape:window-width="976"
     inkscape:window-height="916"
     inkscape:window-x="2068"
     inkscape:window-y="99"
     inkscape:window-maximized="0"
     inkscape:current-layer="layer1" /><defs
     id="defs1" /><g
     inkscape:label="Layer 1"
     inkscape:groupmode="layer"
     id="layer1"><g
       id="g1"
       transform="matrix(0.26458333,0,0,0.26458333,24.378004,8.7541064)"><g
         id="Layer_1">
	<path
   fill-rule="evenodd"
   clip-rule="evenodd"
   fill="#ffffff"
   d="m 277.725,0.871 c 132.565,-9.192 220.463,55.68 270.721,134.719 25.2,39.63 49.925,99.82 50.039,161.663 0.122,67.194 -21.646,125.383 -50.039,168.078 -29.182,43.883 -66.926,80.128 -114.19,103.927 -79.006,39.783 -189.42,40.871 -261.741,2.566 C 91.973,529.166 30.047,468.279 7.003,362.688 -2.219,320.432 -3.279,265.833 9.569,218.988 12.584,207.999 18.063,196.434 22.4,185.629 43.242,133.705 78.717,88.553 122.477,57.324 140.061,44.776 161.393,32.296 180.214,23.965 203.632,13.6 243.06,3.274 277.725,0.871 Z"
   id="path325" />
	<path
   fill-rule="evenodd"
   clip-rule="evenodd"
   d="m 529.184,304.725 c 0,125.288 -101.566,226.847 -226.852,226.847 -125.286,0 -226.85,-101.559 -226.85,-226.847 0,-125.285 101.564,-226.852 226.85,-226.852 125.285,0 226.852,101.567 226.852,226.852 z"
   id="path326" />
	<path
   fill-rule="evenodd"
   clip-rule="evenodd"
   d="m 277.725,0.871 c 132.565,-9.192 220.463,55.68 270.721,134.719 25.2,39.63 49.925,99.82 50.039,161.663 0.122,67.194 -21.646,125.383 -50.039,168.078 -29.182,43.883 -66.926,80.128 -114.19,103.927 -79.006,39.783 -189.42,40.871 -261.741,2.566 C 91.973,529.166 30.047,468.279 7.003,362.688 -2.219,320.432 -3.279,265.833 9.569,218.988 12.584,207.999 18.063,196.434 22.4,185.629 43.242,133.705 78.717,88.553 122.477,57.324 140.061,44.776 161.393,32.296 180.214,23.965 203.632,13.6 243.06,3.274 277.725,0.871 Z M 232.818,22.683 C 183.579,35.449 147.476,58.32 116.062,82.986 70.763,118.554 41.885,168.189 24.966,227.969 c -18.823,66.508 -6.732,146.99 19.246,197.588 26.939,52.472 63.11,93.203 114.19,121.889 49.695,27.908 119.591,45.828 192.457,32.076 64.74,-12.218 113.909,-40.421 153.965,-82.115 53.592,-55.785 96.665,-158.534 68.002,-266.872 -7.662,-28.955 -17.679,-59.133 -33.36,-84.681 -8.472,-13.802 -20.904,-27.38 -33.359,-41.057 C 459.101,53.176 383.128,8.693 285.423,14.984 c -18.594,1.197 -34.935,3.117 -52.605,7.699 z"
   id="path327" />
	<g
   id="g355">
		<g
   id="g340">
			<line
   fill="none"
   stroke="#ffffff"
   stroke-width="2"
   x1="316.05099"
   y1="576.79102"
   x2="578.18799"
   y2="314.65799"
   id="line327" />
			<line
   fill="none"
   stroke="#ffffff"
   stroke-width="2"
   x1="293.134"
   y1="556.03101"
   x2="556.41498"
   y2="292.754"
   id="line328" />
			<line
   fill="none"
   stroke="#ffffff"
   stroke-width="2"
   x1="270.21701"
   y1="535.27301"
   x2="534.64301"
   y2="270.85101"
   id="line329" />
			<line
   fill="none"
   stroke="#ffffff"
   stroke-width="2"
   x1="247.3"
   y1="514.513"
   x2="512.87"
   y2="248.948"
   id="line330" />
			<line
   fill="none"
   stroke="#ffffff"
   stroke-width="2"
   x1="224.384"
   y1="493.754"
   x2="491.09799"
   y2="227.04401"
   id="line331" />
			<line
   fill="none"
   stroke="#ffffff"
   stroke-width="2"
   x1="201.467"
   y1="472.996"
   x2="469.32401"
   y2="205.14101"
   id="line332" />
			<line
   fill="none"
   stroke="#ffffff"
   stroke-width="2"
   x1="178.55"
   y1="452.23599"
   x2="447.552"
   y2="183.23801"
   id="line333" />
			<line
   fill="none"
   stroke="#ffffff"
   stroke-width="2"
   x1="155.633"
   y1="431.47699"
   x2="425.77802"
   y2="161.334"
   id="line334" />
			<line
   fill="none"
   stroke="#ffffff"
   stroke-width="2"
   x1="132.716"
   y1="410.71799"
   x2="404.00601"
   y2="139.431"
   id="line335" />
			<line
   fill="none"
   stroke="#ffffff"
   stroke-width="2"
   x1="109.8"
   y1="389.95801"
   x2="382.233"
   y2="117.528"
   id="line336" />
			<line
   fill="none"
   stroke="#ffffff"
   stroke-width="2"
   x1="86.883003"
   y1="369.20001"
   x2="360.45999"
   y2="95.625"
   id="line337" />
			<line
   fill="none"
   stroke="#ffffff"
   stroke-width="2"
   x1="63.966"
   y1="348.44101"
   x2="338.68799"
   y2="73.721001"
   id="line338" />
			<line
   fill="none"
   stroke="#ffffff"
   stroke-width="2"
   x1="41.049"
   y1="327.681"
   x2="316.91501"
   y2="51.818001"
   id="line339" />
			<line
   fill="none"
   stroke="#ffffff"
   stroke-width="2"
   x1="18.132"
   y1="306.922"
   x2="295.142"
   y2="29.915001"
   id="line340" />
		</g>
		<g
   id="g354">
			<line
   fill="none"
   stroke="#ffffff"
   stroke-width="2"
   x1="18.042999"
   y1="309.57199"
   x2="285.41901"
   y2="576.96002"
   id="line341" />
			<line
   fill="none"
   stroke="#ffffff"
   stroke-width="2"
   x1="39.726002"
   y1="287.57901"
   x2="307.62201"
   y2="555.48798"
   id="line342" />
			<line
   fill="none"
   stroke="#ffffff"
   stroke-width="2"
   x1="61.409"
   y1="265.586"
   x2="329.82501"
   y2="534.01398"
   id="line343" />
			<line
   fill="none"
   stroke="#ffffff"
   stroke-width="2"
   x1="83.092003"
   y1="243.593"
   x2="352.02899"
   y2="512.54199"
   id="line344" />
			<line
   fill="none"
   stroke="#ffffff"
   stroke-width="2"
   x1="104.774"
   y1="221.60001"
   x2="374.23099"
   y2="491.06799"
   id="line345" />
			<line
   fill="none"
   stroke="#ffffff"
   stroke-width="2"
   x1="126.457"
   y1="199.60699"
   x2="396.436"
   y2="469.595"
   id="line346" />
			<line
   fill="none"
   stroke="#ffffff"
   stroke-width="2"
   x1="148.14"
   y1="177.614"
   x2="418.63901"
   y2="448.12201"
   id="line347" />
			<line
   fill="none"
   stroke="#ffffff"
   stroke-width="2"
   x1="169.82201"
   y1="155.621"
   x2="440.84201"
   y2="426.64801"
   id="line348" />
			<line
   fill="none"
   stroke="#ffffff"
   stroke-width="2"
   x1="191.505"
   y1="133.62801"
   x2="463.04599"
   y2="405.17499"
   id="line349" />
			<line
   fill="none"
   stroke="#ffffff"
   stroke-width="2"
   x1="213.188"
   y1="111.635"
   x2="485.24799"
   y2="383.702"
   id="line350" />
			<line
   fill="none"
   stroke="#ffffff"
   stroke-width="2"
   x1="234.871"
   y1="89.641998"
   x2="507.452"
   y2="362.229"
   id="line351" />
			<line
   fill="none"
   stroke="#ffffff"
   stroke-width="2"
   x1="256.55301"
   y1="67.649002"
   x2="529.65503"
   y2="340.755"
   id="line352" />
			<line
   fill="none"
   stroke="#ffffff"
   stroke-width="2"
   x1="278.23599"
   y1="45.657001"
   x2="551.85797"
   y2="319.28299"
   id="line353" />
			<line
   fill="none"
   stroke="#ffffff"
   stroke-width="2"
   x1="299.91901"
   y1="23.664"
   x2="574.06201"
   y2="297.80899"
   id="line354" />
		</g>
	</g>
	<g
   id="g357">
		<g
   id="g356">
			<path
   fill-rule="evenodd"
   clip-rule="evenodd"
   d="M 490.71,106.08 C 467.117,82.487 438.111,61.227 403.463,48.343 367.549,34.988 326.923,23.731 279.008,27.814 202.682,34.32 149.092,68.565 108.363,108.646 79.835,136.719 58.376,171.12 44.211,211.289 23.413,270.27 24.675,339.887 48.06,399.896 c 19.947,51.187 52.595,92.473 98.794,124.455 43.431,30.067 105.765,53.386 175.776,47.473 85.272,-7.202 147.664,-50.95 188.607,-101.36 10.476,-12.896 20.892,-27.473 26.943,-44.906 5.929,-12.561 8.831,-21.1 11.548,-25.661 11.372,-25.482 17.397,-52.368 19.245,-82.114 5.685,-91.492 -29.517,-162.956 -78.263,-211.703 z m -25.131,278.748 c -0.163,0.348 -0.309,0.672 -0.479,1.031 -4.23,12.105 -11.517,22.227 -18.841,31.183 -28.634,35.004 -72.263,65.382 -131.895,70.384 -48.961,4.104 -92.552,-12.087 -122.923,-32.965 -26.392,-18.143 -46.454,-40.601 -60.522,-67.591 -0.858,-1.624 -9.028,-20.447 -9.052,-21.275 -11.145,-34.569 -12.112,-90.155 -0.673,-123.512 7.634,-22.263 20.357,-46.351 37.208,-65.435 23.266,-26.351 46.549,-43.236 83.398,-55.171 16.825,-5.45 31.887,-10.997 52.604,-11.547 50.52,-1.345 101.965,21.338 129.587,46.189 25.384,22.837 54.314,67.322 61.587,109.058 7.485,42.957 -0.503,84.898 -19.999,119.651 z"
   id="path355" />
		</g>
	</g>
	<g
   id="g358">
		<path
   fill="#ffffff"
   d="m 377.768,426.033 c -12.44,0 -23.357,-7.878 -27.167,-19.604 L 336.745,364.211 H 267.43 l -12.874,41.833 C 250.67,417.998 239.67,426 227.166,426 c -3.002,0 -5.984,-0.475 -8.863,-1.409 -14.946,-4.487 -23.431,-20.574 -18.852,-35.84 l 58.506,-185.323 c 3.799,-11.789 14.983,-20.012 27.2,-20.012 h 31.11 c 12.286,0 23.469,8.083 27.194,19.657 l 61.529,185.254 c 4.92,15.146 -3.227,31.405 -18.151,36.263 -2.951,0.958 -6.002,1.443 -9.071,1.443 z"
   id="path357" />
		<path
   d="m 316.268,186.415 c 10.818,0 20.965,7.1 24.339,17.577 l 61.537,185.278 c 4.393,13.525 -2.707,28.064 -16.231,32.466 -2.704,0.878 -5.449,1.297 -8.145,1.297 -10.79,0 -20.799,-6.708 -24.312,-17.53 l -14.539,-44.292 h -73.702 l -13.526,43.951 c -3.54,10.89 -13.656,17.837 -24.521,17.837 -2.63,0 -5.302,-0.406 -7.937,-1.263 -13.526,-4.061 -20.963,-18.601 -16.905,-32.125 L 260.818,204.33 c 3.377,-10.477 13.185,-17.915 24.34,-17.915 h 31.11 m 0,-6 h -31.111 c -13.719,0 -25.795,8.871 -30.05,22.074 l -58.503,185.315 -0.013,0.041 -0.012,0.041 c -5.049,16.831 4.31,34.571 20.867,39.578 3.157,1.018 6.428,1.534 9.722,1.534 13.805,0 25.953,-8.834 30.227,-21.981 l 0.015,-0.045 0.014,-0.046 12.223,-39.716 h 64.925 l 13.185,40.163 c 4.203,12.948 16.267,21.659 30.013,21.659 3.384,0 6.748,-0.535 9.998,-1.59 16.5,-5.37 25.509,-23.325 20.084,-40.026 L 346.311,202.123 c -4.133,-12.783 -16.482,-21.708 -30.043,-21.708 z"
   id="path358" />
	</g>
	<g
   id="g363">
		<path
   fill="#ffffff"
   d="m 148.001,124.354 -0.073,-0.099 c -7.296,-9.999 -5.155,-23.987 5.59,-31.829 10.745,-7.841 24.548,-5.64 31.844,4.358 l 0.073,0.099 c 7.296,9.999 5.155,23.988 -5.59,31.829 -10.745,7.841 -24.548,5.641 -31.844,-4.358 z m 27.657,-20.183 -0.073,-0.099 c -3.666,-5.024 -10.492,-6.752 -15.814,-2.868 -5.273,3.848 -5.683,10.703 -2.017,15.728 l 0.073,0.099 c 3.667,5.024 10.492,6.752 15.765,2.904 5.323,-3.884 5.733,-10.739 2.066,-15.764 z"
   id="path359" />
		<path
   fill="#ffffff"
   d="m 218.344,58.817 10.965,-3.518 30.739,35.734 -12.197,3.913 -5.342,-6.37 -15.833,5.08 -0.58,8.271 -11.962,3.838 z m 18.04,21.958 -8.318,-10.202 -0.889,13.156 z"
   id="path360" />
		<path
   fill="#ffffff"
   d="m 279.795,69.567 0.096,-24.203 12.132,0.048 -0.095,23.957 c -0.025,6.22 3.104,9.188 7.908,9.208 4.804,0.019 7.956,-2.801 7.979,-8.836 l 0.097,-24.264 12.132,0.048 -0.095,23.895 c -0.055,13.918 -8.023,19.984 -20.279,19.935 -12.255,-0.05 -19.928,-6.301 -19.875,-19.788 z"
   id="path361" />
		<path
   fill="#ffffff"
   d="m 363.859,65.338 -12.368,-3.775 3.056,-10.013 36.163,11.037 -3.056,10.013 -12.368,-3.774 -9.527,31.216 -11.426,-3.487 z"
   id="path362" />
		<path
   fill="#ffffff"
   d="m 423.012,76.559 9.946,6.619 -8.938,13.432 12.766,8.496 8.939,-13.433 9.946,6.619 -23.883,35.889 -9.947,-6.619 9.076,-13.638 -12.767,-8.496 -9.075,13.638 -9.946,-6.619 z"
   id="path363" />
	</g>
</g><g
         id="DISCOVERY"
         display="none">
	<path
   display="inline"
   fill-rule="evenodd"
   clip-rule="evenodd"
   fill="none"
   d="m 105.908,377.542 c -0.915,-4.008 -3.853,-10.342 -7.246,-20.547 -5.929,-13.002 -7.885,-26.736 -8.911,-39.561 -4.006,-50.127 7.561,-107.985 51.48,-157.601 36.063,-40.735 83.446,-60.991 123.85,-67.363 42.978,-6.776 83.336,-1.101 121.873,16.912 45.176,21.119 83.099,59.445 102.975,103.606 13.534,30.074 19.901,60.814 18.924,91.793 -1.391,44.225 -13.109,92.055 -52.389,136.498 -24.662,27.9 -53.438,43.31 -80.695,55.024 -26.299,11.306 -53.912,14.898 -79.739,14.292 -53.369,-1.254 -111.287,-22.471 -157.009,-76.764 -14.864,-17.651 -25.86,-35.934 -33.113,-56.289 z"
   id="path364" />
	<text
   transform="matrix(-0.4186,0.9082,-0.9082,-0.4186,499.5928,369.3687)"
   display="inline"
   id="text372"><tspan
     x="0"
     y="0"
     fill="#ffffff"
     font-family="Gotham-Black"
     font-size="61.586px"
     id="tspan364">D</tspan><tspan
     x="65.337997"
     y="4.184"
     fill="#ffffff"
     font-family="Gotham-Black"
     font-size="61.586px"
     rotate="14.552"
     id="tspan365">I</tspan><tspan
     x="102.593"
     y="14.865"
     fill="#ffffff"
     font-family="Gotham-Black"
     font-size="61.586px"
     rotate="29.145"
     id="tspan366">S</tspan><tspan
     x="152.509"
     y="45.706001"
     fill="#ffffff"
     font-family="Gotham-Black"
     font-size="61.586px"
     rotate="42.896999"
     id="tspan367">C</tspan><tspan
     x="196.72301"
     y="91.466003"
     fill="#ffffff"
     font-family="Gotham-Black"
     font-size="61.586px"
     rotate="63.455002"
     id="tspan368">O</tspan><tspan
     x="225.093"
     y="155.226"
     fill="#ffffff"
     font-family="Gotham-Black"
     font-size="61.586px"
     rotate="81.585999"
     id="tspan369">V</tspan><tspan
     x="231.37199"
     y="220.26801"
     fill="#ffffff"
     font-family="Gotham-Black"
     font-size="61.586px"
     rotate="99.060997"
     id="tspan370">E</tspan><tspan
     x="219.44"
     y="278.70001"
     fill="#ffffff"
     font-family="Gotham-Black"
     font-size="61.586px"
     rotate="114.66"
     id="tspan371">R</tspan><tspan
     x="190.896"
     y="334.83301"
     fill="#ffffff"
     font-family="Gotham-Black"
     font-size="61.586px"
     rotate="134.058"
     id="tspan372">Y</tspan></text>
</g><g
         id="OAUTH">
	<g
   id="g376">
		<path
   fill="#ffffff"
   d="m 458.146,468.883 0.076,0.097 c 7.674,9.713 6.068,23.775 -4.37,32.021 -10.438,8.246 -24.316,6.574 -31.99,-3.139 l -0.076,-0.097 c -7.674,-9.714 -6.067,-23.775 4.37,-32.021 10.438,-8.245 24.316,-6.574 31.99,3.139 z m -26.869,21.227 0.076,0.097 c 3.856,4.881 10.743,6.347 15.914,2.262 5.122,-4.047 5.271,-10.913 1.414,-15.794 l -0.076,-0.097 c -3.855,-4.881 -10.743,-6.347 -15.865,-2.3 -5.171,4.085 -5.319,10.951 -1.463,15.832 z"
   id="path372" />
		<path
   fill="#ffffff"
   d="m 390.707,537.182 -10.8,3.997 -32.282,-34.346 12.013,-4.447 5.618,6.13 15.594,-5.772 0.215,-8.288 11.782,-4.361 z m -18.989,-21.142 8.759,9.825 0.309,-13.182 z"
   id="path373" />
		<path
   fill="#ffffff"
   d="m 328.888,528.985 1.067,24.179 -12.12,0.535 -1.057,-23.933 c -0.274,-6.214 -3.542,-9.028 -8.341,-8.816 -4.799,0.212 -7.812,3.181 -7.546,9.21 l 1.07,24.24 -12.12,0.535 -1.054,-23.871 c -0.614,-13.904 7.054,-20.346 19.297,-20.886 12.244,-0.541 20.209,5.333 20.804,18.807 z"
   id="path374" />
		<path
   fill="#ffffff"
   d="m 244.671,536.891 12.487,3.371 -2.729,10.108 -36.511,-9.855 2.729,-10.109 12.487,3.371 8.507,-31.516 11.536,3.114 z"
   id="path375" />
		<path
   fill="#ffffff"
   d="m 185.65,528.108 -10.249,-6.142 8.295,-13.841 -13.153,-7.884 -8.295,13.841 -10.248,-6.142 22.164,-36.979 10.248,6.143 -8.422,14.052 13.154,7.884 8.422,-14.052 10.248,6.143 z"
   id="path376" />
	</g>
</g></g><g
       transform="matrix(0.5161031,0,0,0.59631649,11.422016,155.09608)"
       id="g2189"
       style="stroke-width:0.476931"><g
         transform="matrix(0.01031807,0,0,0.01031807,143.3621,-90.91537)"
         id="g2202"
         style="stroke-width:0.476931"><path
           d="m -3436.8,14543.2 c -848,-528 -2032,-856 -3328,-856 -2608,0 -4720,1304 -4720,2912 0,1472 1760,2680 4040,2888 v -848 c -1536,-192 -2688,-1032 -2688,-2040 0,-1144 1504,-2080 3368,-2080 928,0 1768,232 2376,608 l -864,536 h 2696 v -1664 z"
           style="fill:#cccccc;fill-opacity:1;stroke-width:0.476931"
           id="path2204" /><path
           d="m -7444.8,12247.2 v 6392 848 l 1352,-848 v -7264 z"
           style="fill:#ff6200;fill-opacity:1;stroke-width:0.476931"
           id="path2206" /></g><g
         transform="matrix(0.01377521,0,0,0.01377521,142.3208,-135.7131)"
         id="g2208"
         style="stroke-width:0.476931"><path
           d="m -1124.8,15343.2 c 64,-224 168,-416 304,-584 144,-168 312,-304 520,-400 208,-104 448,-152 720,-152 280,0 520,48 728,152 200,96 376,232 512,400 136,168 240,360 304,584 72,216 104,448 104,688 0,240 -32,472 -104,696 -64,216 -168,408 -304,576 -136,168 -312,304 -512,400 -208,104 -448,152 -728,152 -272,0 -512,-48 -720,-152 -208,-96 -376,-232 -520,-400 -136,-168 -240,-360 -304,-576 -72,-224 -104,-456 -104,-696 0,-240 32,-472 104,-688 m 304,1256 c 48,184 128,344 240,496 104,144 240,256 408,352 168,88 360,128 592,128 232,0 432,-40 600,-128 168,-96 296,-208 408,-352 104,-152 184,-312 232,-496 48,-184 80,-376 80,-568 0,-192 -32,-376 -80,-560 -48,-184 -128,-352 -232,-496 -112,-144 -240,-264 -408,-352 -168,-88 -368,-128 -600,-128 -232,0 -424,40 -592,128 -168,88 -304,208 -408,352 -112,144 -192,312 -240,496 -48,184 -72,368 -72,560 0,192 24,384 72,568 z"
           style="fill:#ff6200;fill-opacity:1;stroke-width:0.476931"
           id="path2210" /><path
           d="m 2563.2,15255.2 v 480 h 8 c 72,-176 192,-312 352,-408 160,-96 344,-144 552,-144 192,0 360,32 504,104 144,72 264,168 360,296 88,120 160,264 208,424 48,160 72,336 72,512 0,184 -24,352 -72,512 -48,160 -120,304 -208,424 -96,128 -216,224 -360,296 -144,64 -312,104 -504,104 -96,0 -184,-16 -280,-32 -88,-24 -176,-64 -248,-104 -80,-48 -152,-104 -216,-176 -56,-64 -104,-144 -136,-240 h -8 v 1408 h -312 v -3456 h 288 m 1696,880 c -32,-136 -80,-248 -144,-352 -72,-96 -160,-184 -264,-248 -104,-64 -224,-88 -376,-88 -168,0 -312,24 -424,88 -120,56 -208,136 -280,232 -64,96 -112,216 -144,344 -24,128 -40,264 -40,408 0,136 16,264 48,392 32,128 80,248 152,344 72,104 160,184 272,248 112,64 256,96 416,96 152,0 272,-32 376,-96 104,-64 192,-144 264,-248 64,-96 112,-216 144,-344 32,-128 48,-256 48,-392 0,-128 -16,-256 -48,-384 z"
           style="fill:#ff6200;fill-opacity:1;stroke-width:0.476931"
           id="path2212" /><path
           d="m 5139.2,16951.2 c 32,120 80,224 152,320 64,96 152,176 256,232 104,64 232,96 376,96 224,0 400,-56 528,-176 128,-120 216,-272 264,-472 h 312 c -64,288 -184,512 -360,664 -176,160 -424,240 -744,240 -200,0 -368,-40 -512,-104 -152,-72 -264,-168 -360,-296 -88,-120 -160,-264 -200,-424 -48,-160 -64,-328 -64,-512 0,-168 16,-328 64,-488 40,-160 112,-304 200,-432 96,-128 208,-224 360,-304 144,-72 312,-112 512,-112 200,0 376,40 520,120 144,80 264,192 352,320 88,136 152,288 192,456 40,168 56,344 48,520 h -1944 c 0,112 16,232 48,352 m 1528,-944 c -40,-112 -96,-208 -160,-288 -72,-80 -152,-152 -248,-200 -104,-48 -208,-72 -336,-72 -128,0 -240,24 -336,72 -96,48 -184,120 -248,200 -72,80 -128,176 -168,288 -40,104 -64,216 -80,336 h 1632 c 0,-120 -24,-232 -56,-336 z"
           style="fill:#ff6200;fill-opacity:1;stroke-width:0.476931"
           id="path2214" /><path
           d="m 7499.2,15255.2 v 432 h 8 c 64,-152 168,-272 320,-368 144,-88 312,-136 496,-136 176,0 320,24 440,64 120,48 216,112 288,200 72,80 120,184 152,304 32,120 40,256 40,408 v 1624 h -304 v -1576 c 0,-112 -8,-208 -32,-304 -16,-88 -56,-168 -104,-240 -48,-72 -112,-120 -200,-160 -80,-40 -184,-56 -304,-56 -128,0 -240,16 -336,64 -96,40 -176,104 -240,176 -72,80 -120,168 -160,280 -40,104 -56,216 -64,344 v 1472 h -304 v -2528 z"
           style="fill:#ff6200;fill-opacity:1;stroke-width:0.476931"
           id="path2216" /><path
           d="m 9835.2,14287.2 v 3496 h -328 v -3496 z"
           style="fill:#ff6200;fill-opacity:1;stroke-width:0.476931"
           id="path2218" /><path
           d="m 11299.2,14287.2 c 536,8 936,160 1208,448 264,288 400,720 400,1296 0,584 -136,1016 -400,1304 -272,288 -672,432 -1208,448 h -1208 v -3496 h 1208 m -160,3208 c 248,0 464,-24 648,-80 176,-56 328,-136 448,-256 112,-120 200,-272 256,-456 56,-184 80,-408 80,-672 0,-256 -24,-480 -80,-664 -56,-192 -144,-344 -256,-456 -120,-120 -272,-208 -448,-256 -184,-56 -400,-88 -648,-88 h -712 v 2928 z"
           style="fill:#ff6200;fill-opacity:1;stroke-width:0.476931"
           id="path2220" /></g></g></g></svg>
