<?xml version="1.0" encoding="UTF-8" standalone="no"?>
<!-- Created with Inkscape (http://www.inkscape.org/) -->

<svg
   width="201mm"
   height="119mm"
   viewBox="0 0 201 119"
   version="1.1"
   id="svg1"
   xml:space="preserve"
   inkscape:version="1.4.2 (ebf0e940, 2025-05-08)"
   sodipodi:docname="use-case-embed.svg"
   xmlns:inkscape="http://www.inkscape.org/namespaces/inkscape"
   xmlns:sodipodi="http://sodipodi.sourceforge.net/DTD/sodipodi-0.dtd"
   xmlns="http://www.w3.org/2000/svg"
   xmlns:svg="http://www.w3.org/2000/svg"><sodipodi:namedview
     id="namedview1"
     pagecolor="#ffffff"
     bordercolor="#000000"
     borderopacity="0.25"
     inkscape:showpageshadow="2"
     inkscape:pageopacity="0.0"
     inkscape:pagecheckerboard="0"
     inkscape:deskcolor="#d1d1d1"
     inkscape:document-units="mm"
     inkscape:zoom="0.41124686"
     inkscape:cx="395.1398"
     inkscape:cy="452.28309"
     inkscape:window-width="896"
     inkscape:window-height="859"
     inkscape:window-x="222"
     inkscape:window-y="38"
     inkscape:window-maximized="0"
     inkscape:current-layer="g1" /><defs
     id="defs1" /><g
     inkscape:label="Layer 1"
     inkscape:groupmode="layer"
     id="layer1"><g
       id="g1"
       transform="matrix(0.26458333,0,0,0.26458333,-54.513296,321.87308)"><g
         id="Object"
         transform="matrix(0.45922419,0,0,0.45371534,502.9141,-1236.8629)">
	<g
   id="g4">
		<path
   style="fill:#aad4c8"
   d="m 910.399,396.712 -1.196,-1.804 -40.69,-42.397 c -2.402,-3.59 -0.823,-8.84 3.567,-10.164 6.173,-1.875 12.039,-5.194 17.083,-9.98 16.965,-16.183 17.721,-42.811 1.523,-58.973 -15.437,-16.927 -42.049,-17.356 -58.989,-1.122 -5.008,4.801 -8.585,10.516 -10.721,16.608 -1.528,4.32 -6.837,5.662 -10.307,3.107 l -40.547,-42.558 -1.758,-1.267 c -2.554,-2.448 -6.653,-2.43 -9.305,0.125 l -47.027,45.11 c -2.918,0.194 -5.789,-1.428 -6.683,-4.538 -3.996,-13.82 -15.494,-25.751 -34.987,-29.52 -1.998,-0.393 -4.124,-0.411 -6.143,-0.053 -39.924,7.021 -50.205,48.526 -28.748,71.046 4.543,4.768 10.005,8.143 15.871,10.123 3.163,1.073 4.568,4.287 4.001,7.307 l -47.297,45.378 c -2.749,2.629 -2.887,6.893 -0.343,9.52 l 42.77,44.594 0.761,0.59 0.255,0.268 c 3.628,3.802 9.969,1.786 11.298,-3.431 3.919,-15.069 16.377,-28.518 37.175,-32.611 3.888,-0.283 7.803,-0.033 11.609,0.772 8.753,2.391 15.698,6.569 20.874,11.837 5.023,5.414 8.896,12.54 10.874,21.397 0.649,3.822 0.736,7.734 0.276,11.625 -5.044,20.593 -19.04,32.433 -34.267,35.647 -5.258,1.124 -7.563,7.358 -3.924,11.145 l 0.256,0.266 0.562,0.805 42.607,44.719 c 2.529,2.662 6.801,2.698 9.535,0.089 l 47.451,-45.238 c 3.051,-0.427 6.198,1.144 7.128,4.341 1.732,5.966 4.849,11.574 9.412,16.324 21.533,22.448 63.43,14.037 72.254,-25.522 0.445,-2.018 0.526,-4.142 0.215,-6.142 -2.892,-19.648 -14.303,-31.684 -27.905,-36.29 -3.061,-1.038 -4.588,-3.983 -4.231,-6.876 l 47.165,-44.954 c 2.661,-2.535 2.855,-6.623 0.546,-9.303 z"
   id="path1" />
		<path
   style="fill:#616e7d"
   d="m 694.305,811.241 h 0.358 l 0.976,0.143 61.763,0.268 c 3.679,0.018 6.653,-3.053 6.674,-6.822 l 0.266,-65.563 c 1.804,-2.479 5.1,-3.68 8.063,-2.123 5.493,2.874 11.701,4.517 18.284,4.517 31.104,0.038 54.073,-36.005 31.651,-69.791 -1.134,-1.696 -2.616,-3.237 -4.272,-4.412 -16.178,-11.52 -32.734,-11.627 -45.494,-5.002 -2.877,1.484 -6.045,0.519 -7.89,-1.73 l 0.26,-65.152 c 0.026,-3.661 -2.79,-6.66 -6.321,-6.822 l -2.141,-0.411 -58.764,-0.036 c -4.241,-0.751 -6.945,-5.519 -4.844,-9.609 2.908,-5.749 4.589,-12.284 4.619,-19.216 0.102,-23.45 -18.575,-42.448 -41.456,-41.968 -22.908,-0.608 -41.662,18.303 -41.687,41.756 0.015,6.944 1.63,13.482 4.563,19.249 2.06,4.09 -0.669,8.858 -4.921,9.594 l -58.784,-0.268 -2.121,0.391 c -2.524,0.107 -4.644,1.696 -5.687,3.93 0.358,1.017 0.583,2.125 0.583,3.27 l -0.112,67.272 -3.684,-0.731 c -1.671,0.731 -3.582,0.856 -5.406,-0.107 l -1.14,-0.501 c -1.982,0.018 -4.022,0.161 -6.127,0.465 l -0.536,0.072 -0.537,-0.089 c -2.325,-0.429 -4.394,-0.805 -6.387,-0.805 -18.85,0.036 -34.456,14.589 -36.817,33.503 -0.21,1.625 -0.353,3.27 -0.353,4.967 0,6.786 1.819,14.037 5.738,21.377 0.843,1.589 1.686,3.197 2.744,4.804 0.909,1.357 2.105,2.591 3.429,3.516 8.656,6.129 17.154,8.594 25.064,8.61 2.115,-0.016 4.19,-0.194 6.224,-0.517 l 0.536,-0.107 0.536,0.09 c 1.717,0.284 3.056,0.552 4.298,0.697 1.042,-0.429 2.095,-0.858 3.107,-1.395 2.141,-1.106 4.451,-0.749 6.234,0.447 l 2.943,-0.59 -0.107,68.294 c 0,0.874 -0.153,1.733 -0.353,2.555 1.078,2.266 3.286,3.873 5.912,3.873 l 61.779,0.039 0.945,-0.128 h 0.373 c 5.263,0.018 8.186,-5.946 5.35,-10.537 -8.15,-13.25 -9.203,-31.539 2.259,-49.38 2.489,-3.02 5.375,-5.644 8.59,-7.841 7.788,-4.663 15.621,-6.768 23.01,-6.855 7.379,0.122 15.187,2.284 22.954,6.965 3.193,2.213 6.081,4.855 8.559,7.892 11.375,17.893 10.199,36.181 1.977,49.398 -2.825,4.57 0.062,10.554 5.32,10.554 z"
   id="path2" />
		<path
   style="fill:#616e7d"
   d="m 475.683,579.766 -0.138,0.358 -0.061,0.128 -0.353,1.408 c -0.015,1.484 1.19,2.984 2.677,3.303 l 58.335,-0.105 c 0.838,0 1.538,0.232 2.269,0.411 v -0.018 c 2.049,0.089 3.924,0.805 5.462,1.965 l 0.373,-1.84 0.266,-65.56 c 1.809,-2.483 5.105,-3.661 8.063,-2.125 5.483,2.874 11.686,4.517 18.278,4.517 31.119,0.036 54.078,-36.004 31.656,-69.793 -1.145,-1.696 -2.612,-3.232 -4.267,-4.41 -16.173,-11.521 -32.744,-11.628 -45.509,-5 -2.862,1.479 -6.045,0.516 -7.885,-1.735 l 0.276,-65.149 c 0.005,-3.659 -2.806,-6.663 -6.336,-6.822 l -2.136,-0.409 -58.764,-0.039 c -4.251,-0.748 -6.955,-5.521 -4.86,-9.606 2.933,-5.754 4.599,-12.289 4.64,-19.221 0.107,-23.462 -18.57,-42.448 -41.472,-41.968 -22.892,-0.603 -41.651,18.306 -41.681,41.755 0.01,6.947 1.64,13.485 4.563,19.254 2.06,4.086 -0.659,8.858 -4.905,9.571 l -58.789,-0.25 -2.126,0.391 c -3.536,0.146 -6.357,3.127 -6.357,6.809 l -0.056,65.148 c -1.87,2.231 -5.043,3.196 -7.894,1.679 -12.729,-6.681 -29.305,-6.663 -45.535,4.786 -1.661,1.163 -3.143,2.698 -4.298,4.394 -22.601,33.664 0.205,69.812 31.314,69.935 6.587,0.036 12.806,-1.571 18.293,-4.43 2.979,-1.533 6.28,-0.319 8.048,2.182 l -0.051,65.56 c 0,0.82 0.189,1.589 0.45,2.322 1.528,-1.127 3.388,-1.822 5.427,-1.911 v 0.018 c 0.72,-0.179 1.436,-0.411 2.274,-0.411 l 58.34,0.105 c 1.482,-0.319 2.693,-1.819 2.662,-3.283 l -0.342,-1.428 -0.066,-0.161 -0.076,-0.161 -0.077,-0.197 c -2.969,-6.02 -4.691,-12.808 -4.737,-20.003 h -0.01 v -0.194 -0.038 -0.107 c 0,-4.553 0.858,-8.784 1.993,-12.752 5.361,-18.59 21.968,-32.376 41.978,-32.376 l 1.057,0.018 0.89,-0.018 c 19.99,0 36.612,13.787 41.973,32.376 1.134,3.968 1.977,8.199 1.977,12.769 v 0.09 c -10e-4,7.305 -1.748,14.18 -4.753,20.268 z"
   id="path3" />
		<path
   style="fill:#616e7d"
   d="m 495.943,664.76 c 7.68,-6.857 17.696,-11.055 28.697,-11.088 l 0.016,3.285 v -3.285 c 2.667,0 5.013,0.462 7.179,0.838 2.218,-0.286 4.431,-0.48 6.643,-0.498 1.088,0 2.181,0.051 3.28,0.156 l 0.082,-59.326 c 0,-1.875 -1.333,-3.229 -2.897,-3.409 l -0.22,-0.056 -0.506,-0.018 -0.486,-0.176 -0.986,-0.197 -59.06,0.105 -0.286,-0.053 c -4.619,-0.838 -7.803,-4.643 -8.232,-9.088 l -0.164,-0.892 c 0,-1.395 0.332,-2.823 0.991,-4.198 h -0.031 l 0.133,-0.34 0.076,-0.107 c 2.622,-5.289 4.134,-11.198 4.134,-17.522 v -0.089 c 0,-3.713 -0.69,-7.302 -1.717,-10.894 -4.62,-15.928 -18.718,-27.52 -35.509,-27.52 l -0.858,0.018 h -0.092 -0.097 l -0.894,-0.018 c -7.9,0 -15.151,2.627 -21.15,7.003 -6.76,4.929 -11.916,12.072 -14.348,20.516 -0.598,2.036 -1.017,4.09 -1.319,6.162 -0.235,1.553 -0.424,3.107 -0.424,4.696 v 0.018 0.107 c 0,6.323 1.523,12.233 4.16,17.501 l 0.081,0.146 0.056,0.161 0.082,0.197 -0.026,0.015 c 0.618,1.339 0.961,2.77 0.961,4.163 l -0.153,0.805 c -0.399,4.481 -3.597,8.321 -8.232,9.16 l -0.281,0.053 -59.06,-0.105 -0.48,0.089 -0.516,0.107 -0.48,0.176 -0.516,0.018 c -1.661,0.072 -3.118,1.502 -3.133,3.449 l 0.112,66.362 -0.772,0.948 c -1.85,2.213 -4.573,3.626 -7.583,3.626 -1.502,0 -3.06,-0.357 -4.466,-1.109 -5.028,-2.606 -10.664,-4.088 -16.684,-4.088 -7.946,0 -16.602,2.57 -25.324,8.768 -1.319,0.93 -2.54,2.159 -3.429,3.518 -5.974,8.948 -8.483,17.895 -8.483,26.165 0,21.286 16.699,38.432 37.134,38.465 h 0.066 c 6.004,0 11.666,-1.464 16.694,-4.088 1.375,-0.713 2.872,-1.071 4.328,-1.071 3.296,0 6.208,1.715 8.022,4.231 l 0.638,0.894 0.103,66.631 c 0,1.98 1.538,3.465 3.27,3.465 l 61.529,-0.105 0.976,-0.146 h 0.25 0.358 c 0.986,-0.018 1.62,-0.358 2.182,-0.928 0.536,-0.608 0.879,-1.482 0.879,-2.412 l -0.583,-2.052 c -4.313,-6.968 -6.816,-15.253 -6.816,-24.111 0,-9.303 2.77,-19.237 8.937,-28.882 l 0.118,-0.176 0.117,-0.141 c 2.693,-3.27 5.831,-6.127 9.3,-8.503 l 0.082,-0.054 0.072,-0.053 c 8.252,-4.964 16.684,-7.269 24.671,-7.412 h 0.025 0.077 c 7.992,0.143 16.413,2.448 24.656,7.412 l 0.082,0.036 0.087,0.072 c 3.47,2.376 6.602,5.233 9.29,8.503 l 0.128,0.161 0.112,0.155 c 6.162,9.645 8.943,19.579 8.927,28.899 0,8.84 -2.483,17.125 -6.811,24.111 l -0.593,2.034 c -0.005,0.93 0.353,1.804 0.894,2.412 0.547,0.57 1.196,0.909 2.182,0.928 h 0.593 l 0.235,0.038 0.736,0.107 61.549,0.105 c 1.727,0 3.27,-1.484 3.276,-3.465 l 0.107,-60.169 c -1.385,0.179 -2.821,0.307 -4.318,0.307 h -0.02 c -2.545,-0.018 -4.548,-0.575 -6.229,-0.859 -2.157,0.322 -4.334,0.552 -6.582,0.552 -8.998,0 -18.569,-2.856 -27.915,-9.195 l -1.058,-0.644 c -1.977,-1.428 -3.735,-3.214 -5.12,-5.286 -3.52,-5.269 -5.953,-10.641 -7.517,-15.966 -0.48,-1.658 -0.843,-3.322 -1.155,-4.962 -0.578,-3.037 -0.94,-6.04 -0.94,-8.985 0,-13.604 5.871,-25.805 15.186,-34.108 z"
   id="path4" />
	</g>
</g><g
         id="g2"
         transform="matrix(11.641996,0,0,11.886574,216.64297,-1186.934)"><path
           d="m 5.987,17.15 c 0.04,0.826 0.865,0.444 1.239,0.186 0.355,-0.245 0.459,-0.041 0.49,-0.525 a 7.937,7.937 0 0 0 0.039,-0.955 2.342,2.342 0 0 0 -1.56,0.4 c -0.227,0.165 -0.651,0.69 -0.208,0.9"
           style="fill:#f6d2a2;fill-rule:evenodd"
           id="path1-1" /><path
           d="M 6.416,17.732 A 0.527,0.527 0 0 1 6.18,17.681 0.541,0.541 0 0 1 5.91,17.199 0.358,0.358 0 0 1 5.71,16.916 1.006,1.006 0 0 1 6.142,16.189 2.4,2.4 0 0 1 7.755,15.776 l 0.068,0.006 V 15.85 A 5.667,5.667 0 0 1 7.8,16.597 C 7.794,16.67 7.789,16.742 7.784,16.815 7.762,17.158 7.698,17.21 7.521,17.271 A 0.975,0.975 0 0 0 7.26,17.4 1.788,1.788 0 0 1 6.416,17.732 Z m 1.11,-1.808 A 2.2,2.2 0 0 0 6.24,16.318 c -0.162,0.118 -0.387,0.394 -0.368,0.584 a 0.219,0.219 0 0 0 0.147,0.177 l 0.043,0.02 v 0.047 c 0.01,0.206 0.072,0.338 0.185,0.394 0.218,0.108 0.624,-0.058 0.931,-0.269 a 1.127,1.127 0 0 1 0.3,-0.148 c 0.116,-0.04 0.14,-0.049 0.157,-0.318 0,-0.073 0.01,-0.146 0.016,-0.22 A 6.148,6.148 0 0 0 7.677,15.927 Q 7.6,15.924 7.527,15.924 Z"
           id="path2-4" /><path
           d="M 5.987,17.15 A 0.65,0.65 0 0 0 6.316,16.965"
           style="fill:#c6b198;fill-rule:evenodd"
           id="path3-9" /><path
           d="M 5.987,17.229 A 0.079,0.079 0 0 1 5.96,17.077 l 0.053,-0.019 a 0.473,0.473 0 0 0 0.241,-0.139 0.079,0.079 0 1 1 0.126,0.094 0.615,0.615 0 0 1 -0.314,0.193 l -0.051,0.018 a 0.078,0.078 0 0 1 -0.028,0.005 z"
           id="path4-5" /><path
           d="M 7.894,7.309 C 4.731,6.42 7.083,2.4 9.622,4.052 Z"
           style="fill:#6ad7e5;fill-rule:evenodd"
           id="path5" /><path
           d="M 7.934,7.4 7.873,7.383 A 1.927,1.927 0 0 1 6.311,5.883 2.094,2.094 0 0 1 7.288,3.904 2.116,2.116 0 0 1 9.666,3.985 l 0.06,0.039 z M 8.383,3.734 a 1.852,1.852 0 0 0 -1.01,0.3 1.933,1.933 0 0 0 -0.907,1.823 1.755,1.755 0 0 0 1.388,1.359 L 9.519,4.079 A 2.17,2.17 0 0 0 8.383,3.736 Z"
           id="path6" /><path
           d="m 21.944,3.75 c 2.5,-1.758 4.765,2.209 1.856,3.207 z"
           style="fill:#6ad7e5;fill-rule:evenodd"
           id="path7" /><path
           d="M 23.765,7.052 21.84,3.727 21.899,3.686 a 2.066,2.066 0 0 1 2.295,-0.193 2.122,2.122 0 0 1 1.044,1.965 1.881,1.881 0 0 1 -1.413,1.573 z M 22.049,3.773 23.836,6.86 A 1.712,1.712 0 0 0 25.082,5.442 1.961,1.961 0 0 0 24.115,3.628 1.857,1.857 0 0 0 22.049,3.773 Z"
           id="path8" /><path
           d="m 22.483,27.317 c 0.636,0.393 1.8,1.583 0.844,2.16 -0.916,0.839 -1.429,-0.921 -2.234,-1.165 a 2.225,2.225 0 0 1 1.39,-0.995 z"
           style="fill:#f6d2a2;fill-rule:evenodd"
           id="path9" /><path
           d="M 22.844,29.781 H 22.806 C 22.445,29.759 22.145,29.407 21.855,29.066 A 2.041,2.041 0 0 0 21.07,28.389 l -0.106,-0.032 0.066,-0.09 a 2.323,2.323 0 0 1 1.441,-1.026 H 22.5 l 0.025,0.015 c 0.407,0.252 1.247,0.988 1.243,1.654 a 0.73,0.73 0 0 1 -0.393,0.636 0.791,0.791 0 0 1 -0.531,0.235 z m -1.625,-1.5 a 2.505,2.505 0 0 1 0.756,0.687 c 0.281,0.33 0.547,0.642 0.841,0.66 a 0.626,0.626 0 0 0 0.457,-0.2 l 0.012,-0.009 a 0.578,0.578 0 0 0 0.324,-0.506 c 0,-0.532 -0.672,-1.2 -1.144,-1.5 a 2.055,2.055 0 0 0 -1.246,0.863 z"
           id="path10" /><path
           d="m 23.327,29.556 a 0.079,0.079 0 0 1 -0.07,-0.043 2.918,2.918 0 0 1 -0.123,-0.3 1.309,1.309 0 0 0 -0.286,-0.518 0.079,0.079 0 0 1 0.109,-0.113 1.447,1.447 0 0 1 0.325,0.577 2.806,2.806 0 0 0 0.116,0.28 0.079,0.079 0 0 1 -0.035,0.106 0.078,0.078 0 0 1 -0.036,0.011 z"
           id="path11" /><path
           d="M 11.124,28.662 C 10.378,28.777 9.958,29.451 9.336,29.793 8.75,30.143 8.525,29.681 8.473,29.587 8.381,29.545 8.389,29.626 8.247,29.487 7.7,28.625 8.812,28 9.39,27.572 c 0.805,-0.163 1.31,0.535 1.734,1.09 z"
           style="fill:#f6d2a2;fill-rule:evenodd"
           id="path12" /><path
           d="M 8.939,30 A 0.535,0.535 0 0 1 8.798,29.982 0.647,0.647 0 0 1 8.418,29.652 H 8.4 c -0.066,0 -0.115,-0.014 -0.213,-0.113 L 8.176,29.526 C 7.653,28.7 8.543,28.073 9.133,27.658 9.207,27.606 9.277,27.558 9.34,27.51 L 9.354,27.5 h 0.017 c 0.829,-0.168 1.353,0.518 1.773,1.069 l 0.119,0.155 -0.131,0.02 A 2.263,2.263 0 0 0 10.027,29.378 4.023,4.023 0 0 1 9.37,29.866 0.859,0.859 0 0 1 8.939,30 Z M 8.412,29.494 a 0.213,0.213 0 0 1 0.092,0.021 l 0.023,0.011 0.02,0.035 a 0.509,0.509 0 0 0 0.292,0.269 0.6,0.6 0 0 0 0.456,-0.1 3.909,3.909 0 0 0 0.633,-0.471 2.629,2.629 0 0 1 1.056,-0.644 c -0.4,-0.526 -0.862,-1.094 -1.562,-0.963 -0.061,0.044 -0.127,0.091 -0.2,0.139 -0.6,0.424 -1.352,0.952 -0.919,1.648 0.062,0.062 0.077,0.061 0.09,0.061 z"
           id="path13" /><path
           d="M 8.472,29.665 H 8.465 a 0.079,0.079 0 0 1 -0.072,-0.085 1.2,1.2 0 0 1 0.253,-0.572 1.852,1.852 0 0 0 0.165,-0.276 0.079,0.079 0 0 1 0.144,0.064 1.992,1.992 0 0 1 -0.178,0.3 1.065,1.065 0 0 0 -0.226,0.5 0.079,0.079 0 0 1 -0.079,0.069 z"
           id="path14" /><path
           d="M 8.026,6.2 C 7.609,5.979 7.303,5.68 7.558,5.2 7.794,4.753 8.233,4.8 8.65,5.022 Z"
           style="fill-rule:evenodd"
           id="path15" /><path
           d="m 23.141,5.778 c 0.417,-0.221 0.723,-0.52 0.468,-1 C 23.373,4.331 22.934,4.378 22.517,4.6 Z"
           style="fill-rule:evenodd"
           id="path16" /><path
           d="m 26.013,17.046 c -0.04,0.826 -0.865,0.444 -1.239,0.186 -0.355,-0.245 -0.459,-0.041 -0.49,-0.525 a 7.936,7.936 0 0 1 -0.039,-0.955 2.342,2.342 0 0 1 1.56,0.4 c 0.227,0.165 0.651,0.69 0.208,0.9"
           style="fill:#f6d2a2;fill-rule:evenodd"
           id="path17" /><path
           d="M 25.584,17.627 A 1.788,1.788 0 0 1 24.73,17.296 0.975,0.975 0 0 0 24.469,17.167 c -0.177,-0.062 -0.241,-0.114 -0.263,-0.456 0,-0.073 -0.01,-0.145 -0.016,-0.218 a 5.676,5.676 0 0 1 -0.023,-0.747 v -0.068 l 0.068,-0.006 a 2.4,2.4 0 0 1 1.613,0.413 1.006,1.006 0 0 1 0.432,0.727 0.358,0.358 0 0 1 -0.2,0.283 0.541,0.541 0 0 1 -0.27,0.482 0.527,0.527 0 0 1 -0.226,0.05 z m -1.263,-1.8 a 6.148,6.148 0 0 0 0.026,0.658 c 0.006,0.073 0.011,0.146 0.016,0.22 0.017,0.269 0.041,0.277 0.157,0.318 a 1.127,1.127 0 0 1 0.3,0.148 c 0.306,0.212 0.713,0.377 0.931,0.269 0.113,-0.056 0.175,-0.188 0.185,-0.394 v -0.047 l 0.043,-0.02 a 0.219,0.219 0 0 0 0.147,-0.177 c 0.018,-0.19 -0.206,-0.466 -0.368,-0.584 a 2.232,2.232 0 0 0 -1.437,-0.394 z"
           id="path18" /><path
           d="M 26.013,17.046 A 0.65,0.65 0 0 1 25.684,16.861"
           style="fill:#c6b198;fill-rule:evenodd"
           id="path19" /><path
           d="m 26.013,17.124 a 0.078,0.078 0 0 1 -0.027,0 l -0.051,-0.018 a 0.614,0.614 0 0 1 -0.314,-0.193 0.079,0.079 0 1 1 0.126,-0.094 0.473,0.473 0 0 0 0.241,0.139 l 0.053,0.019 a 0.079,0.079 0 0 1 -0.027,0.152 z"
           id="path20" /><path
           d="m 15.683,2.079 c 3.166,0 6.134,0.453 7.681,3.495 1.389,3.409 0.895,7.086 1.107,10.689 0.182,3.094 0.585,6.668 -0.85,9.536 -1.51,3.016 -5.283,3.775 -8.392,3.664 C 12.787,29.376 9.838,28.579 8.46,26.348 6.843,23.731 7.609,19.839 7.726,16.927 7.865,13.478 6.792,10.017 7.926,6.642 9.102,3.142 12.272,2.349 15.684,2.079"
           style="fill:#6ad7e5;fill-rule:evenodd"
           id="path21" /><path
           d="m 15.77,29.55 c -0.2,0 -0.38,0 -0.543,-0.01 -1.5,-0.054 -5.176,-0.469 -6.833,-3.152 C 7.087,24.272 7.32,21.347 7.525,18.766 7.577,18.117 7.625,17.503 7.649,16.923 A 29.673,29.673 0 0 0 7.492,13.257 16.216,16.216 0 0 1 7.852,6.616 5.812,5.812 0 0 1 10.932,3.077 12.948,12.948 0 0 1 15.677,2 h 0.006 c 3.091,0 6.17,0.429 7.751,3.538 v 0.006 a 20.518,20.518 0 0 1 1.044,7.762 c 0.005,0.969 0.011,1.972 0.068,2.952 0.017,0.3 0.037,0.6 0.057,0.9 0.184,2.841 0.392,6.062 -0.915,8.673 -1.629,3.261 -5.741,3.719 -7.918,3.719 z M 15.686,2.157 C 12.392,2.418 9.186,3.145 7.999,6.666 A 16.1,16.1 0 0 0 7.646,13.244 29.788,29.788 0 0 1 7.8,16.93 c -0.024,0.584 -0.072,1.2 -0.124,1.85 -0.2,2.557 -0.434,5.455 0.846,7.527 1.618,2.619 5.228,3.025 6.705,3.077 1.922,0.069 6.579,-0.147 8.318,-3.621 1.288,-2.573 1.081,-5.771 0.9,-8.592 -0.02,-0.3 -0.039,-0.606 -0.057,-0.9 -0.058,-0.984 -0.063,-1.989 -0.068,-2.96 a 20.408,20.408 0 0 0 -1.031,-7.7 C 21.75,2.576 18.725,2.158 15.686,2.157 Z"
           id="path22" /><path
           d="m 16.242,6.329 c 0.568,3.3 5.97,2.431 5.194,-0.9 -0.7,-2.988 -5.383,-2.161 -5.194,0.9"
           style="fill:#ffffff;fill-rule:evenodd"
           id="path23" /><path
           d="M 18.808,8.485 A 3.025,3.025 0 0 1 17.82,8.323 2.444,2.444 0 0 1 16.167,6.341 V 6.333 A 2.672,2.672 0 0 1 18.583,3.519 2.482,2.482 0 0 1 21.51,5.41 2.312,2.312 0 0 1 20.837,7.753 3.072,3.072 0 0 1 18.808,8.485 Z M 16.318,6.32 A 2.3,2.3 0 0 0 17.87,8.18 2.987,2.987 0 0 0 20.735,7.64 2.165,2.165 0 0 0 21.362,5.44 2.335,2.335 0 0 0 18.6,3.67 2.524,2.524 0 0 0 16.318,6.32 Z"
           id="path24" /><path
           d="M 9.788,6.863 C 10.524,9.74 15.13,9 14.956,6.118 14.748,2.662 9.083,3.329 9.787,6.863"
           style="fill:#ffffff;fill-rule:evenodd"
           id="path25" /><path
           d="M 12.245,8.761 A 2.826,2.826 0 0 1 10.9,8.435 2.384,2.384 0 0 1 9.716,6.882 v 0 a 2.411,2.411 0 0 1 0.826,-2.472 3.107,3.107 0 0 1 3.087,-0.394 2.335,2.335 0 0 1 1.4,2.1 2.529,2.529 0 0 1 -2.29,2.609 3.2,3.2 0 0 1 -0.494,0.036 z M 9.86,6.847 A 2.4,2.4 0 0 0 12.718,8.576 2.385,2.385 0 0 0 14.883,6.122 2.193,2.193 0 0 0 13.569,4.146 2.953,2.953 0 0 0 10.634,4.52 2.269,2.269 0 0 0 9.86,6.847 Z"
           id="path26" /><path
           d="m 16.894,10.294 a 7.45,7.45 0 0 1 0.016,1.369 c -0.11,0.207 -0.325,0.229 -0.51,0.313 a 0.751,0.751 0 0 1 -0.575,-0.449 9.72,9.72 0 0 1 0.041,-1.549 z"
           style="fill:#ffffff;fill-rule:evenodd"
           id="path27" /><path
           d="m 16.411,12.057 h -0.023 a 0.828,0.828 0 0 1 -0.635,-0.5 v -0.01 -0.011 a 5.2,5.2 0 0 1 0.009,-1.063 c 0.013,-0.163 0.026,-0.331 0.031,-0.5 v -0.1 l 1.181,0.362 v 0.058 c 0,0.142 0.012,0.289 0.024,0.444 a 3.746,3.746 0 0 1 -0.008,0.939 v 0.012 l -0.006,0.011 a 0.658,0.658 0 0 1 -0.414,0.3 c -0.047,0.017 -0.091,0.032 -0.134,0.052 z m -0.509,-0.551 a 0.671,0.671 0 0 0 0.488,0.388 c 0.041,-0.017 0.083,-0.032 0.123,-0.047 a 0.525,0.525 0 0 0 0.322,-0.211 3.683,3.683 0 0 0 0,-0.887 c -0.01,-0.137 -0.02,-0.268 -0.023,-0.4 l -0.875,-0.268 c -0.007,0.136 -0.017,0.271 -0.027,0.4 a 5.05,5.05 0 0 0 -0.01,1.025 z"
           id="path28" /><ellipse
           cx="11.058"
           cy="6.3940001"
           rx="0.778"
           ry="0.84200001"
           id="ellipse28" /><ellipse
           cx="11.412"
           cy="6.5840001"
           rx="0.183"
           ry="0.214"
           style="fill:#ffffff"
           id="ellipse29" /><ellipse
           cx="17.573999"
           cy="6.184"
           rx="0.76499999"
           ry="0.84200001"
           id="ellipse30" /><ellipse
           cx="17.922001"
           cy="6.3740001"
           rx="0.18000001"
           ry="0.214"
           style="fill:#ffffff"
           id="ellipse31" /><path
           d="m 14.671,10.247 c -0.339,0.822 0.189,2.467 1.11,1.254 a 9.72,9.72 0 0 1 0.041,-1.549 z"
           style="fill:#ffffff;fill-rule:evenodd"
           id="path31" /><path
           d="M 15.166,12.013 A 0.451,0.451 0 0 1 14.94,11.951 1.6,1.6 0 0 1 14.599,10.218 L 14.614,10.182 15.9,9.85 v 0.1 c -0.005,0.17 -0.019,0.34 -0.032,0.5 a 5,5 0 0 0 -0.01,1.031 v 0.032 l -0.019,0.026 c -0.265,0.361 -0.494,0.474 -0.673,0.474 z m -0.436,-1.7 a 1.458,1.458 0 0 0 0.288,1.5 c 0.238,0.136 0.5,-0.1 0.681,-0.335 a 5.349,5.349 0 0 1 0.013,-1.031 c 0.01,-0.129 0.02,-0.261 0.027,-0.392 z"
           id="path32" /><path
           d="m 14.787,8.663 a 1,1 0 0 0 -0.821,1.4 c 0.435,0.788 1.407,-0.07 2.013,0.011 0.7,0.014 1.268,0.737 1.827,0.131 0.622,-0.674 -0.268,-1.331 -0.964,-1.624 z"
           style="fill:#f6d2a2;fill-rule:evenodd"
           id="path33" /><path
           d="m 17.308,10.526 a 1.727,1.727 0 0 1 -0.641,-0.179 1.928,1.928 0 0 0 -0.689,-0.194 h -0.009 a 1.749,1.749 0 0 0 -0.712,0.152 c -0.491,0.17 -1.048,0.362 -1.36,-0.2 a 0.946,0.946 0 0 1 0.014,-0.917 1.118,1.118 0 0 1 0.869,-0.6 v 0 L 16.857,8.5 16.873,8.507 c 0.517,0.218 1.106,0.617 1.207,1.083 a 0.836,0.836 0 0 1 -0.772,0.934 z M 15.985,10 a 2.056,2.056 0 0 1 0.743,0.206 c 0.393,0.165 0.7,0.295 1.021,-0.05 a 0.58,0.58 0 0 0 0.178,-0.528 c -0.087,-0.4 -0.642,-0.769 -1.1,-0.964 l -2.036,0.081 a 0.973,0.973 0 0 0 -0.742,0.517 0.792,0.792 0 0 0 -0.015,0.767 c 0.248,0.449 0.7,0.294 1.17,0.13 A 1.856,1.856 0 0 1 15.985,10 Z"
           style="fill:#231f20"
           id="path34" /><path
           d="M 14.708,8.63 C 14.661,7.535 16.75,7.4 17,8.315 17.25,9.23 14.814,9.443 14.711,8.631 Z"
           style="fill-rule:evenodd"
           id="path35" /></g></g></g></svg>
