<svg width="1300" height="1304" viewBox="0 0 1300 1304" fill="none" xmlns="http://www.w3.org/2000/svg">
<g filter="url(#filter0_d_3_585)">
<path d="M447.093 264.14C421.626 248.283 386.069 238.433 347.148 238.433C268.826 238.433 205.4 277.594 205.4 325.884C205.4 370.09 258.255 406.368 326.727 412.615V387.148C280.599 381.382 246.002 356.156 246.002 325.884C246.002 291.528 291.17 263.419 347.148 263.419C375.017 263.419 400.244 270.386 418.503 281.678L392.556 297.775H473.52V247.802L447.093 264.14Z" fill="#CCCCCC"/>
<path d="M326.727 195.187V387.148V412.615L367.33 387.148V169L326.727 195.187Z" fill="#FF6200"/>
<path d="M502.177 312.165C504.743 303.184 508.912 295.486 514.365 288.75C520.139 282.014 526.874 276.562 535.214 272.713C543.553 268.543 553.176 266.618 564.081 266.618C575.307 266.618 584.93 268.543 593.269 272.713C601.288 276.562 608.344 282.014 613.797 288.75C619.25 295.486 623.42 303.184 625.986 312.165C628.872 320.825 630.155 330.127 630.155 339.749C630.155 349.372 628.872 358.673 625.986 367.654C623.42 376.314 619.25 384.012 613.797 390.748C608.344 397.484 601.288 402.937 593.269 406.786C584.93 410.955 575.307 412.88 564.081 412.88C553.176 412.88 543.553 410.955 535.214 406.786C526.874 402.937 520.139 397.484 514.365 390.748C508.912 384.012 504.743 376.314 502.177 367.654C499.29 358.673 498.007 349.372 498.007 339.749C498.007 330.127 499.29 320.825 502.177 312.165ZM514.365 362.522C516.29 369.899 519.497 376.314 523.988 382.409C528.157 388.182 533.61 392.673 540.346 396.522C547.081 400.05 554.779 401.654 564.081 401.654C573.383 401.654 581.402 400.05 588.137 396.522C594.873 392.673 600.005 388.182 604.496 382.409C608.665 376.314 611.873 369.899 613.797 362.522C615.722 355.145 617.005 347.447 617.005 339.749C617.005 332.051 615.722 324.674 613.797 317.297C611.873 309.919 608.665 303.184 604.496 297.41C600.005 291.637 594.873 286.825 588.137 283.297C581.402 279.769 573.383 278.165 564.081 278.165C554.779 278.165 547.081 279.769 540.346 283.297C533.61 286.825 528.157 291.637 523.988 297.41C519.497 303.184 516.29 309.919 514.365 317.297C512.441 324.674 511.478 332.051 511.478 339.749C511.478 347.447 512.441 355.145 514.365 362.522Z" fill="#FF6200"/>
<path d="M650.042 308.636V327.881H650.363C653.249 320.825 658.061 315.372 664.476 311.523C670.891 307.674 678.268 305.75 686.607 305.75C694.305 305.75 701.041 307.033 706.814 309.919C712.588 312.806 717.399 316.655 721.248 321.787C724.776 326.598 727.663 332.372 729.588 338.787C731.512 345.202 732.474 352.258 732.474 359.315C732.474 366.692 731.512 373.428 729.588 379.843C727.663 386.258 724.776 392.031 721.248 396.842C717.399 401.974 712.588 405.823 706.814 408.71C701.041 411.276 694.305 412.88 686.607 412.88C682.758 412.88 679.23 412.238 675.381 411.597C671.853 410.635 668.325 409.031 665.438 407.427C662.23 405.503 659.344 403.257 656.778 400.371C654.532 397.805 652.608 394.597 651.325 390.748H651.004V447.2H638.495V308.636H650.042ZM718.041 343.919C716.758 338.466 714.833 333.976 712.267 329.806C709.38 325.957 705.852 322.429 701.682 319.863C697.513 317.297 692.701 316.334 686.607 316.334C679.871 316.334 674.098 317.297 669.608 319.863C664.796 322.108 661.268 325.315 658.381 329.164C655.815 333.013 653.891 337.825 652.608 342.957C651.646 348.089 651.004 353.541 651.004 359.315C651.004 364.768 651.646 369.9 652.929 375.032C654.212 380.163 656.136 384.975 659.023 388.824C661.91 392.993 665.438 396.201 669.928 398.767C674.419 401.333 680.192 402.616 686.607 402.616C692.701 402.616 697.513 401.333 701.682 398.767C705.852 396.201 709.38 392.993 712.267 388.824C714.833 384.975 716.758 380.163 718.041 375.032C719.324 369.9 719.965 364.768 719.965 359.315C719.965 354.183 719.324 349.051 718.041 343.919Z" fill="#FF6200"/>
<path d="M753.323 376.635C754.606 381.446 756.53 385.616 759.417 389.465C761.983 393.314 765.511 396.522 769.681 398.767C773.851 401.333 778.983 402.616 784.756 402.616C793.737 402.616 800.794 400.371 805.926 395.559C811.058 390.748 814.586 384.654 816.51 376.635H829.02C826.454 388.182 821.642 397.163 814.586 403.257C807.53 409.672 797.586 412.88 784.756 412.88C776.738 412.88 770.002 411.276 764.228 408.71C758.134 405.823 753.644 401.974 749.795 396.842C746.266 392.031 743.38 386.258 741.776 379.843C739.851 373.428 739.21 366.692 739.21 359.315C739.21 352.579 739.851 346.164 741.776 339.749C743.38 333.334 746.266 327.561 749.795 322.429C753.644 317.297 758.134 313.448 764.228 310.24C770.002 307.354 776.738 305.75 784.756 305.75C792.775 305.75 799.832 307.354 805.605 310.561C811.378 313.768 816.19 318.259 819.718 323.391C823.246 328.844 825.812 334.938 827.416 341.674C829.02 348.409 829.661 355.466 829.34 362.522H751.398C751.398 367.013 752.04 371.824 753.323 376.635ZM814.586 338.787C812.982 334.296 810.737 330.447 808.171 327.24C805.284 324.032 802.077 321.146 798.228 319.221C794.058 317.297 789.888 316.334 784.756 316.334C779.624 316.334 775.134 317.297 771.285 319.221C767.436 321.146 763.908 324.032 761.342 327.24C758.455 330.447 756.21 334.296 754.606 338.787C753.002 342.957 752.04 347.447 751.398 352.258H816.831C816.831 347.447 815.869 342.957 814.586 338.787Z" fill="#FF6200"/>
<path d="M847.944 308.636V325.957H848.265C850.831 319.863 855.001 315.051 861.095 311.202C866.869 307.674 873.604 305.75 880.981 305.75C888.038 305.75 893.811 306.712 898.623 308.316C903.434 310.24 907.283 312.806 910.17 316.334C913.056 319.542 914.981 323.712 916.264 328.523C917.547 333.334 917.868 338.787 917.868 344.881V409.993H905.679V346.806C905.679 342.315 905.358 338.466 904.396 334.617C903.755 331.089 902.151 327.881 900.226 324.995C898.302 322.108 895.736 320.183 892.208 318.58C889 316.976 884.83 316.334 880.019 316.334C874.887 316.334 870.397 316.976 866.548 318.9C862.699 320.504 859.491 323.07 856.925 325.957C854.039 329.164 852.114 332.693 850.51 337.183C848.907 341.353 848.265 345.843 847.944 350.975V409.993H835.756V308.636H847.944Z" fill="#FF6200"/>
<path d="M941.603 269.826V409.993H928.452V269.826H941.603Z" fill="#FF6200"/>
<path d="M1000.3 269.826C1021.79 270.147 1037.83 276.241 1048.73 287.788C1059.32 299.335 1064.77 316.655 1064.77 339.749C1064.77 363.164 1059.32 380.484 1048.73 392.031C1037.83 403.578 1021.79 409.352 1000.3 409.993H951.867V269.826H1000.3ZM993.885 398.446C1003.83 398.446 1012.49 397.484 1019.87 395.239C1026.92 392.993 1033.02 389.786 1037.83 384.975C1042.32 380.164 1045.85 374.069 1048.09 366.692C1050.34 359.315 1051.3 350.334 1051.3 339.749C1051.3 329.485 1050.34 320.504 1048.09 313.127C1045.85 305.429 1042.32 299.335 1037.83 294.844C1033.02 290.033 1026.92 286.505 1019.87 284.58C1012.49 282.335 1003.83 281.052 993.885 281.052H965.338V398.446H993.885Z" fill="#FF6200"/>
<path fill-rule="evenodd" clip-rule="evenodd" d="M633.292 481.983C782.93 471.607 882.148 544.833 938.879 634.052C967.324 678.786 995.234 746.727 995.362 816.535C995.5 892.383 970.929 958.066 938.879 1006.26C905.939 1055.79 863.334 1096.71 809.983 1123.57C720.802 1168.48 596.168 1169.71 514.533 1126.47C423.618 1078.32 353.717 1009.59 327.705 890.397C317.295 842.699 316.099 781.068 330.601 728.19C334.005 715.786 340.189 702.732 345.085 690.535C368.611 631.924 408.655 580.957 458.05 545.706C477.899 531.542 501.978 517.455 523.223 508.051C549.657 496.351 594.163 484.695 633.292 481.983Z" fill="white"/>
<path fill-rule="evenodd" clip-rule="evenodd" d="M917.136 824.969C917.136 966.393 802.49 1081.03 661.068 1081.03C519.647 1081.03 405.003 966.393 405.003 824.969C405.003 683.549 519.647 568.901 661.068 568.901C802.489 568.901 917.136 683.549 917.136 824.969Z" fill="black"/>
<path fill-rule="evenodd" clip-rule="evenodd" d="M633.292 481.983C782.93 471.607 882.148 544.833 938.879 634.052C967.324 678.786 995.234 746.727 995.362 816.535C995.5 892.383 970.929 958.066 938.879 1006.26C905.939 1055.79 863.334 1096.71 809.983 1123.57C720.802 1168.48 596.168 1169.71 514.533 1126.47C423.618 1078.32 353.717 1009.59 327.705 890.397C317.295 842.699 316.099 781.068 330.601 728.19C334.005 715.786 340.189 702.732 345.085 690.535C368.611 631.924 408.655 580.957 458.05 545.706C477.899 531.542 501.978 517.455 523.223 508.051C549.657 496.351 594.163 484.695 633.292 481.983ZM582.602 506.604C527.022 521.014 486.269 546.83 450.809 574.673C399.676 614.822 367.079 670.849 347.981 738.328C326.734 813.401 340.382 904.248 369.706 961.363C400.114 1020.59 440.944 1066.57 498.602 1098.95C554.697 1130.45 633.595 1150.68 715.845 1135.16C788.923 1121.37 844.424 1089.53 889.639 1042.47C950.133 979.497 998.753 863.515 966.399 741.224C957.75 708.54 946.443 674.476 928.742 645.638C919.179 630.058 905.146 614.731 891.087 599.293C838.027 541.024 752.27 490.812 641.982 497.913C620.993 499.264 602.548 501.432 582.602 506.604Z" fill="black"/>
<path d="M676.554 1132.07L972.451 836.181" stroke="white" stroke-width="2"/>
<path d="M650.686 1108.64L947.875 811.456" stroke="white" stroke-width="2"/>
<path d="M624.818 1085.21L923.298 786.733" stroke="white" stroke-width="2"/>
<path d="M598.949 1061.78L898.721 762.009" stroke="white" stroke-width="2"/>
<path d="M573.082 1038.34L874.145 737.284" stroke="white" stroke-width="2"/>
<path d="M547.213 1014.91L849.567 712.56" stroke="white" stroke-width="2"/>
<path d="M521.345 991.478L824.991 687.836" stroke="white" stroke-width="2"/>
<path d="M495.477 968.045L800.413 663.111" stroke="white" stroke-width="2"/>
<path d="M469.608 944.613L775.837 638.387" stroke="white" stroke-width="2"/>
<path d="M443.741 921.179L751.26 613.664" stroke="white" stroke-width="2"/>
<path d="M417.873 897.748L726.683 588.94" stroke="white" stroke-width="2"/>
<path d="M392.004 874.315L702.107 564.215" stroke="white" stroke-width="2"/>
<path d="M366.136 850.882L677.53 539.491" stroke="white" stroke-width="2"/>
<path d="M340.267 827.449L652.953 514.767" stroke="white" stroke-width="2"/>
<path d="M340.167 830.44L641.977 1132.26" stroke="white" stroke-width="2"/>
<path d="M364.642 805.615L667.04 1108.03" stroke="white" stroke-width="2"/>
<path d="M389.118 780.79L692.102 1083.79" stroke="white" stroke-width="2"/>
<path d="M413.593 755.964L717.166 1059.55" stroke="white" stroke-width="2"/>
<path d="M438.068 731.139L742.227 1035.31" stroke="white" stroke-width="2"/>
<path d="M462.543 706.313L767.292 1011.07" stroke="white" stroke-width="2"/>
<path d="M487.019 681.488L792.355 986.834" stroke="white" stroke-width="2"/>
<path d="M511.493 656.662L817.417 962.594" stroke="white" stroke-width="2"/>
<path d="M535.968 631.837L842.48 938.356" stroke="white" stroke-width="2"/>
<path d="M560.444 607.012L867.542 914.117" stroke="white" stroke-width="2"/>
<path d="M584.92 582.186L892.606 889.879" stroke="white" stroke-width="2"/>
<path d="M609.394 557.361L917.668 865.639" stroke="white" stroke-width="2"/>
<path d="M633.869 532.536L942.73 841.402" stroke="white" stroke-width="2"/>
<path d="M658.345 507.711L967.794 817.163" stroke="white" stroke-width="2"/>
<path fill-rule="evenodd" clip-rule="evenodd" d="M873.707 600.741C847.076 574.11 814.334 550.112 775.224 535.568C734.685 520.493 688.827 507.787 634.741 512.396C548.585 519.739 488.093 558.395 442.119 603.638C409.917 635.326 385.694 674.158 369.705 719.5C346.228 786.077 347.653 864.66 374.05 932.397C396.566 990.176 433.418 1036.78 485.567 1072.88C534.591 1106.82 604.953 1133.14 683.981 1126.47C780.235 1118.34 850.662 1068.96 896.878 1012.05C908.703 997.496 920.461 981.042 927.291 961.364C933.984 947.185 937.259 937.547 940.326 932.398C953.163 903.634 959.964 873.286 962.05 839.709C968.467 736.434 928.731 655.766 873.707 600.741ZM845.34 915.388C845.156 915.781 844.991 916.147 844.799 916.552C840.024 930.216 831.799 941.642 823.532 951.751C791.21 991.263 741.962 1025.55 674.65 1031.2C619.384 1035.83 570.179 1017.56 535.896 993.989C506.105 973.51 483.46 948.159 467.58 917.693C466.611 915.86 457.389 894.613 457.362 893.679C444.782 854.657 443.69 791.913 456.602 754.26C465.22 729.13 479.581 701.939 498.602 680.397C524.865 650.653 551.146 631.593 592.741 618.121C611.733 611.969 628.735 605.708 652.12 605.087C709.146 603.569 767.217 629.173 798.396 657.225C827.049 683.003 859.705 733.217 867.915 780.328C876.364 828.817 867.347 876.16 845.34 915.388Z" fill="black"/>
<path d="M746.22 961.9C732.178 961.9 719.855 953.008 715.554 939.771L699.914 892.116H621.672L607.14 939.337C602.753 952.83 590.337 961.863 576.222 961.863C572.834 961.863 569.468 961.327 566.218 960.272C549.347 955.208 539.769 937.049 544.938 919.817L610.979 710.626C615.267 697.319 627.891 688.037 641.682 688.037H676.798C690.667 688.037 703.29 697.161 707.495 710.226L776.948 919.338C782.501 936.435 773.305 954.788 756.459 960.271C753.128 961.353 749.684 961.9 746.22 961.9Z" fill="white"/>
<path d="M676.8 691.422C689.011 691.422 700.465 699.437 704.273 711.263L773.735 920.403C778.694 935.669 770.68 952.081 755.414 957.05C752.362 958.041 749.263 958.514 746.22 958.514C734.04 958.514 722.742 950.942 718.777 938.726L702.366 888.73H619.172L603.904 938.341C599.908 950.634 588.489 958.475 576.225 958.475C573.256 958.475 570.24 958.017 567.266 957.05C551.998 952.466 543.603 936.053 548.183 920.787L614.208 711.645C618.02 699.818 629.091 691.422 641.683 691.422H676.8ZM676.8 684.65H641.682C626.196 684.65 612.565 694.663 607.762 709.567L541.724 918.748L541.71 918.794L541.696 918.84C535.997 937.839 546.561 957.864 565.251 963.515C568.814 964.665 572.506 965.247 576.225 965.247C591.808 965.247 605.52 955.275 610.345 940.435L610.361 940.384L610.377 940.332L624.174 895.502H697.461L712.344 940.837C717.088 955.453 730.706 965.285 746.222 965.285C750.042 965.285 753.839 964.682 757.508 963.491C776.133 957.429 786.302 937.162 780.179 918.31L710.712 709.153C706.047 694.724 692.107 684.65 676.8 684.65Z" fill="black"/>
<path d="M486.862 621.369L486.779 621.257C478.544 609.97 480.96 594.181 493.089 585.329C505.218 576.478 520.799 578.962 529.034 590.248L529.117 590.36C537.352 601.647 534.935 617.437 522.807 626.288C510.678 635.139 495.097 632.655 486.862 621.369ZM518.08 598.586L517.998 598.475C513.86 592.804 506.155 590.853 500.147 595.237C494.195 599.581 493.732 607.319 497.871 612.991L497.953 613.103C502.092 618.774 509.796 620.724 515.748 616.381C521.757 611.996 522.22 604.259 518.08 598.586Z" fill="white"/>
<path d="M566.264 547.391L578.641 543.42L613.339 583.756L599.571 588.173L593.541 580.983L575.669 586.717L575.014 596.053L561.511 600.386L566.264 547.391ZM586.627 572.177L577.238 560.661L576.234 575.512L586.627 572.177Z" fill="white"/>
<path d="M635.629 559.526L635.737 532.206L649.432 532.26L649.325 559.302C649.296 566.323 652.828 569.674 658.251 569.696C663.674 569.718 667.232 566.534 667.258 559.722L667.367 532.333L681.062 532.387L680.954 559.36C680.892 575.07 671.898 581.918 658.064 581.862C644.23 581.806 635.569 574.75 635.629 559.526Z" fill="white"/>
<path d="M730.519 554.752L716.559 550.491L720.008 539.188L760.829 551.647L757.379 562.949L743.418 558.689L732.664 593.926L719.767 589.99L730.519 554.752Z" fill="white"/>
<path d="M797.291 567.418L808.518 574.89L798.428 590.052L812.839 599.642L822.929 584.479L834.156 591.95L807.197 632.461L795.969 624.99L806.214 609.595L791.802 600.005L781.559 615.4L770.332 607.928L797.291 567.418Z" fill="white"/>
<path d="M836.949 1010.27L837.035 1010.38C845.697 1021.34 843.885 1037.22 832.102 1046.52C820.32 1055.83 804.655 1053.94 795.992 1042.98L795.907 1042.87C787.244 1031.91 789.058 1016.03 800.839 1006.73C812.622 997.419 828.287 999.305 836.949 1010.27ZM806.62 1034.23L806.706 1034.34C811.058 1039.85 818.832 1041.5 824.669 1036.89C830.451 1032.32 830.619 1024.57 826.265 1019.06L826.18 1018.95C821.828 1013.45 814.053 1011.79 808.271 1016.36C802.434 1020.97 802.267 1028.72 806.62 1034.23Z" fill="white"/>
<path d="M760.825 1087.36L748.634 1091.88L712.195 1053.11L725.755 1048.09L732.096 1055.01L749.699 1048.49L749.941 1039.14L763.241 1034.21L760.825 1087.36ZM739.39 1063.5L749.277 1074.59L749.626 1059.71L739.39 1063.5Z" fill="white"/>
<path d="M691.045 1078.11L692.249 1105.4L678.568 1106.01L677.375 1078.99C677.066 1071.98 673.377 1068.8 667.96 1069.04C662.543 1069.28 659.142 1072.63 659.442 1079.44L660.65 1106.8L646.969 1107.4L645.779 1080.46C645.086 1064.76 653.742 1057.49 667.561 1056.88C681.382 1056.27 690.373 1062.9 691.045 1078.11Z" fill="white"/>
<path d="M595.982 1087.04L610.077 1090.84L606.996 1102.25L565.783 1091.13L568.864 1079.72L582.959 1083.52L592.561 1047.95L605.583 1051.46L595.982 1087.04Z" fill="white"/>
<path d="M529.359 1077.12L517.79 1070.19L527.154 1054.56L512.307 1045.67L502.943 1061.29L491.375 1054.36L516.394 1012.61L527.962 1019.55L518.455 1035.41L533.303 1044.31L542.81 1028.45L554.378 1035.38L529.359 1077.12Z" fill="white"/>
<circle cx="650" cy="650" r="640" stroke="#1C7D78" stroke-width="20"/>
</g>
<defs>
<filter id="filter0_d_3_585" x="0" y="0" width="1300" height="1304" filterUnits="userSpaceOnUse" color-interpolation-filters="sRGB">
<feFlood flood-opacity="0" result="BackgroundImageFix"/>
<feColorMatrix in="SourceAlpha" type="matrix" values="0 0 0 0 0 0 0 0 0 0 0 0 0 0 0 0 0 0 127 0" result="hardAlpha"/>
<feOffset dy="4"/>
<feComposite in2="hardAlpha" operator="out"/>
<feColorMatrix type="matrix" values="0 0 0 0 0 0 0 0 0 0 0 0 0 0 0 0 0 0 0.25 0"/>
<feBlend mode="normal" in2="BackgroundImageFix" result="effect1_dropShadow_3_585"/>
<feBlend mode="normal" in="SourceGraphic" in2="effect1_dropShadow_3_585" result="shape"/>
</filter>
</defs>
</svg>