<svg width="2252" height="840" viewBox="0 0 2252 840" fill="none" xmlns="http://www.w3.org/2000/svg">
<path d="M1690.58 478.022L1684.6 484.75L1698.05 496.706L1704.03 489.978L1690.58 478.022ZM1638.29 365C1676.79 365 1707.84 395.862 1707.84 433.733H1725.84C1725.84 385.742 1686.55 347 1638.29 347V365ZM1707.84 433.733C1707.84 450.966 1701.43 465.806 1690.58 478.022L1704.03 489.978C1717.5 474.817 1725.84 455.819 1725.84 433.733H1707.84ZM1584.69 389.311C1597.4 374.425 1616.64 365 1638.29 365V347C1611.32 347 1587.1 358.768 1571 377.62L1584.69 389.311Z" fill="#5D5D5D"/>
<path d="M1577.55 470V270" stroke="#5D5D5D" stroke-width="18" stroke-linecap="square" stroke-linejoin="round"/>
<path d="M1759.1 367C1748.75 379.859 1742.55 396.206 1742.55 414C1742.55 455.421 1776.13 489 1817.55 489C1845.1 489 1868.51 475.142 1881.55 453" stroke="#5D5D5D" stroke-width="18" stroke-linecap="square"/>
<path d="M1884.55 479L1885.55 372" stroke="#5D5D5D" stroke-width="18" stroke-linecap="square" stroke-linejoin="round"/>
<path d="M2233.16 385.544L2240.37 390.93L2251.15 376.509L2243.93 371.123L2233.16 385.544ZM2118.55 432C2118.55 399.259 2148.69 371 2188.11 371V353C2140.75 353 2100.55 387.422 2100.55 432H2118.55ZM2188.11 371C2205.39 371 2221.09 376.524 2233.16 385.544L2243.93 371.123C2228.71 359.753 2209.23 353 2188.11 353V371Z" fill="#5D5D5D"/>
<path d="M2109.55 477V370" stroke="#5D5D5D" stroke-width="18" stroke-linecap="square" stroke-linejoin="round"/>
<path d="M1993.55 496C2034.97 496 2068.55 462.421 2068.55 421C2068.55 379.579 2034.97 346 1993.55 346C1952.13 346 1918.55 379.579 1918.55 421C1918.55 462.421 1952.13 496 1993.55 496Z" stroke="#1C7D78" stroke-width="18"/>
<path d="M2012.23 444C2048.77 450.202 2076.55 481.168 2076.55 518.434C2076.55 560.168 2041.72 594 1998.75 594C1966.05 594 1938.06 574.405 1926.55 546.646" stroke="black" stroke-width="18" stroke-linecap="square" stroke-linejoin="round"/>
<path d="M1998.05 462C2007.71 462 2015.55 454.165 2015.55 444.5C2015.55 434.835 2007.71 427 1998.05 427C1988.38 427 1980.55 434.835 1980.55 444.5C1980.55 454.165 1988.38 462 1998.05 462Z" fill="black"/>
<mask id="mask0_0_1" style="mask-type:luminance" maskUnits="userSpaceOnUse" x="506" y="332" width="228" height="228">
<path d="M734 332H506V560H734V332Z" fill="white"/>
</mask>
<g mask="url(#mask0_0_1)">
<path d="M511.454 556.665L618.562 446.872C619.232 446.184 619.361 445.12 618.801 444.339C612.286 435.244 600.27 433.668 595.816 427.558C582.621 409.458 579.273 399.214 573.604 399.849C573.207 399.894 572.854 400.107 572.576 400.392L533.883 440.055C511.624 462.873 508.432 513.111 507.846 555.177C507.82 557.078 510.126 558.025 511.454 556.665Z" fill="#017CEE"/>
<path d="M730.665 553.951L620.871 446.842C620.183 446.171 619.12 446.043 618.339 446.602C609.244 453.118 607.668 465.134 601.557 469.588C583.458 482.782 573.213 486.13 573.849 491.801C573.893 492.197 574.106 492.55 574.391 492.827L614.055 531.521C636.872 553.78 687.11 556.972 729.177 557.557C731.078 557.584 732.025 555.278 730.665 553.951Z" fill="#00AD46"/>
<path fill-rule="evenodd" clip-rule="evenodd" d="M614.054 531.521C601.59 519.363 595.808 495.308 619.702 445.704C580.868 463.058 567.26 485.871 573.954 492.403L614.054 531.521Z" fill="#04D659"/>
<path d="M727.948 334.742L620.841 444.536C620.17 445.223 620.041 446.287 620.601 447.068C627.116 456.163 639.132 457.739 643.586 463.849C656.781 481.948 660.129 492.193 665.798 491.558C666.194 491.514 666.547 491.3 666.826 491.015L705.518 451.352C727.779 428.534 730.971 378.297 731.556 336.229C731.582 334.328 729.276 333.381 727.948 334.742Z" fill="#00C7D4"/>
<path fill-rule="evenodd" clip-rule="evenodd" d="M705.52 451.352C693.36 463.815 669.305 469.599 619.701 445.704C637.056 484.537 659.869 498.147 666.4 491.451L705.52 451.352Z" fill="#11E1EE"/>
<path d="M508.74 337.456L618.534 444.564C619.221 445.235 620.285 445.363 621.066 444.804C630.161 438.288 631.737 426.272 637.847 421.818C655.947 408.623 666.191 405.276 665.556 399.606C665.511 399.21 665.298 398.857 665.014 398.578L625.35 359.885C602.532 337.626 552.295 334.434 510.227 333.848C508.327 333.822 507.379 336.128 508.74 337.456Z" fill="#E43921"/>
<path fill-rule="evenodd" clip-rule="evenodd" d="M625.349 359.885C637.813 372.044 643.596 396.098 619.701 445.703C658.535 428.348 672.144 405.535 665.449 399.004L625.349 359.885Z" fill="#FF7557"/>
<path fill-rule="evenodd" clip-rule="evenodd" d="M533.884 440.055C546.044 427.591 570.098 421.808 619.702 445.703C602.348 406.869 579.534 393.26 573.003 399.955L533.884 440.055Z" fill="#0CB6FF"/>
<path d="M619.778 450.477C622.422 450.444 624.54 448.274 624.507 445.629C624.475 442.984 622.304 440.866 619.659 440.899C617.014 440.932 614.897 443.103 614.929 445.748C614.962 448.392 617.133 450.51 619.778 450.477Z" fill="#4A4848"/>
</g>
<path fill-rule="evenodd" clip-rule="evenodd" d="M1123.7 725.63C1123.34 724.866 1123.18 724.482 1122.98 724.112C1117.8 714.251 1112.62 704.383 1107.39 694.547C1106.86 693.559 1106.93 692.971 1107.65 692.127C1115.9 682.489 1124.1 672.813 1132.32 663.147C1132.61 662.808 1132.87 662.445 1132.98 661.843C1130.58 662.471 1128.17 663.091 1125.77 663.727C1115.81 666.368 1105.83 669.001 1095.88 671.679C1094.95 671.928 1094.53 671.656 1094.06 670.887C1088.4 661.432 1082.71 651.997 1077.03 642.559C1076.73 642.068 1076.42 641.592 1075.79 641.18C1075.33 643.699 1074.87 646.216 1074.42 648.736C1072.84 657.632 1071.26 666.531 1069.68 675.428C1069.51 676.388 1069.27 677.344 1069.19 678.312C1069.11 679.231 1068.64 679.569 1067.81 679.831C1056.06 683.519 1044.32 687.243 1032.59 690.963C1032.07 691.125 1031.57 691.336 1031.01 691.839C1040.62 695.655 1050.22 699.47 1059.97 703.345C1059.61 703.626 1059.38 703.843 1059.12 704.012C1053.12 707.896 1047.11 711.764 1041.12 715.669C1040.4 716.135 1039.83 716.201 1039.03 715.839C1031.86 712.61 1024.66 709.443 1017.48 706.236C1014.26 704.796 1011.36 702.884 1009.1 700.122C1003.99 693.876 1005 686.771 1011.8 682.431C1014.03 681.011 1016.56 679.945 1019.08 679.123C1030.58 675.375 1042.13 671.76 1053.68 668.133C1054.64 667.831 1055.09 667.397 1055.27 666.349C1056.81 657.444 1058.41 648.548 1060.01 639.656C1060.87 634.901 1061.33 630.024 1063.64 625.667C1064.53 623.992 1065.59 622.351 1066.86 620.947C1071.44 615.861 1077.84 615.664 1082.68 620.509C1084.32 622.144 1085.72 624.073 1086.94 626.052C1092.28 634.755 1097.53 643.513 1102.75 652.287C1103.37 653.324 1103.93 653.533 1105.07 653.227C1117.94 649.776 1130.83 646.379 1143.71 642.975C1146.37 642.273 1149.06 642.015 1151.78 642.525C1157.72 643.637 1160.32 648.159 1158.31 653.895C1157.39 656.509 1155.82 658.716 1154.04 660.801C1145.05 671.375 1136.08 681.96 1127.05 692.507C1126.32 693.368 1126.3 693.992 1126.81 694.955C1132.19 705.098 1137.53 715.266 1142.88 725.425C1144.16 727.857 1145.14 730.38 1145.17 733.172C1145.23 739.522 1140.59 744.719 1134.28 745.644C1130.75 746.163 1127.46 745.408 1124.15 744.385C1116.08 741.89 1107.99 739.437 1099.9 737.004C1099.15 736.78 1098.87 736.487 1098.74 735.679C1097.81 729.986 1096.79 724.306 1095.81 718.621C1095.78 718.465 1095.83 718.296 1095.85 717.948C1105.06 720.489 1114.19 723.007 1123.7 725.63Z" fill="#E25A1C"/>
<path fill-rule="evenodd" clip-rule="evenodd" d="M1107.96 808.543C1100.68 808.53 1093.4 808.497 1086.12 808.526C1085.16 808.528 1084.62 808.248 1084.08 807.431C1075.46 794.305 1066.81 781.205 1058.16 768.1C1057.88 767.683 1057.59 767.28 1057.1 766.579C1055.24 780.734 1053.42 794.572 1051.59 808.446C1045.22 808.446 1038.98 808.446 1032.53 808.446C1032.75 806.588 1032.95 804.793 1033.19 803.005C1035.05 788.793 1036.91 774.581 1038.78 760.371C1040.57 746.792 1042.35 733.214 1044.16 719.638C1044.21 719.232 1044.48 718.721 1044.81 718.506C1051.37 714.229 1057.95 709.99 1064.53 705.747C1064.63 705.685 1064.76 705.677 1065.1 705.581C1063.11 720.764 1061.13 735.828 1059.16 750.892C1059.24 750.946 1059.31 750.999 1059.39 751.054C1069.72 739.608 1080.04 728.162 1090.59 716.471C1090.9 718.231 1091.16 719.737 1091.42 721.244C1092.16 725.56 1092.87 729.882 1093.66 734.189C1093.82 735.056 1093.59 735.597 1093.01 736.2C1086.33 743.188 1079.68 750.2 1073.03 757.205C1072.73 757.511 1072.46 757.828 1072.13 758.191C1072.34 758.531 1072.52 758.858 1072.73 759.16C1084.22 775.279 1095.7 791.395 1107.19 807.507C1107.4 807.799 1107.7 808.028 1107.96 808.287C1107.96 808.372 1107.96 808.458 1107.96 808.543Z" fill="#3C3A3E"/>
<path fill-rule="evenodd" clip-rule="evenodd" d="M882.019 766.642C881.728 765.156 881.52 762.975 880.86 760.937C877.668 751.088 867.562 745.687 857.102 748.122C845.627 750.792 837.426 759.813 836.24 771.523C835.361 780.184 840.025 788.528 848.697 791.66C855.684 794.184 862.41 793.128 868.656 789.383C876.934 784.416 881.424 777.043 882.019 766.642ZM831.627 803.25C831.061 807.488 830.521 811.481 829.995 815.477C829.297 820.789 828.601 826.102 827.932 831.417C827.854 832.037 827.666 832.311 827 832.307C821.764 832.285 816.528 832.29 811.293 832.283C811.173 832.283 811.054 832.217 810.77 832.137C811.087 829.63 811.395 827.114 811.724 824.601C812.879 815.79 814.032 806.978 815.204 798.169C816.545 788.096 817.607 777.975 819.323 767.966C822.364 750.245 837.398 734.972 855.041 731.17C865.269 728.963 875.057 729.984 883.987 735.739C892.892 741.479 898 749.808 899.164 760.285C900.811 775.099 895.359 787.396 884.836 797.569C877.93 804.248 869.662 808.492 860.125 809.926C850.301 811.408 841.066 809.769 832.778 803.977C832.473 803.765 832.148 803.58 831.627 803.25Z" fill="#3C3A3E"/>
<path fill-rule="evenodd" clip-rule="evenodd" d="M823.095 719.039C817.223 723.41 811.562 727.624 805.877 731.856C804.96 730.41 804.14 728.97 803.181 727.63C800.715 724.183 797.651 721.608 793.195 721.295C789.49 721.035 786.32 722.256 783.798 724.988C781.542 727.432 781.247 730.905 783.355 733.665C785.676 736.702 788.216 739.584 790.81 742.396C795.109 747.058 799.604 751.54 803.875 756.227C807.763 760.49 810.861 765.274 811.818 771.103C812.956 778.032 811.573 784.632 808.295 790.723C802.229 801.993 792.677 808.532 780.066 810.579C774.496 811.482 768.942 811.302 763.508 809.702C756.296 807.579 751.276 802.852 748.048 796.178C746.907 793.818 746.035 791.328 745 788.799C751.314 785.421 757.447 782.138 763.671 778.807C763.888 779.326 764.04 779.758 764.242 780.162C765.303 782.286 766.172 784.542 767.486 786.497C771.384 792.292 777.681 794.056 784.068 791.191C785.709 790.455 787.289 789.416 788.635 788.223C792.751 784.57 793.523 779.483 790.476 774.886C788.725 772.244 786.536 769.876 784.405 767.51C779.311 761.852 774.01 756.376 769.034 750.617C765.604 746.648 763.273 742.019 762.535 736.702C761.73 730.898 762.891 725.42 765.911 720.533C773.421 708.386 784.334 702.066 798.769 702.59C806.998 702.888 813.551 706.736 818.637 713.13C820.142 715.021 821.553 716.988 823.095 719.039Z" fill="#3C3A3E"/>
<path fill-rule="evenodd" clip-rule="evenodd" d="M962.525 784.254C961.568 791.571 960.665 798.525 959.727 805.475C959.679 805.826 959.403 806.305 959.103 806.445C944.895 813.025 926.185 812.107 914.517 798.856C908.248 791.737 905.617 783.288 906.011 773.888C906.92 752.128 924.961 733.132 946.536 730.478C959.141 728.927 970.196 732.332 978.736 742.123C984.552 748.794 987.243 756.76 986.845 765.55C986.584 771.357 985.673 777.138 984.951 782.919C983.927 791.105 982.808 799.281 981.727 807.461C981.688 807.752 981.629 808.04 981.564 808.409C975.939 808.409 970.347 808.409 964.567 808.409C964.793 806.53 965 804.689 965.239 802.854C966.469 793.405 967.823 783.972 968.901 774.507C969.573 768.612 969.151 762.761 966.455 757.301C963.587 751.499 958.779 748.43 952.455 747.759C939.367 746.373 926.915 755.468 924.123 768.348C922.279 776.85 925.185 785 931.956 789.505C938.556 793.896 945.624 793.911 952.816 791.063C956.463 789.62 959.569 787.336 962.525 784.254Z" fill="#3C3A3E"/>
<path fill-rule="evenodd" clip-rule="evenodd" d="M1034.1 732.13C1033.32 738.023 1032.56 743.828 1031.78 749.754C1028.18 749.754 1024.66 749.733 1021.14 749.761C1018.28 749.783 1015.68 751.626 1014.82 754.292C1014.48 755.334 1014.36 756.45 1014.21 757.544C1012.43 771.076 1010.65 784.608 1008.88 798.141C1008.43 801.553 1007.99 804.968 1007.55 808.432C1001.65 808.432 995.837 808.432 989.853 808.432C990.184 805.829 990.496 803.311 990.825 800.797C991.976 792.026 993.127 783.258 994.292 774.492C995.299 766.905 996.196 759.301 997.381 751.742C998.971 741.609 1009.05 732.611 1019.28 732.166C1024.16 731.954 1029.05 732.13 1034.1 732.13Z" fill="#3C3A3E"/>
<path d="M1128.82 808.432V800.964H1128.77L1125.84 808.432H1124.91L1121.98 800.964H1121.93V808.432H1120.46V799.486H1122.74L1125.41 806.282L1128.04 799.486H1130.29V808.432H1128.82ZM1115.83 800.682V808.432H1114.36V800.682H1111.56V799.486H1118.63V800.682H1115.83Z" fill="#3C3A3E"/>
<path d="M846.794 706.478H851.181L850.146 699.837L846.794 706.478ZM851.869 710.768H844.571L842.253 715.31H837.085L848.485 694.012H853.467L857.349 715.31H852.558L851.869 710.768Z" fill="#3C3A3E"/>
<path d="M877.98 698.302H875.38L874.505 703.218H877.103C878.671 703.218 879.924 702.187 879.924 700.243C879.924 698.959 879.139 698.302 877.98 698.302ZM871.685 694.012H878.515C882.085 694.012 884.589 696.142 884.589 699.805C884.589 704.41 881.332 707.509 876.696 707.509H873.753L872.373 715.31H867.928L871.685 694.012Z" fill="#3C3A3E"/>
<path d="M899.696 706.478H904.083L903.048 699.837L899.696 706.478ZM904.771 710.768H897.473L895.155 715.31H889.987L901.387 694.012H906.368L910.251 715.31H905.46L904.771 710.768Z" fill="#3C3A3E"/>
<path d="M933.623 714.556C932.12 715.245 930.461 715.654 928.8 715.654C923.164 715.654 919.623 711.425 919.623 706.131C919.623 699.365 925.323 693.665 932.089 693.665C933.78 693.665 935.316 694.072 936.568 694.761L935.941 699.868C935.003 698.833 933.497 698.113 931.619 698.113C927.736 698.113 924.291 701.623 924.291 705.693C924.291 708.793 926.232 711.207 929.303 711.207C931.183 711.207 932.997 710.486 934.219 709.484L933.623 714.556Z" fill="#3C3A3E"/>
<path d="M960.803 706.727H951.532L950.027 715.31H945.581L949.339 694.012H953.787L952.284 702.437H961.555L963.056 694.012H967.504L963.748 715.31H959.3L960.803 706.727Z" fill="#3C3A3E"/>
<path d="M977.113 715.31L980.869 694.012H992.679L991.927 698.302H984.565L983.816 702.437H990.579L989.829 706.727H983.063L982.311 711.018H989.672L988.92 715.31H977.113Z" fill="#3C3A3E"/>
<path d="M473.42 703.04V813.62H451V802.34C448.66 806.3 445.28 809.52 441.18 811.56C436.78 813.76 431.8 814.92 426.82 814.92C420.66 815.06 414.52 813.3 409.38 809.8C404.1 806.28 400 801.46 397.36 795.74C394.44 789.14 392.96 782.12 393.12 774.94C392.98 767.76 394.44 760.74 397.36 754.28C400 748.72 404.1 743.88 409.22 740.52C414.5 737.16 420.64 735.54 426.8 735.68C431.64 735.68 436.46 736.7 440.72 738.9C444.82 740.96 448.2 744.02 450.54 747.84V710.52L473.4 703.04H473.42ZM446.46 791.8C449.38 788 451 782.42 451 775.24C451 768.06 449.54 762.64 446.46 758.84C443.38 755.04 438.54 752.84 433.58 752.98C428.6 752.68 423.76 754.88 420.54 758.7C417.46 762.5 415.86 767.92 415.86 774.96C415.86 782 417.48 787.7 420.54 791.66C423.62 795.62 428.6 797.82 433.58 797.66C439.14 797.66 443.54 795.6 446.46 791.8ZM553.54 740.38C558.82 743.74 562.92 748.58 565.4 754.14C568.32 760.58 569.8 767.62 569.64 774.8C569.78 781.98 568.32 789.16 565.4 795.6C562.76 801.32 558.66 806.14 553.38 809.66C548.26 813.02 542.1 814.78 535.96 814.64C530.98 814.78 526 813.62 521.6 811.28C517.5 809.22 514.12 806 511.94 802.06V813.48H489.38V710.52L512.08 703.04V748.16C514.28 744.2 517.64 740.98 521.74 738.94C526.14 736.6 530.96 735.42 535.94 735.58C542.1 735.44 548.24 737.2 553.52 740.42L553.54 740.38ZM542.4 791.64C545.48 787.68 546.94 782.12 546.94 774.8C546.94 767.48 545.48 762.34 542.4 758.54C539.32 754.74 535.08 752.82 529.52 752.82C524.54 752.52 519.7 754.72 516.48 758.68C513.4 762.64 511.94 768.06 511.94 775.08C511.94 782.1 513.4 787.82 516.48 791.64C519.56 795.6 524.38 797.8 529.52 797.5C534.5 797.8 539.34 795.6 542.4 791.64ZM601 754.44H620.34V737.44H601V712.24L578.3 719.56V784.48C578.3 794.14 580.8 801.62 585.78 806.9C590.76 812.18 597.94 814.8 607.32 814.8C611.72 814.94 616.1 814.22 620.36 812.74V795.16C618.02 795.74 615.38 796.18 612.88 796.18C609.66 796.32 606.58 795.3 604.24 793.26C602.18 791.36 601.02 788.28 601.02 784.04V754.46L601 754.44Z" fill="#262A38"/>
<path d="M351.12 684.74C354.92 688.4 357.42 693.24 358 698.5C358 700.7 357.42 702.16 356.1 704.94C354.78 707.72 338.52 735.84 333.68 743.6C330.9 748.14 329.44 753.56 329.44 758.84C329.44 764.12 330.9 769.54 333.68 774.08C338.52 781.84 354.78 810.12 356.1 812.9C357.42 815.68 358 817 358 819.2C357.42 824.48 355.08 829.3 351.26 832.82C347.6 836.62 342.76 839.12 337.64 839.56C335.44 839.56 333.98 838.98 331.34 837.66C328.7 836.34 300 820.52 292.24 815.68C291.66 815.38 291.06 814.94 290.34 814.66L251.96 791.96C252.84 799.28 256.06 806.32 261.34 811.44C262.36 812.46 263.4 813.34 264.56 814.22C263.68 814.66 262.66 815.1 261.78 815.68C254.02 820.52 225.74 836.78 222.96 838.1C220.18 839.42 218.86 840 216.52 840C211.24 839.42 206.42 837.08 202.9 833.26C199.1 829.6 196.6 824.76 196.02 819.5C196.16 817.3 196.76 815.1 197.92 813.2C199.24 810.42 215.5 782.14 220.34 774.38C223.12 769.84 224.58 764.56 224.58 759.14C224.58 753.72 223.12 748.44 220.34 743.9C215.48 735.86 199.08 707.58 197.9 704.8C196.72 702.9 196.14 700.7 196 698.5C196.58 693.24 198.92 688.4 202.74 684.74C206.4 680.92 211.24 678.58 216.5 678C218.7 678.14 220.9 678.74 222.94 679.9C225.28 680.92 245.94 692.94 256.92 699.38L259.42 700.84C260.3 701.42 261.04 701.86 261.62 702.16L262.8 702.9L301.9 726.04C301.02 717.26 296.48 709.2 289.44 703.78C290.32 703.34 291.34 702.9 292.22 702.32C299.98 697.48 328.26 681.08 331.04 679.9C332.94 678.72 335.14 678.14 337.48 678C342.6 678.58 347.44 680.92 351.1 684.74H351.12ZM279.06 769.4L287.4 761.06C288.58 759.88 288.58 758.14 287.4 756.96L279.06 748.62C277.88 747.44 276.14 747.44 274.96 748.62L266.62 756.96C265.44 758.14 265.44 759.88 266.62 761.06L274.96 769.4C275.98 770.42 277.88 770.42 279.06 769.4ZM351.12 684.74C354.92 688.4 357.42 693.24 358 698.5C358 700.7 357.42 702.16 356.1 704.94C354.78 707.72 338.52 735.84 333.68 743.6C330.9 748.14 329.44 753.56 329.44 758.84C329.44 764.12 330.9 769.54 333.68 774.08C338.52 781.84 354.78 810.12 356.1 812.9C357.42 815.68 358 817 358 819.2C357.42 824.48 355.08 829.3 351.26 832.82C347.6 836.62 342.76 839.12 337.64 839.56C335.44 839.56 333.98 838.98 331.34 837.66C328.7 836.34 300 820.52 292.24 815.68C291.66 815.38 291.06 814.94 290.34 814.66L251.96 791.96C252.84 799.28 256.06 806.32 261.34 811.44C262.36 812.46 263.4 813.34 264.56 814.22C263.68 814.66 262.66 815.1 261.78 815.68C254.02 820.52 225.74 836.78 222.96 838.1C220.18 839.42 218.86 840 216.52 840C211.24 839.42 206.42 837.08 202.9 833.26C199.1 829.6 196.6 824.76 196.02 819.5C196.16 817.3 196.76 815.1 197.92 813.2C199.24 810.42 215.5 782.14 220.34 774.38C223.12 769.84 224.58 764.56 224.58 759.14C224.58 753.72 223.12 748.44 220.34 743.9C215.48 735.86 199.08 707.58 197.9 704.8C196.72 702.9 196.14 700.7 196 698.5C196.58 693.24 198.92 688.4 202.74 684.74C206.4 680.92 211.24 678.58 216.5 678C218.7 678.14 220.9 678.74 222.94 679.9C225.28 680.92 245.94 692.94 256.92 699.38L259.42 700.84C260.3 701.42 261.04 701.86 261.62 702.16L262.8 702.9L301.9 726.04C301.02 717.26 296.48 709.2 289.44 703.78C290.32 703.34 291.34 702.9 292.22 702.32C299.98 697.48 328.26 681.08 331.04 679.9C332.94 678.72 335.14 678.14 337.48 678C342.6 678.58 347.44 680.92 351.1 684.74H351.12ZM279.06 769.4L287.4 761.06C288.58 759.88 288.58 758.14 287.4 756.96L279.06 748.62C277.88 747.44 276.14 747.44 274.96 748.62L266.62 756.96C265.44 758.14 265.44 759.88 266.62 761.06L274.96 769.4C275.98 770.42 277.88 770.42 279.06 769.4Z" fill="#FF694A"/>
<path d="M640.32 806.72L637.9 813.48H637.02L634.6 806.72V813.48H633.06V804.26H634.98L637.46 811.12L639.94 804.26H641.86V813.48H640.32V806.72Z" fill="#262A38"/>
<path d="M631.7 805.64H629.16V813.48H627.6V805.64H625.06V804.26H631.7V805.64Z" fill="#262A38"/>
<path d="M889 493.522V412.192H907.553V422.496C912.234 414.146 922.428 409.796 931.609 409.796C942.304 409.796 951.656 414.648 956.007 424.17C962.371 413.475 971.894 409.796 982.418 409.796C997.132 409.796 1011.17 419.158 1011.17 440.719V493.522H992.451V443.886C992.451 434.364 987.6 427.177 976.735 427.177C966.541 427.177 959.855 435.195 959.855 445.219V493.512H940.811V443.886C940.811 434.534 936.11 427.227 925.084 427.227C914.73 427.227 908.205 434.915 908.205 445.269V493.562L889 493.522Z" fill="#333333"/>
<path d="M1034.88 493.522V372.53H1054.28V493.522H1034.88Z" fill="#333333"/>
<path d="M1046.49 537.805C1050.85 539.018 1054.77 539.81 1063.09 539.81C1078.55 539.81 1096.79 531.089 1101.6 506.612L1121.42 408.473H1150.9L1154.5 392.145H1124.72L1128.73 372.639C1131.8 357.494 1140.18 349.816 1153.63 349.816C1157.13 349.816 1156.14 350.117 1159.26 350.708L1163.57 333.989C1159.42 332.746 1155.7 332.004 1147.6 332.004C1139.05 331.876 1130.71 334.61 1123.89 339.772C1116.34 345.606 1111.36 354.176 1109.08 365.242L1103.5 392.145H1077.14L1074.98 408.483H1100.24L1082.04 499.225C1080.04 509.519 1074.18 521.828 1057.38 521.828C1053.57 521.828 1054.96 521.537 1051.51 520.975L1046.49 537.805Z" fill="#0194E2"/>
<path d="M1168.36 492.861H1148.98L1175.55 370.786H1194.93L1168.36 492.861Z" fill="#0194E2"/>
<path d="M1265.07 417.294C1248.15 405.456 1225.11 407.784 1210.91 422.767C1196.7 437.751 1195.6 460.877 1208.31 477.144L1221.01 467.822C1214.71 460.002 1213.43 449.267 1217.72 440.184C1222.01 431.1 1231.11 425.266 1241.15 425.163V435.086L1265.07 417.294Z" fill="#43C9ED"/>
<path d="M1216.94 485.352C1233.86 497.191 1256.9 494.863 1271.11 479.879C1285.31 464.896 1286.42 441.769 1273.7 425.503L1261 434.825C1267.3 442.645 1268.58 453.38 1264.29 462.463C1260.01 471.546 1250.9 477.381 1240.86 477.484V467.561L1216.94 485.352Z" fill="#0194E2"/>
<path d="M1297.98 412.141H1319.16L1323.47 467.721L1353.63 412.141L1373.74 412.432L1381.64 467.721L1408.21 412.141L1427.6 412.432L1387.38 493.572H1368L1358.66 435.405L1327.78 493.572H1307.68L1297.98 412.141Z" fill="#0194E2"/>
<path d="M1439.29 413.585H1435.27V412.192H1444.94V413.615H1440.93V425.363H1439.29V413.585Z" fill="#0194E2"/>
<path d="M1447.36 412.192H1449.37L1451.89 419.209C1452.22 420.111 1452.51 421.033 1452.82 421.955H1452.92C1453.23 421.033 1453.51 420.111 1453.82 419.209L1456.32 412.192H1458.33V425.363H1456.77V418.096C1456.77 416.944 1456.89 415.36 1456.98 414.187H1456.89L1455.89 417.194L1453.41 424.02H1452.32L1449.8 417.204L1448.8 414.197H1448.72C1448.81 415.37 1448.94 416.954 1448.94 418.106V425.373H1447.41L1447.36 412.192Z" fill="#0194E2"/>
<path d="M1023.61 105.926C1011.23 105.926 1002 111.754 1002 125.768C1002 136.326 1008.07 143.663 1022.94 143.663C1035.54 143.663 1044.1 136.559 1044.1 125.332C1044.1 112.613 1036.44 105.926 1023.61 105.926ZM998.847 204.914C995.916 208.358 992.994 212.025 992.994 216.341C992.994 224.964 1004.47 227.551 1020.23 227.551C1033.3 227.551 1051.09 226.679 1051.09 215.055C1051.09 208.135 1042.53 207.709 1031.71 207.06L998.847 204.914ZM1065.5 106.575C1069.54 111.54 1073.83 118.441 1073.83 128.362C1073.83 152.288 1054.24 166.312 1025.87 166.312C1018.66 166.312 1012.13 165.45 1008.07 164.367L1000.65 175.797L1022.71 177.086C1061.67 179.464 1084.63 180.55 1084.63 209.218C1084.63 234.016 1061.89 248.033 1022.71 248.033C981.957 248.033 966.415 238.111 966.415 221.074C966.415 211.369 970.922 206.207 978.806 199.076C971.367 196.076 968.901 190.684 968.901 184.856C968.901 180.114 971.367 175.797 975.429 171.694C979.481 167.601 983.98 163.505 989.388 158.762C978.36 153.584 970.021 142.367 970.021 126.407C970.021 101.609 987.132 84.582 1021.59 84.582C1031.27 84.582 1037.12 85.4344 1042.31 86.7427H1086.22V105.064L1065.5 106.575" fill="#362701"/>
<mask id="mask1_0_1" style="mask-type:luminance" maskUnits="userSpaceOnUse" x="1096" y="29" width="66" height="170">
<path d="M1096.39 29H1161.07V198.011H1096.39V29Z" fill="white"/>
</mask>
<g mask="url(#mask1_0_1)">
<path d="M1125.83 67.3836C1112.99 67.3836 1105.56 60.2723 1105.56 47.9676C1105.56 35.6851 1112.99 28.9976 1125.83 28.9976C1138.89 28.9976 1146.33 35.6876 1146.33 47.9676C1146.33 60.2699 1138.9 67.3836 1125.83 67.3836ZM1096.78 196.985V179.948L1108.26 178.446C1111.42 178.012 1111.87 177.363 1111.87 174.12V110.725C1111.87 108.364 1111.19 106.845 1108.94 106.206L1096.78 102.103L1099.26 84.6415H1145.87V174.125C1145.87 177.591 1146.09 178.015 1149.48 178.451L1160.96 179.952V196.987L1096.78 196.985Z" fill="#362701"/>
</g>
<mask id="mask2_0_1" style="mask-type:luminance" maskUnits="userSpaceOnUse" x="1158" y="49" width="92" height="150">
<path d="M1158.48 49.3418H1250V198.01H1158.48V49.3418Z" fill="white"/>
</mask>
<g mask="url(#mask2_0_1)">
<path d="M1250 188.619C1240.32 193.141 1226.14 197.244 1213.29 197.244C1186.5 197.244 1176.37 186.899 1176.37 162.518V106.032C1176.37 104.733 1176.37 103.873 1174.56 103.873H1158.8V84.6804C1178.63 82.5222 1186.5 73.0273 1188.98 49.5254H1210.37V80.151C1210.37 81.66 1210.37 82.3067 1212.17 82.3067H1243.92V103.873H1210.37V155.404C1210.37 168.13 1213.52 173.086 1225.68 173.086C1231.99 173.086 1238.52 171.577 1243.92 169.642L1250 188.619Z" fill="#362701"/>
</g>
<mask id="mask3_0_1" style="mask-type:luminance" maskUnits="userSpaceOnUse" x="685" y="29" width="239" height="226">
<path d="M685 29H923.035V255H685V29Z" fill="white"/>
</mask>
<g mask="url(#mask3_0_1)">
<path d="M916.365 132.029L813.407 33.4395C811.997 32.0889 810.323 31.0174 808.481 30.2864C806.638 29.5554 804.664 29.1792 802.67 29.1792C800.675 29.1792 798.701 29.5554 796.858 30.2864C795.016 31.0174 793.342 32.0889 791.932 33.4395L770.553 53.9111L797.668 79.8883C800.856 78.8476 804.284 78.6832 807.565 79.4137C810.845 80.1442 813.846 81.7404 816.227 84.0213C818.62 86.3166 820.29 89.2101 821.048 92.3712C821.806 95.5323 821.62 98.8338 820.512 101.899L846.649 126.937C849.849 125.871 853.297 125.692 856.599 126.418C859.9 127.144 862.921 128.747 865.314 131.042C866.994 132.648 868.327 134.555 869.236 136.654C870.145 138.754 870.613 141.004 870.613 143.277C870.613 145.549 870.145 147.8 869.236 149.899C868.327 151.998 866.994 153.905 865.314 155.511C863.637 157.12 861.645 158.396 859.452 159.267C857.259 160.138 854.908 160.586 852.534 160.586C850.16 160.586 847.809 160.138 845.616 159.267C843.423 158.396 841.431 157.12 839.754 155.511C837.234 153.095 835.517 150.02 834.818 146.672C834.118 143.324 834.468 139.852 835.824 136.694L811.446 113.349V174.781C813.215 175.613 814.831 176.718 816.227 178.051C819.616 181.298 821.52 185.701 821.52 190.292C821.52 194.882 819.616 199.285 816.227 202.532C809.164 209.286 797.72 209.286 790.677 202.532C788.997 200.926 787.664 199.018 786.754 196.917C785.845 194.817 785.376 192.565 785.376 190.292C785.376 188.018 785.845 185.766 786.754 183.666C787.664 181.566 788.997 179.658 790.677 178.051C792.364 176.426 794.374 175.143 796.589 174.278V112.273C794.374 111.408 792.364 110.124 790.677 108.499C788.14 106.072 786.415 102.976 785.72 99.6065C785.025 96.2369 785.393 92.7456 786.776 89.5765L760.043 63.966L689.448 131.573C688.037 132.923 686.918 134.526 686.154 136.291C685.391 138.055 684.998 139.947 684.998 141.857C684.998 143.767 685.391 145.658 686.154 147.423C686.918 149.187 688.037 150.791 689.448 152.141L792.406 250.74C793.815 252.091 795.489 253.162 797.332 253.893C799.174 254.624 801.149 255 803.143 255C805.137 255 807.112 254.624 808.954 253.893C810.797 253.162 812.471 252.091 813.881 250.74L916.365 152.607C919.214 149.878 920.815 146.177 920.815 142.318C920.815 138.459 919.214 134.758 916.365 132.029Z" fill="#F03C2E"/>
</g>
<path d="M287.935 148.857C287.935 157.727 287.225 160.616 285.401 162.745C283.37 164.574 280.733 165.585 278 165.584L278.71 170.653C282.947 170.71 287.058 169.213 290.267 166.446C291.993 164.34 293.278 161.909 294.044 159.296C294.811 156.684 295.043 153.943 294.727 151.239V117.683H287.935V148.654V148.857Z" fill="#4E4E4E"/>
<path d="M338.59 144.859C338.59 148.66 338.59 152.056 338.894 154.996H332.862L332.457 148.964C331.195 151.099 329.391 152.861 327.227 154.072C325.064 155.282 322.618 155.899 320.139 155.858C314.259 155.858 307.264 152.665 307.264 139.638V117.994H314.057V138.269C314.057 145.315 316.236 150.029 322.37 150.029C323.632 150.042 324.883 149.804 326.052 149.327C327.22 148.851 328.282 148.145 329.174 147.253C330.066 146.361 330.772 145.299 331.248 144.131C331.725 142.962 331.963 141.711 331.95 140.449V117.74H338.742V144.656L338.59 144.859Z" fill="#4E4E4E"/>
<path d="M351.465 130.051C351.465 125.337 351.465 121.485 351.161 117.988H357.243L357.547 124.324C358.903 122.034 360.854 120.156 363.192 118.888C365.531 117.621 368.17 117.012 370.828 117.126C379.85 117.126 386.643 124.678 386.643 135.931C386.643 149.212 378.482 155.801 369.662 155.801C367.405 155.902 365.159 155.418 363.144 154.397C361.128 153.376 359.41 151.852 358.156 149.972V170.248H351.465V130.204V130.051ZM358.156 139.936C358.174 140.855 358.276 141.772 358.46 142.673C359.035 144.924 360.344 146.918 362.18 148.341C364.016 149.764 366.275 150.534 368.598 150.53C375.745 150.53 379.952 144.7 379.952 136.235C379.952 128.835 375.998 122.499 368.851 122.499C366.023 122.73 363.376 123.986 361.407 126.029C359.438 128.073 358.282 130.765 358.156 133.6V139.936Z" fill="#4E4E4E"/>
<path d="M398.745 117.953L406.906 139.8C407.767 142.233 408.68 145.173 409.288 147.353C409.998 145.123 410.758 142.284 411.67 139.648L419.071 117.953H426.218L416.08 144.312C411.011 156.984 407.919 163.523 403.256 167.476C400.907 169.622 398.043 171.123 394.943 171.835L393.27 166.158C395.438 165.446 397.451 164.328 399.201 162.864C401.674 160.848 403.636 158.278 404.929 155.362C405.205 154.857 405.394 154.308 405.486 153.74C405.429 153.128 405.275 152.529 405.03 151.965L391.243 117.852H398.643L398.745 117.953Z" fill="#4E4E4E"/>
<path d="M444.25 107.32V117.964H453.982V123.033H444.25V143.005C444.25 147.567 445.567 150.202 449.318 150.202C450.651 150.224 451.98 150.071 453.272 149.746L453.576 154.815C451.639 155.486 449.594 155.796 447.544 155.727C446.187 155.812 444.827 155.603 443.559 155.113C442.29 154.623 441.142 153.864 440.194 152.889C438.13 150.127 437.188 146.686 437.559 143.258V122.983H431.78V117.914H437.66V108.891L444.25 107.32Z" fill="#4E4E4E"/>
<path d="M466.494 137.661C466.356 139.38 466.593 141.108 467.189 142.727C467.785 144.345 468.725 145.815 469.945 147.034C471.164 148.254 472.634 149.194 474.252 149.79C475.87 150.385 477.599 150.623 479.318 150.485C482.795 150.563 486.249 149.907 489.456 148.559L490.621 153.628C486.687 155.249 482.456 156.026 478.203 155.909C475.723 156.079 473.236 155.71 470.912 154.828C468.588 153.947 466.483 152.573 464.74 150.801C462.997 149.029 461.657 146.901 460.814 144.563C459.971 142.225 459.643 139.732 459.853 137.255C459.853 126.104 466.494 117.284 477.341 117.284C489.506 117.284 492.548 127.929 492.548 134.721C492.613 135.768 492.613 136.817 492.548 137.864H466.342L466.494 137.661ZM486.364 132.592C486.559 131.237 486.462 129.856 486.079 128.541C485.695 127.227 485.035 126.01 484.141 124.972C483.248 123.935 482.142 123.101 480.899 122.526C479.656 121.952 478.305 121.651 476.936 121.643C474.15 121.845 471.541 123.079 469.619 125.105C467.697 127.13 466.6 129.8 466.544 132.592H486.364Z" fill="#4E4E4E"/>
<path d="M502.854 129.481C502.854 125.122 502.854 121.371 502.549 117.924H508.632V125.173H508.936C509.575 122.935 510.894 120.953 512.71 119.499C514.527 118.046 516.751 117.194 519.074 117.062C519.713 116.979 520.361 116.979 521 117.062V123.399C520.225 123.309 519.443 123.309 518.668 123.399C516.367 123.488 514.178 124.411 512.508 125.997C510.838 127.583 509.803 129.722 509.595 132.016C509.406 133.053 509.304 134.104 509.291 135.158V154.876H502.6V129.532L502.854 129.481Z" fill="#4E4E4E"/>
<path d="M499.877 16.1446C500.085 19.5499 499.275 22.9401 497.549 25.8833C495.824 28.8265 493.261 31.1895 490.188 32.6712C487.115 34.153 483.671 34.6864 480.293 34.2036C476.916 33.7207 473.759 32.2435 471.224 29.96C468.689 27.6766 466.892 24.6903 466.06 21.3815C465.229 18.0728 465.401 14.5913 466.555 11.3808C467.709 8.17027 469.792 5.37588 472.54 3.35365C475.288 1.33143 478.575 0.172902 481.984 0.0256515C484.218 -0.0973193 486.455 0.222696 488.566 0.967294C490.677 1.71189 492.619 2.86638 494.282 4.36438C495.945 5.86237 497.295 7.67432 498.255 9.696C499.215 11.7177 499.767 13.9093 499.877 16.1446Z" fill="#767677"/>
<path d="M399.647 214.658C354.028 214.658 313.933 198.285 293.201 174.107C301.245 195.858 315.759 214.623 334.791 227.876C353.821 241.129 376.456 248.233 399.647 248.233C422.838 248.233 445.472 241.129 464.504 227.876C483.535 214.623 498.049 195.858 506.093 174.107C485.413 198.285 445.47 214.658 399.647 214.658Z" fill="#F37726"/>
<path d="M399.647 57.4317C445.267 57.4317 485.362 73.8041 506.093 97.9824C498.049 76.2313 483.535 57.4663 464.504 44.2134C445.472 30.9605 422.838 23.856 399.647 23.856C376.456 23.856 353.821 30.9605 334.791 44.2134C315.759 57.4663 301.245 76.2313 293.201 97.9824C313.933 73.7534 353.825 57.4317 399.647 57.4317Z" fill="#F37726"/>
<path d="M336.846 261.709C337.113 265.998 336.098 270.27 333.929 273.98C331.76 277.69 328.536 280.67 324.667 282.541C320.798 284.413 316.46 285.089 312.205 284.486C307.95 283.883 303.971 282.026 300.775 279.153C297.579 276.28 295.31 272.521 294.258 268.354C293.206 264.187 293.419 259.802 294.868 255.756C296.318 251.71 298.939 248.188 302.397 245.637C305.856 243.086 309.996 241.623 314.289 241.433C317.102 241.283 319.917 241.688 322.572 242.626C325.228 243.563 327.673 245.015 329.768 246.898C331.863 248.781 333.566 251.058 334.78 253.599C335.995 256.141 336.697 258.896 336.846 261.709Z" fill="#9E9E9E"/>
<path d="M298.386 51.9194C295.927 51.9873 293.504 51.3268 291.42 50.0212C289.337 48.7154 287.685 46.8227 286.674 44.5811C285.663 42.3394 285.338 39.8488 285.739 37.4226C286.139 34.9964 287.249 32.7429 288.927 30.9454C290.605 29.1479 292.777 27.8867 295.17 27.3205C297.563 26.7542 300.07 26.9081 302.376 27.7629C304.681 28.6177 306.683 30.1352 308.129 32.1245C309.574 34.1138 310.399 36.4861 310.5 38.9431C310.596 42.2654 309.378 45.4916 307.11 47.921C304.842 50.3505 301.707 51.7873 298.386 51.9194Z" fill="#616262"/>
<path d="M137.345 298.002C125.882 298.056 114.935 299.033 105.302 300.738C76.9269 305.751 71.7751 316.243 71.775 335.593V361.149H138.83V369.668H71.775H46.61C27.1221 369.668 10.0579 381.381 4.72048 403.664C-1.43621 429.205 -1.70929 445.144 4.72048 471.813C9.48696 491.664 20.87 505.809 40.3579 505.809H63.4128V475.173C63.4128 453.041 82.5623 433.518 105.302 433.518H172.279C190.923 433.518 205.806 418.167 205.806 399.444V335.593C205.806 317.421 190.476 303.77 172.279 300.738C160.76 298.82 148.808 297.949 137.345 298.002ZM101.082 318.556C108.008 318.556 113.665 324.305 113.665 331.373C113.665 338.417 108.008 344.112 101.082 344.112C94.131 344.112 88.4996 338.417 88.4996 331.373C88.4996 324.305 94.131 318.556 101.082 318.556Z" fill="url(#paint0_linear_0_1)"/>
<path d="M214.168 369.668V399.444C214.168 422.529 194.597 441.959 172.279 441.959H105.302C86.9563 441.959 71.775 457.66 71.775 476.033V539.883C71.775 558.056 87.577 568.744 105.302 573.958C126.528 580.199 146.882 581.327 172.279 573.958C189.16 569.07 205.806 559.234 205.806 539.883V514.328H138.83V505.809H205.806H239.333C258.821 505.809 266.083 492.216 272.861 471.813C279.861 450.808 279.563 430.609 272.861 403.664C268.044 384.264 258.846 369.668 239.333 369.668H214.168ZM176.499 531.365C183.45 531.365 189.081 537.06 189.081 544.104C189.081 551.172 183.45 556.921 176.499 556.921C169.573 556.921 163.916 551.172 163.916 544.104C163.916 537.06 169.573 531.365 176.499 531.365Z" fill="url(#paint1_linear_0_1)"/>
<path opacity="0.44382" d="M139.59 634.787C189.218 634.787 229.449 626.986 229.449 617.363C229.449 607.74 189.218 599.938 139.59 599.938C89.9629 599.938 49.7318 607.74 49.7318 617.363C49.7318 626.986 89.9629 634.787 139.59 634.787Z" fill="url(#paint2_radial_0_1)"/>
<defs>
<linearGradient id="paint0_linear_0_1" x1="-8.35361e-07" y1="298" x2="154.62" y2="429.758" gradientUnits="userSpaceOnUse">
<stop stop-color="#5A9FD4"/>
<stop offset="1" stop-color="#306998"/>
</linearGradient>
<linearGradient id="paint1_linear_0_1" x1="174.888" y1="541.955" x2="119.416" y2="464.222" gradientUnits="userSpaceOnUse">
<stop stop-color="#FFD43B"/>
<stop offset="1" stop-color="#FFE873"/>
</linearGradient>
<radialGradient id="paint2_radial_0_1" cx="0" cy="0" r="1" gradientUnits="userSpaceOnUse" gradientTransform="translate(139.59 617.363) rotate(-90) scale(17.4244 76.5874)">
<stop stop-color="#B8B8B8" stop-opacity="0.498039"/>
<stop offset="1" stop-color="#7F7F7F" stop-opacity="0"/>
</radialGradient>
</defs>
</svg>