<svg width="2709" height="1279" viewBox="0 0 2709 1279" fill="none" xmlns="http://www.w3.org/2000/svg">
<path d="M1482.52 339.062L1479.79 334.999L1387.04 239.519C1381.57 231.434 1385.17 219.611 1395.17 216.629C1409.25 212.407 1422.62 204.932 1434.11 194.154C1472.78 157.709 1474.51 97.7413 1437.59 61.3436C1402.4 23.2231 1341.74 22.257 1303.13 58.8168C1291.71 69.6289 1283.56 82.4994 1278.69 96.2189C1275.21 105.948 1263.1 108.97 1255.19 103.216L1162.77 7.37316L1158.76 4.51981C1152.94 -0.993212 1143.6 -0.952676 1137.55 4.80132L1030.36 106.391C1023.71 106.828 1017.17 103.175 1015.13 96.1716C1006.02 65.0482 979.812 38.179 935.379 29.691C930.825 28.8059 925.979 28.7654 921.377 29.5717C830.374 45.3833 806.94 138.855 855.849 189.571C866.204 200.309 878.654 207.909 892.025 212.368C899.235 214.785 902.438 222.023 901.145 228.824L793.337 331.018C787.07 336.939 786.756 346.541 792.555 352.457L890.044 452.885L891.779 454.214L892.36 454.818C900.63 463.38 915.084 458.84 918.113 447.091C927.046 413.155 955.443 382.867 1002.85 373.649C1011.71 373.012 1020.64 373.575 1029.31 375.388C1049.26 380.773 1065.09 390.182 1076.89 402.045C1088.34 414.238 1097.17 430.286 1101.68 450.233C1103.16 458.84 1103.35 467.65 1102.31 476.413C1090.81 522.789 1058.91 549.453 1024.2 556.692C1012.21 559.223 1006.96 573.262 1015.25 581.791L1015.84 582.39L1017.12 584.203L1114.24 684.912C1120 690.907 1129.74 690.988 1135.97 685.113L1244.13 583.234C1251.08 582.273 1258.26 585.811 1260.38 593.01C1264.33 606.446 1271.43 619.076 1281.83 629.773C1330.91 680.327 1426.41 661.385 1446.53 572.296C1447.54 567.751 1447.73 562.968 1447.02 558.464C1440.43 514.216 1414.42 487.11 1383.41 476.737C1376.43 474.399 1372.95 467.767 1373.77 461.252L1481.27 360.013C1487.34 354.304 1487.78 345.098 1482.52 339.062Z" fill="#1C7D78"/>
<path d="M989.955 1272.6H990.771L992.995 1272.93L1133.78 1273.53C1142.16 1273.57 1148.94 1266.65 1148.99 1258.17L1149.6 1110.52C1153.71 1104.93 1161.22 1102.23 1167.98 1105.73C1180.5 1112.21 1194.65 1115.91 1209.65 1115.91C1280.55 1115.99 1332.91 1034.82 1281.8 958.733C1279.21 954.914 1275.83 951.444 1272.06 948.797C1235.18 922.854 1197.45 922.613 1168.36 937.533C1161.8 940.875 1154.58 938.702 1150.38 933.637L1150.97 786.911C1151.03 778.666 1144.61 771.912 1136.56 771.547L1131.68 770.622L997.734 770.541C988.067 768.849 981.904 758.112 986.693 748.901C993.321 735.954 997.153 721.236 997.221 705.625C997.454 652.815 954.882 610.03 902.727 611.111C850.51 609.742 807.762 652.33 807.706 705.148C807.74 720.786 811.421 735.51 818.106 748.498C822.802 757.709 816.582 768.446 806.89 770.104L672.898 769.5L668.063 770.381C662.31 770.622 657.477 774.2 655.1 779.231C655.916 781.522 656.429 784.017 656.429 786.596L656.174 938.096L647.776 936.449C643.967 938.096 639.611 938.377 635.454 936.208L632.855 935.08C628.338 935.121 623.688 935.443 618.889 936.127L617.668 936.29L616.444 936.089C611.144 935.123 606.428 934.276 601.885 934.276C558.919 934.357 523.346 967.131 517.965 1009.73C517.486 1013.39 517.16 1017.09 517.16 1020.91C517.16 1036.2 521.306 1052.52 530.239 1069.05C532.161 1072.63 534.082 1076.25 536.494 1079.87C538.566 1082.93 541.292 1085.71 544.31 1087.79C564.04 1101.59 583.411 1107.15 601.441 1107.18C606.262 1107.15 610.991 1106.75 615.628 1106.02L616.849 1105.78L618.071 1105.98C621.985 1106.62 625.037 1107.22 627.868 1107.55C630.243 1106.58 632.643 1105.62 634.95 1104.41C639.83 1101.92 645.096 1102.72 649.16 1105.41L655.868 1104.09L655.624 1257.89C655.624 1259.86 655.275 1261.79 654.82 1263.64C657.277 1268.74 662.31 1272.36 668.295 1272.36L809.114 1272.45L811.268 1272.16H812.118C824.115 1272.2 830.778 1258.77 824.313 1248.43C805.736 1218.59 803.336 1177.41 829.462 1137.23C835.136 1130.43 841.714 1124.52 849.042 1119.57C866.794 1109.07 884.649 1104.33 901.491 1104.13C918.311 1104.41 936.108 1109.27 953.813 1119.82C961.091 1124.8 967.674 1130.75 973.322 1137.59C999.25 1177.89 996.569 1219.07 977.828 1248.84C971.389 1259.13 977.97 1272.6 989.955 1272.6Z" fill="#616E7D"/>
<path d="M537.809 942.72C555.315 927.277 578.146 917.823 603.221 917.749L603.258 925.147V917.749C609.337 917.749 614.684 918.789 619.621 919.636C624.677 918.992 629.721 918.555 634.764 918.515C637.243 918.515 639.735 918.63 642.24 918.866L642.427 785.261C642.427 781.038 639.388 777.989 635.823 777.583L635.322 777.457L634.168 777.417L633.061 777.02L630.813 776.577L496.192 776.813L495.54 776.694C485.012 774.807 477.754 766.238 476.776 756.227L476.402 754.218C476.402 751.077 477.159 747.861 478.661 744.764H478.591L478.894 743.999L479.067 743.758C485.044 731.847 488.49 718.539 488.49 704.297V704.097C488.49 695.735 486.917 687.652 484.576 679.563C474.045 643.692 441.911 617.586 403.637 617.586L401.681 617.627H401.472H401.251L399.213 617.586C381.206 617.586 364.678 623.503 351.004 633.358C335.595 644.458 323.842 660.544 318.299 679.561C316.936 684.146 315.981 688.771 315.292 693.438C314.757 696.935 314.326 700.435 314.326 704.013V704.054V704.295C314.326 718.535 317.797 731.844 323.808 743.708L323.993 744.037L324.121 744.4L324.307 744.843L324.248 744.877C325.657 747.892 326.439 751.115 326.439 754.252L326.09 756.065C325.18 766.157 317.891 774.805 307.326 776.694L306.685 776.813L172.064 776.577L170.97 776.777L169.794 777.018L168.7 777.415L167.524 777.455C163.738 777.617 160.417 780.838 160.382 785.223L160.638 934.673L158.878 936.808C154.661 941.792 148.454 944.974 141.593 944.974C138.17 944.974 134.618 944.17 131.414 942.477C119.953 936.608 107.106 933.27 93.384 933.27C75.2719 933.27 55.5415 939.058 35.6606 953.016C32.6541 955.111 29.8709 957.878 27.8445 960.939C14.2274 981.09 8.50842 1001.24 8.50842 1019.86C8.50842 1067.8 46.5721 1106.41 93.1515 1106.49H93.302C106.987 1106.49 119.893 1103.19 131.354 1097.28C134.488 1095.68 137.901 1094.87 141.219 1094.87C148.732 1094.87 155.37 1098.73 159.505 1104.4L160.959 1106.41L161.194 1256.47C161.194 1260.93 164.7 1264.27 168.647 1264.27L308.896 1264.04L311.121 1263.71H311.691H312.507C314.754 1263.67 316.2 1262.9 317.481 1261.62C318.702 1260.25 319.484 1258.28 319.484 1256.19L318.155 1251.56C308.324 1235.87 302.619 1217.21 302.619 1197.26C302.619 1176.31 308.933 1153.94 322.99 1132.22L323.259 1131.82L323.526 1131.51C329.664 1124.14 336.817 1117.71 344.724 1112.36L344.911 1112.24L345.075 1112.12C363.885 1100.94 383.104 1095.75 401.31 1095.42H401.367H401.542C419.759 1095.75 438.954 1100.94 457.743 1112.12L457.93 1112.2L458.128 1112.36C466.038 1117.71 473.177 1124.15 479.304 1131.51L479.596 1131.87L479.851 1132.22C493.897 1153.94 500.236 1176.31 500.199 1197.3C500.199 1217.21 494.54 1235.87 484.674 1251.6L483.323 1256.18C483.311 1258.28 484.127 1260.25 485.36 1261.61C486.607 1262.9 488.087 1263.66 490.334 1263.7H491.686L492.221 1263.79L493.899 1264.03L634.194 1264.27C638.13 1264.27 641.647 1260.93 641.661 1256.46L641.905 1120.96C638.748 1121.36 635.475 1121.65 632.062 1121.65H632.017C626.216 1121.61 621.65 1120.36 617.818 1119.72C612.902 1120.44 607.939 1120.96 602.815 1120.96C582.305 1120.96 560.489 1114.53 539.186 1100.25L536.775 1098.8C532.268 1095.59 528.261 1091.56 525.104 1086.9C517.08 1075.03 511.535 1062.93 507.97 1050.94C506.876 1047.21 506.048 1043.46 505.337 1039.77C504.02 1032.93 503.194 1026.17 503.194 1019.53C503.194 988.896 516.577 961.419 537.809 942.72Z" fill="#616E7D"/>
<path d="M306.617 210.917C306.685 158.109 349.445 115.524 401.625 116.882C453.827 115.801 496.4 158.559 496.156 211.397C496.063 227.008 492.264 241.725 485.579 254.683C480.804 263.883 486.967 274.632 496.657 276.317L630.603 276.405L635.473 277.326C643.519 277.684 649.926 284.449 649.915 292.689L649.286 439.04C648.995 438.903 648.704 438.755 648.416 438.595C620.037 422.903 582.508 422.269 544.976 447.52C541.118 450.097 537.648 453.48 534.947 457.292C481.446 532.586 530.604 615.469 601.043 617.058C615.957 617.394 630.15 614.028 642.785 607.783C648.331 605.052 654.24 606.448 658.335 610.151C654.462 610.791 650.917 613.045 648.519 616.297L647.913 763.942L647.063 768.086C643.558 765.474 639.284 763.861 634.613 763.661V763.702C632.947 763.298 631.351 762.776 629.441 762.776L496.473 763.012C493.083 762.294 490.337 758.916 490.371 755.574L491.176 752.403L491.314 752.115L491.629 751.308C498.478 737.598 502.461 722.115 502.463 705.663V705.461C502.463 695.169 500.541 685.641 497.956 676.704C485.736 634.841 447.848 603.792 402.283 603.792L400.255 603.832L397.846 603.792C352.235 603.792 314.381 634.839 302.161 676.704C299.574 685.641 297.618 695.169 297.618 705.422V706.186H297.641C297.745 722.389 301.671 737.676 308.438 751.234L308.614 751.677L308.787 752.04L308.937 752.403L309.717 755.619C309.787 758.916 307.027 762.294 303.649 763.012L170.669 762.776C168.759 762.776 167.127 763.298 165.486 763.702V763.661C160.839 763.861 156.599 765.426 153.116 767.964C152.521 766.313 152.09 764.581 152.09 762.735L152.206 615.09C148.176 609.458 140.651 606.724 133.861 610.176C121.354 616.615 107.179 620.234 92.1649 620.153C21.2552 619.876 -30.7286 538.469 20.788 462.656C23.4207 458.836 26.7989 455.379 30.5849 452.76C67.5793 426.977 105.363 426.936 134.377 441.982C140.875 445.398 148.108 443.225 152.37 438.201L152.498 291.484C152.498 283.192 158.928 276.479 166.988 276.15L171.834 275.269L305.838 275.832C315.516 274.227 321.713 263.48 317.017 254.278C310.355 241.286 306.64 226.562 306.617 210.917Z" fill="#616E7D"/>
<path fill-rule="evenodd" clip-rule="evenodd" d="M1811.25 698.585C1813.02 735.894 1849.52 718.639 1866.07 706.986C1881.77 695.92 1886.37 705.134 1887.74 683.272C1889.17 668.942 1889.74 654.537 1889.47 640.136C1865.1 637.64 1840.65 644.041 1820.46 658.204C1810.41 665.657 1791.66 689.37 1811.25 698.856" fill="#F6D2A2"/>
<path d="M1830.23 724.872C1826.62 724.94 1823.05 724.151 1819.79 722.569C1816.07 720.37 1812.99 717.188 1810.89 713.357C1808.79 709.526 1807.74 705.187 1807.85 700.798C1805.43 699.606 1803.36 697.808 1801.81 695.572C1800.26 693.336 1799.29 690.736 1799 688.015C1799.66 681.453 1801.71 675.117 1805.01 669.446C1808.31 663.775 1812.78 658.906 1818.11 655.177C1838.95 640.464 1864.26 633.847 1889.47 636.523L1892.48 636.794V639.865C1892.87 651.123 1892.53 662.394 1891.46 673.606C1891.19 676.903 1890.97 680.156 1890.75 683.453C1889.78 698.946 1886.95 701.294 1879.12 704.05C1875 705.391 1871.11 707.355 1867.57 709.876C1856.59 718.068 1843.73 723.233 1830.23 724.872ZM1879.34 643.208C1859.02 642.93 1839.13 649.154 1822.45 661.004C1815.28 666.334 1805.33 678.8 1806.17 687.383C1806.42 689.2 1807.16 690.91 1808.31 692.322C1809.46 693.734 1810.97 694.792 1812.67 695.377L1814.57 696.281V698.404C1815.01 707.708 1817.76 713.671 1822.76 716.2C1832.4 721.078 1850.36 713.58 1863.94 704.05C1868.02 701.16 1872.49 698.907 1877.21 697.365C1882.35 695.558 1883.41 695.151 1884.16 683.001C1884.16 679.704 1884.6 676.406 1884.87 673.064C1885.77 663.185 1886.16 653.264 1886.02 643.343C1883.75 643.253 1881.49 643.208 1879.34 643.208Z" fill="black"/>
<path fill-rule="evenodd" clip-rule="evenodd" d="M1811.25 698.584C1816.81 697.33 1821.87 694.422 1825.81 690.228Z" fill="#C6B198"/>
<path d="M1811.25 702.153C1810.46 702.121 1809.69 701.812 1809.09 701.277C1808.49 700.742 1808.09 700.013 1807.95 699.211C1807.81 698.409 1807.94 697.583 1808.33 696.869C1808.71 696.155 1809.32 695.597 1810.06 695.287L1812.4 694.429C1816.49 693.474 1820.21 691.287 1823.07 688.15C1823.32 687.723 1823.65 687.353 1824.05 687.066C1824.45 686.78 1824.91 686.582 1825.39 686.485C1825.87 686.388 1826.36 686.396 1826.84 686.506C1827.31 686.616 1827.76 686.827 1828.15 687.126C1828.54 687.424 1828.87 687.803 1829.11 688.238C1829.35 688.673 1829.5 689.154 1829.54 689.65C1829.59 690.147 1829.53 690.648 1829.38 691.121C1829.22 691.594 1828.97 692.028 1828.64 692.396C1824.99 696.684 1820.14 699.726 1814.75 701.114L1812.49 701.927C1812.1 702.079 1811.68 702.155 1811.25 702.153Z" fill="black"/>
<path fill-rule="evenodd" clip-rule="evenodd" d="M1895.62 254.08C1755.69 213.925 1859.74 32.3477 1972.06 106.966L1895.62 254.08Z" fill="#6AD7E5"/>
<path d="M1897.39 258.191L1894.69 257.423C1877.85 254.498 1862.26 246.476 1849.93 234.395C1837.61 222.314 1829.13 206.732 1825.59 189.67C1823.93 172.139 1827.09 154.483 1834.73 138.69C1842.36 122.897 1854.17 109.595 1868.81 100.281C1884.68 90.0518 1903.2 84.9308 1921.96 85.5832C1940.72 86.2357 1958.86 92.6313 1974.01 103.94L1976.66 105.702L1897.39 258.191ZM1917.25 92.6026C1901.39 92.6074 1885.86 97.3148 1872.57 106.153C1859.04 114.707 1848.12 126.946 1841.03 141.493C1833.94 156.04 1830.97 172.318 1832.44 188.495C1835.62 203.763 1843.15 217.733 1854.07 228.652C1864.99 239.572 1878.83 246.957 1893.85 249.88L1967.51 108.186C1952.49 98.3544 1935.09 92.9895 1917.25 92.6929V92.6026Z" fill="black"/>
<path fill-rule="evenodd" clip-rule="evenodd" d="M2517.18 93.3255C2627.78 13.9191 2727.98 193.103 2599.29 238.181L2517.18 93.3255Z" fill="#6AD7E5"/>
<path d="M2597.74 242.473L2512.58 92.2873L2515.19 90.4354C2529.35 78.8568 2546.57 71.8446 2564.65 70.2922C2582.73 68.7397 2600.86 72.7171 2616.72 81.7179C2631.71 90.6969 2643.96 103.749 2652.12 119.419C2660.27 135.09 2664.01 152.765 2662.9 170.474C2660.66 187.349 2653.5 203.147 2642.35 215.816C2631.2 228.485 2616.59 237.442 2600.39 241.524L2597.74 242.473ZM2521.82 94.3651L2600.88 233.8C2615.2 229.816 2628.07 221.621 2637.87 210.233C2647.67 198.846 2653.97 184.769 2656 169.751C2657 153.39 2653.52 137.068 2645.97 122.602C2638.42 108.136 2627.08 96.0935 2613.22 87.8156C2599.07 79.5159 2582.82 75.7064 2566.55 76.8729C2550.27 78.0393 2534.7 84.1289 2521.82 94.3651Z" fill="black"/>
<path fill-rule="evenodd" clip-rule="evenodd" d="M2541.02 1157.81C2569.16 1175.56 2620.65 1229.31 2578.36 1255.38C2537.84 1293.27 2515.14 1213.78 2479.53 1202.76C2486.37 1191.5 2495.33 1181.73 2505.88 1174.01C2516.43 1166.3 2528.38 1160.8 2541.02 1157.81Z" fill="#F6D2A2"/>
<path d="M2556.99 1269.11H2555.31C2539.34 1268.11 2526.07 1252.22 2513.24 1236.81C2504.44 1223.74 2492.47 1213.21 2478.51 1206.23L2473.82 1204.79L2476.74 1200.72C2491.18 1177.3 2514.09 1160.64 2540.49 1154.38H2541.78L2542.88 1155.06C2560.89 1166.44 2598.05 1199.68 2597.87 1229.77C2597.78 1235.71 2596.11 1241.52 2593.05 1246.58C2589.99 1251.63 2585.65 1255.75 2580.48 1258.49C2574.26 1264.94 2565.86 1268.74 2556.99 1269.11ZM2485.11 1201.36C2498.22 1209.24 2509.61 1219.81 2518.55 1232.39C2530.98 1247.29 2542.75 1261.38 2555.76 1262.2C2559.55 1262.19 2563.31 1261.38 2566.78 1259.83C2570.26 1258.27 2573.39 1256 2575.97 1253.16L2576.5 1252.76C2580.71 1250.66 2584.28 1247.41 2586.81 1243.38C2589.34 1239.35 2590.73 1234.69 2590.84 1229.9C2590.84 1205.87 2561.11 1175.7 2540.23 1162.15C2517.66 1167.5 2497.94 1181.44 2485.11 1201.13V1201.36Z" fill="black"/>
<path d="M2578.36 1258.94C2577.72 1258.94 2577.09 1258.76 2576.55 1258.42C2576 1258.07 2575.56 1257.58 2575.26 1257C2573.21 1252.59 2571.39 1248.07 2569.82 1243.45C2567.41 1234.77 2563.08 1226.77 2557.17 1220.05C2556.62 1219.38 2556.34 1218.52 2556.37 1217.64C2556.4 1216.77 2556.75 1215.93 2557.35 1215.3C2557.95 1214.67 2558.75 1214.29 2559.6 1214.22C2560.46 1214.16 2561.31 1214.42 2561.99 1214.95C2568.69 1222.39 2573.62 1231.31 2576.37 1241.01C2577.86 1245.32 2579.57 1249.54 2581.5 1253.66C2581.92 1254.5 2581.99 1255.48 2581.7 1256.38C2581.41 1257.28 2580.78 1258.02 2579.95 1258.45C2579.47 1258.74 2578.92 1258.91 2578.36 1258.94Z" fill="black"/>
<path fill-rule="evenodd" clip-rule="evenodd" d="M2038.51 1218.56C2005.51 1223.76 1986.93 1254.2 1959.41 1269.65C1933.49 1285.46 1923.53 1264.59 1921.23 1260.35C1917.16 1258.45 1917.52 1262.11 1911.23 1255.83C1887.04 1216.89 1936.23 1188.66 1961.8 1169.33C1997.41 1161.97 2019.75 1193.5 2038.51 1218.56Z" fill="#F6D2A2"/>
<path d="M1941.85 1279C1939.74 1279.01 1937.65 1278.74 1935.61 1278.19C1931.98 1276.98 1928.61 1275.03 1925.73 1272.47C1922.84 1269.91 1920.48 1266.79 1918.8 1263.28H1918C1915.08 1263.28 1912.92 1262.65 1908.58 1258.18L1908.09 1257.59C1884.96 1220.28 1924.33 1191.96 1950.43 1173.22C1953.7 1170.87 1956.8 1168.7 1959.59 1166.53L1960.21 1166.08H1960.96C1997.63 1158.49 2020.82 1189.48 2039.4 1214.36L2044.66 1221.37L2038.86 1222.27C2020.22 1226.84 2003.25 1236.78 1989.98 1250.91C1981.05 1259.24 1971.31 1266.63 1960.92 1272.95C1955.2 1276.66 1948.62 1278.75 1941.85 1279ZM1918.53 1256.14C1919.94 1256.15 1921.33 1256.47 1922.6 1257.09L1923.62 1257.59L1924.51 1259.17C1925.75 1261.98 1927.54 1264.5 1929.76 1266.59C1931.98 1268.67 1934.58 1270.28 1937.42 1271.32C1940.91 1271.98 1944.49 1271.92 1947.96 1271.15C1951.42 1270.37 1954.7 1268.9 1957.6 1266.8C1967.61 1260.7 1976.99 1253.57 1985.6 1245.53C1998.69 1232.18 2014.7 1222.21 2032.32 1216.44C2014.62 1192.68 1994.18 1167.03 1963.22 1172.94C1960.52 1174.93 1957.6 1177.05 1954.37 1179.22C1927.82 1198.37 1894.56 1222.22 1913.71 1253.66C1916.46 1256.46 1917.12 1256.42 1917.69 1256.42L1918.53 1256.14Z" fill="black"/>
<path d="M1921.19 1263.87H1920.88C1919.96 1263.79 1919.11 1263.34 1918.51 1262.62C1917.91 1261.9 1917.62 1260.97 1917.69 1260.03C1919.12 1250.56 1922.98 1241.64 1928.89 1234.19C1931.67 1230.26 1934.11 1226.09 1936.19 1221.73C1936.6 1220.93 1937.3 1220.33 1938.13 1220.03C1938.97 1219.74 1939.88 1219.78 1940.69 1220.15C1941.49 1220.51 1942.14 1221.18 1942.48 1222.01C1942.83 1222.84 1942.85 1223.77 1942.56 1224.62C1940.32 1229.36 1937.69 1233.89 1934.68 1238.17C1929.47 1244.68 1926.03 1252.46 1924.68 1260.75C1924.58 1261.62 1924.16 1262.41 1923.52 1262.99C1922.87 1263.56 1922.04 1263.88 1921.19 1263.87Z" fill="black"/>
<path fill-rule="evenodd" clip-rule="evenodd" d="M1901.46 203.988C1883.01 194.006 1869.47 180.5 1880.75 158.819C1891.19 138.629 1910.62 140.752 1929.06 150.779L1901.46 203.988Z" fill="black"/>
<path fill-rule="evenodd" clip-rule="evenodd" d="M2570.13 184.928C2588.58 174.946 2602.12 161.44 2590.84 139.759C2580.4 119.569 2560.98 121.692 2542.53 131.719L2570.13 184.928Z" fill="black"/>
<path fill-rule="evenodd" clip-rule="evenodd" d="M2697.19 693.886C2695.42 731.195 2658.92 713.941 2642.38 702.287C2626.67 691.221 2622.07 700.435 2620.7 678.574C2619.27 664.243 2618.7 649.839 2618.97 635.438C2643.35 632.941 2667.8 639.342 2687.99 653.505C2698.03 660.958 2716.79 684.671 2697.19 694.157" fill="#F6D2A2"/>
<path d="M2678.21 720.13C2664.56 718.58 2651.54 713.427 2640.43 705.179C2636.89 702.657 2633 700.693 2628.88 699.352C2621.05 696.551 2618.22 694.203 2617.25 678.755C2617.25 675.458 2616.81 672.206 2616.54 668.908C2615.48 657.696 2615.14 646.425 2615.52 635.167V632.096L2618.53 631.825C2643.73 629.15 2669.04 635.766 2689.89 650.48C2695.22 654.209 2699.69 659.078 2702.99 664.748C2706.29 670.419 2708.34 676.755 2709 683.317C2708.71 686.038 2707.74 688.639 2706.19 690.874C2704.64 693.11 2702.57 694.908 2700.15 696.1C2700.26 700.49 2699.21 704.828 2697.11 708.66C2695 712.491 2691.93 715.673 2688.21 717.871C2685.08 719.371 2681.66 720.142 2678.21 720.13ZM2622.34 638.826C2622.2 648.747 2622.58 658.668 2623.49 668.547C2623.75 671.844 2623.97 675.142 2624.19 678.484C2624.95 690.634 2626.01 690.996 2631.14 692.848C2635.86 694.39 2640.34 696.643 2644.41 699.533C2657.95 709.108 2675.95 716.561 2685.6 711.683C2690.6 709.154 2693.34 703.191 2693.78 693.887V691.764L2695.68 690.86C2697.39 690.275 2698.9 689.217 2700.05 687.805C2701.2 686.393 2701.94 684.683 2702.19 682.865C2702.98 674.283 2693.07 661.817 2685.91 656.487C2667.34 643.295 2644.9 637.013 2622.34 638.691V638.826Z" fill="black"/>
<path fill-rule="evenodd" clip-rule="evenodd" d="M2697.19 693.886C2691.63 692.632 2686.57 689.724 2682.63 685.53Z" fill="#C6B198"/>
<path d="M2697.19 697.411C2696.79 697.481 2696.39 697.481 2695.99 697.411L2693.74 696.598C2688.34 695.213 2683.49 692.17 2679.85 687.88C2679.52 687.512 2679.27 687.078 2679.11 686.605C2678.95 686.132 2678.9 685.631 2678.94 685.134C2678.99 684.638 2679.14 684.156 2679.38 683.722C2679.62 683.287 2679.94 682.908 2680.33 682.61C2680.72 682.311 2681.17 682.1 2681.65 681.99C2682.13 681.879 2682.62 681.872 2683.1 681.969C2683.58 682.065 2684.03 682.263 2684.43 682.55C2684.83 682.837 2685.17 683.206 2685.42 683.634C2688.28 686.771 2691.99 688.958 2696.08 689.913L2698.43 690.771C2699.16 691.081 2699.78 691.639 2700.16 692.353C2700.54 693.066 2700.68 693.893 2700.54 694.695C2700.4 695.497 2699.99 696.226 2699.39 696.761C2698.79 697.296 2698.03 697.605 2697.23 697.636L2697.19 697.411Z" fill="black"/>
<path fill-rule="evenodd" clip-rule="evenodd" d="M2240.2 17.8477C2380.26 17.8477 2511.56 38.309 2580 175.712C2641.45 329.691 2619.59 495.776 2628.97 658.519C2637.02 798.27 2654.85 959.703 2591.37 1089.25C2524.57 1225.47 2357.65 1259.76 2220.11 1254.74C2112.08 1250.81 1981.62 1214.81 1920.66 1114.04C1849.12 995.837 1883.01 820.041 1888.19 688.511C1894.34 532.724 1846.87 376.396 1897.03 223.952C1949.06 65.8619 2089.3 30.0432 2240.24 17.8477" fill="#6AD7E5"/>
<path d="M2244.05 1258.67C2235.2 1258.67 2227.24 1258.67 2220.02 1258.22C2153.67 1255.78 1991.04 1237.04 1917.74 1115.85C1859.92 1020.27 1870.23 888.156 1879.29 771.576C1881.59 742.262 1883.72 714.528 1884.78 688.33C1885.81 633.041 1883.49 577.739 1877.83 522.742C1862.79 422.705 1868.21 320.569 1893.76 222.778C1904.35 187.928 1921.93 155.714 1945.39 128.191C1968.85 100.668 1997.67 78.4402 2030.02 62.9263C2096.35 33.3125 2167.58 16.8056 2239.93 14.2798H2240.2C2376.94 14.2798 2513.15 33.6571 2583.1 174.086V174.357C2620.4 287.111 2636.08 406.146 2629.28 524.956C2629.5 568.724 2629.77 614.028 2632.29 658.293C2633.04 671.844 2633.93 685.394 2634.81 698.945C2642.95 827.269 2652.15 972.757 2594.33 1090.69C2522.27 1237.99 2340.35 1258.67 2244.05 1258.67ZM2240.33 21.3713C2094.61 33.1602 1952.78 65.9978 1900.26 225.036C1875.06 321.918 1869.74 423.075 1884.65 522.155C1890.28 577.455 1892.56 633.059 1891.46 688.647C1890.4 715.025 1888.27 742.849 1885.97 772.208C1877.13 887.704 1866.77 1018.6 1923.4 1112.19C1994.98 1230.49 2154.68 1248.83 2220.02 1251.18C2305.05 1254.29 2511.07 1244.54 2588.01 1087.62C2644.99 971.402 2635.83 826.953 2627.82 699.532C2626.94 685.982 2626.1 672.16 2625.3 658.88C2622.73 614.435 2622.51 569.04 2622.29 525.181C2629.04 407.336 2613.56 289.265 2576.68 177.383C2508.6 40.2969 2374.77 21.4164 2240.33 21.3713Z" fill="black"/>
<path fill-rule="evenodd" clip-rule="evenodd" d="M2264.93 209.815C2290.05 358.871 2529.03 319.62 2494.71 169.163C2463.74 34.1996 2256.57 71.554 2264.93 209.815Z" fill="white"/>
<path d="M2378.44 307.199C2363.58 307.255 2348.81 304.782 2334.74 299.881C2315.58 293.412 2298.58 281.599 2285.66 265.778C2272.73 249.957 2264.4 230.76 2261.61 210.357V209.996C2259.85 178.805 2270 148.131 2289.93 124.427C2309.87 100.722 2338.03 85.833 2368.49 82.8915C2396.74 76.9073 2426.15 82.5125 2450.38 98.4955C2474.61 114.479 2491.71 139.555 2497.98 168.305C2503.16 187.026 2503.12 206.853 2497.86 225.552C2492.6 244.251 2482.33 261.078 2468.21 274.135C2443.18 295.872 2411.3 307.617 2378.44 307.199ZM2268.29 209.409C2270.95 228.548 2278.78 246.55 2290.91 261.392C2303.04 276.234 2318.98 287.327 2336.95 293.422C2358.36 300.751 2381.25 302.357 2403.43 298.087C2425.62 293.817 2446.37 283.814 2463.69 269.031C2476.94 256.764 2486.56 240.954 2491.47 223.392C2496.37 205.829 2496.36 187.216 2491.43 169.66C2485.45 142.609 2469.27 119.051 2446.4 104.088C2423.54 89.1242 2395.81 83.9597 2369.24 89.7119C2340.53 92.4915 2313.99 106.504 2295.17 128.816C2276.35 151.128 2266.72 180.008 2268.29 209.409Z" fill="black"/>
<path fill-rule="evenodd" clip-rule="evenodd" d="M1979.41 233.936C2011.97 363.886 2215.73 330.461 2208.04 200.285C2198.83 44.1826 1948.22 74.31 1979.36 233.936" fill="white"/>
<path d="M2088.1 319.664C2067.38 319.867 2046.93 314.807 2028.6 304.939C2015.52 297.685 2004.08 287.684 1995.05 275.593C1986.03 263.503 1979.61 249.598 1976.22 234.793C1971.19 214.563 1971.96 193.284 1978.44 173.488C1984.92 153.693 1996.83 136.215 2012.76 123.136C2031.98 108.171 2054.73 98.6464 2078.71 95.5219C2102.68 92.3974 2127.04 95.7838 2149.33 105.34C2167.47 113.429 2182.95 126.67 2193.93 143.487C2204.91 160.303 2210.93 179.986 2211.26 200.194C2212.29 229.326 2202.38 257.757 2183.54 279.666C2164.71 301.574 2138.38 315.302 2109.96 318.038C2102.72 319.156 2095.42 319.7 2088.1 319.664ZM1982.59 233.212C1989.6 260.447 2006.72 283.827 2030.32 298.403C2053.92 312.979 2082.15 317.607 2109.03 311.308C2135.83 308.789 2160.67 295.909 2178.47 275.304C2196.28 254.699 2205.7 227.927 2204.81 200.465C2204.52 181.461 2198.89 162.942 2188.59 147.117C2178.28 131.291 2163.73 118.827 2146.68 111.211C2125.49 102.118 2102.33 98.8911 2079.53 101.857C2056.74 104.823 2035.11 113.877 2016.83 128.104C2001.86 140.434 1990.68 156.894 1984.61 175.528C1978.54 194.162 1977.84 214.184 1982.59 233.212Z" fill="black"/>
<path fill-rule="evenodd" clip-rule="evenodd" d="M2293.77 388.908C2295.87 409.454 2296.1 430.153 2294.48 450.743C2289.61 460.093 2280.1 461.087 2271.92 464.881C2266.34 463.986 2261.07 461.655 2256.62 458.106C2252.17 454.558 2248.68 449.909 2246.48 444.6C2245.26 421.266 2245.87 397.87 2248.29 374.634L2293.77 388.908Z" fill="white"/>
<path d="M2272.4 468.54H2271.39C2265.2 467.54 2259.38 464.939 2254.46 460.985C2249.54 457.032 2245.7 451.857 2243.29 445.956V445.504V445.007C2241.82 429.031 2241.95 412.942 2243.69 396.993C2244.27 389.631 2244.84 382.042 2245.06 374.409V369.892L2297.31 386.243V388.863C2297.31 395.277 2297.84 401.917 2298.37 408.918C2300 423.015 2299.88 437.264 2298.02 451.331V451.873L2297.75 452.37C2295.74 455.762 2293.08 458.708 2289.94 461.036C2286.79 463.363 2283.22 465.024 2279.44 465.92C2277.36 466.688 2275.41 467.366 2273.51 468.269L2272.4 468.54ZM2249.89 443.652C2251.83 448.139 2254.81 452.078 2258.57 455.13C2262.33 458.183 2266.76 460.258 2271.47 461.178C2273.29 460.41 2275.15 459.732 2276.92 459.055C2282.67 457.834 2287.77 454.428 2291.16 449.524C2292.74 436.218 2292.74 422.766 2291.16 409.46C2290.72 403.272 2290.28 397.355 2290.14 391.392L2251.43 379.287C2251.12 385.43 2250.68 391.528 2250.24 397.355C2248.55 412.732 2248.41 428.244 2249.8 443.652H2249.89Z" fill="black"/>
<path d="M2035.59 250.783C2054.6 250.783 2070.01 233.755 2070.01 212.751C2070.01 191.746 2054.6 174.719 2035.59 174.719C2016.58 174.719 2001.17 191.746 2001.17 212.751C2001.17 233.755 2016.58 250.783 2035.59 250.783Z" fill="black"/>
<path d="M2051.25 230.999C2055.72 230.999 2059.35 226.672 2059.35 221.333C2059.35 215.995 2055.72 211.667 2051.25 211.667C2046.78 211.667 2043.16 215.995 2043.16 221.333C2043.16 226.672 2046.78 230.999 2051.25 230.999Z" fill="white"/>
<path d="M2323.85 241.297C2342.54 241.297 2357.7 224.27 2357.7 203.265C2357.7 182.261 2342.54 165.233 2323.85 165.233C2305.16 165.233 2290.01 182.261 2290.01 203.265C2290.01 224.27 2305.16 241.297 2323.85 241.297Z" fill="black"/>
<path d="M2339.25 221.514C2343.65 221.514 2347.21 217.186 2347.21 211.848C2347.21 206.509 2343.65 202.182 2339.25 202.182C2334.85 202.182 2331.29 206.509 2331.29 211.848C2331.29 217.186 2334.85 221.514 2339.25 221.514Z" fill="white"/>
<path fill-rule="evenodd" clip-rule="evenodd" d="M2195.43 386.785C2180.43 423.914 2203.79 498.216 2244.53 443.427C2243.31 420.092 2243.92 396.696 2246.35 373.46L2195.43 386.785Z" fill="white"/>
<path d="M2217.33 466.553C2213.81 466.535 2210.36 465.569 2207.33 463.752C2197.57 453.657 2190.93 440.851 2188.25 426.931C2185.56 413.012 2186.95 398.594 2192.24 385.475L2192.91 383.849L2249.8 368.853V373.37C2249.58 381.049 2248.96 388.727 2248.38 395.954C2246.66 411.42 2246.51 427.026 2247.94 442.523V443.968L2247.1 445.143C2235.38 461.449 2225.24 466.553 2217.33 466.553ZM2198.04 389.766C2193.82 401.158 2192.77 413.521 2195.02 425.482C2197.27 437.443 2202.73 448.533 2210.78 457.519C2221.31 463.662 2232.9 453.002 2240.91 442.387C2239.63 426.882 2239.82 411.286 2241.48 395.819C2241.92 389.992 2242.36 384.03 2242.67 378.113L2198.04 389.766Z" fill="black"/>
<path fill-rule="evenodd" clip-rule="evenodd" d="M2200.56 315.238C2193.58 315.908 2186.85 318.263 2180.94 322.11C2175.02 325.956 2170.09 331.183 2166.54 337.359C2162.99 343.536 2160.93 350.485 2160.53 357.634C2160.13 364.782 2161.4 371.925 2164.24 378.474C2183.48 414.067 2226.48 375.312 2253.29 378.971C2284.26 379.603 2309.39 412.26 2334.12 384.888C2361.63 354.444 2322.26 324.769 2291.47 311.534L2200.56 315.238Z" fill="#F6D2A2"/>
<path d="M2312.09 399.387C2302.21 398.594 2292.58 395.848 2283.73 391.301C2274.19 386.463 2263.85 383.491 2253.25 382.539H2252.85C2241.99 382.546 2231.26 384.885 2221.35 389.404C2199.63 397.083 2174.99 405.755 2161.19 380.371C2157.84 373.979 2156.14 366.825 2156.25 359.579C2156.36 352.333 2158.27 345.235 2161.81 338.951C2165.53 331.549 2170.99 325.202 2177.7 320.474C2184.4 315.746 2192.15 312.783 2200.25 311.85L2292.13 307.875L2292.84 308.191C2315.71 318.038 2341.77 336.06 2346.24 357.109C2346.84 362.191 2346.42 367.345 2345.01 372.258C2343.6 377.17 2341.22 381.738 2338.03 385.684C2334.83 389.629 2330.89 392.871 2326.43 395.211C2321.97 397.551 2317.09 398.941 2312.09 399.296V399.387ZM2253.56 375.628C2264.99 376.585 2276.14 379.742 2286.43 384.933C2303.81 392.385 2317.39 398.257 2331.6 382.674C2334.76 379.693 2337.14 375.946 2338.52 371.778C2339.9 367.61 2340.22 363.156 2339.47 358.825C2335.62 340.758 2311.07 324.09 2290.81 315.283L2200.74 318.941C2193.82 319.83 2187.22 322.419 2181.5 326.487C2175.79 330.555 2171.12 335.979 2167.91 342.293C2164.93 347.538 2163.31 353.468 2163.2 359.528C2163.08 365.588 2164.47 371.579 2167.25 376.938C2178.22 397.218 2198.21 390.217 2219.01 382.81C2229.88 377.889 2241.67 375.439 2253.56 375.628Z" fill="#231F20"/>
<path fill-rule="evenodd" clip-rule="evenodd" d="M2197.06 313.747C2194.98 264.288 2287.4 258.19 2298.46 299.519C2309.52 340.849 2201.75 350.469 2197.2 313.793L2197.06 313.747Z" fill="black"/>
</svg>