<svg width="1300" height="1300" viewBox="0 0 1300 1300" fill="none" xmlns="http://www.w3.org/2000/svg">
<circle cx="650" cy="650" r="640" stroke="#1C7D78" stroke-width="20"/>
<path d="M547.787 518.213C537.45 542.66 521.28 564.204 500.693 580.959C480.106 597.714 455.727 609.171 429.69 614.328C403.652 619.485 376.747 618.185 351.327 610.542C325.908 602.899 302.748 589.145 283.872 570.483C264.995 551.821 250.978 528.82 243.045 503.489C235.112 478.159 233.505 451.27 238.365 425.175C243.224 399.08 254.402 374.573 270.921 353.795C287.44 333.018 308.797 316.604 333.125 305.987M560.625 455C560.625 433.66 556.422 412.529 548.255 392.814C540.089 373.099 528.119 355.185 513.03 340.095C497.94 325.006 480.026 313.036 460.311 304.87C440.596 296.703 419.465 292.5 398.125 292.5V455H560.625Z" stroke="#1C7D78" stroke-width="20" stroke-linecap="round" stroke-linejoin="round"/>
<path d="M910 585V422.5M1007.5 585V325M812.5 585V520" stroke="#1C7D78" stroke-width="40" stroke-linecap="round" stroke-linejoin="round"/>
<path d="M585 1064.38L471.25 1129.38V869.375L585 804.375M585 1064.38L715 1129.38M585 1064.38V804.375M715 1129.38L828.75 1064.38V804.375L715 869.375M715 1129.38V869.375M715 869.375L585 804.375" stroke="#1C7D78" stroke-width="20" stroke-linecap="round" stroke-linejoin="round"/>
</svg>