<svg width="1330" height="1330" viewBox="0 0 1330 1330" fill="none" xmlns="http://www.w3.org/2000/svg">
<path d="M952.872 485.625C987.508 472.982 1037.91 443.035 1018.4 380.405C995.65 307.352 948.632 308.783 948.632 308.783C948.62 272.786 923.093 260.814 911.988 255.49C898.311 248.932 868.782 241.268 832.492 272.919C823.872 280.438 853.539 209.836 759.179 158.901C687.352 120.129 590.568 123.7 538.521 146.889C412.514 203.028 385.416 298.083 417.089 313.779C417.089 313.779 324.36 297.838 309.314 387.893C293.318 483.639 394.381 480.994 394.381 480.994C580.546 482.043 766.704 484.972 952.872 485.625Z" stroke="#1C7D78" stroke-width="22.6772" stroke-linecap="round" stroke-linejoin="round"/>
<path d="M323.456 573.851L997.907 573.869" stroke="#1C7D78" stroke-width="15.1181" stroke-linecap="round" stroke-linejoin="round"/>
<path d="M653.166 519.353V633.911" stroke="#1C7D78" stroke-width="15.1181" stroke-linecap="round" stroke-linejoin="round"/>
<path d="M323.647 574.295L324.228 633.454H323.647" stroke="#1C7D78" stroke-width="15.1181" stroke-linecap="round" stroke-linejoin="round"/>
<path d="M998.042 574.774L998.623 630.43H998.042" stroke="#1C7D78" stroke-width="15.1181" stroke-linecap="round" stroke-linejoin="round"/>
<path d="M324.062 670.937C332.374 670.937 339.112 664.199 339.112 655.887C339.112 647.575 332.374 640.837 324.062 640.837C315.75 640.837 309.012 647.575 309.012 655.887C309.012 664.199 315.75 670.937 324.062 670.937Z" stroke="#1C7D78" stroke-width="11.3386" stroke-linecap="round" stroke-linejoin="round"/>
<path d="M653.641 667.857C661.953 667.857 668.692 661.118 668.692 652.806C668.692 644.494 661.953 637.756 653.641 637.756C645.329 637.756 638.591 644.494 638.591 652.806C638.591 661.118 645.329 667.857 653.641 667.857Z" stroke="#1C7D78" stroke-width="11.3386" stroke-linecap="round" stroke-linejoin="round"/>
<path d="M997.584 666.486C1005.9 666.486 1012.63 659.747 1012.63 651.435C1012.63 643.123 1005.9 636.385 997.584 636.385C989.272 636.385 982.534 643.123 982.534 651.435C982.534 659.747 989.272 666.486 997.584 666.486Z" stroke="#1C7D78" stroke-width="11.3386" stroke-linecap="round" stroke-linejoin="round"/>
<path d="M436.478 696.924H215.679C211.357 696.924 207.853 700.428 207.853 704.75V997.5C207.853 1001.82 211.357 1005.33 215.679 1005.33H436.478C440.801 1005.33 444.305 1001.82 444.305 997.5V704.75C444.305 700.428 440.801 696.924 436.478 696.924Z" stroke="#1C7D78" stroke-width="7.55907" stroke-linecap="round" stroke-linejoin="round"/>
<path d="M225.724 713.583H425.874V748.773H225.724V713.583Z" fill="#1C7D78" stroke="#1C7D78" stroke-width="3.77953" stroke-linecap="round" stroke-linejoin="round"/>
<path d="M375.462 737.245C379.398 737.245 382.588 734.584 382.588 731.301C382.588 728.018 379.398 725.356 375.462 725.356C371.526 725.356 368.335 728.018 368.335 731.301C368.335 734.584 371.526 737.245 375.462 737.245Z" fill="#1C7D78" stroke="#F9FCFC" stroke-width="2.64567" stroke-linecap="round" stroke-linejoin="round"/>
<path d="M408.731 737.466C412.667 737.466 415.858 734.805 415.858 731.522C415.858 728.239 412.667 725.577 408.731 725.577C404.795 725.577 401.605 728.239 401.605 731.522C401.605 734.805 404.795 737.466 408.731 737.466Z" fill="#1C7D78" stroke="white" stroke-width="2.64567" stroke-linecap="round" stroke-linejoin="round"/>
<path d="M235.369 723.638H345.246" stroke="#FAFDFD" stroke-width="3.77953" stroke-linecap="round" stroke-linejoin="round"/>
<path d="M234.909 738.636H344.785" stroke="#FAFDFD" stroke-width="3.77953" stroke-linecap="round" stroke-linejoin="round"/>
<path d="M225.997 761.733H426.147V796.922H225.997V761.733Z" fill="#1C7D78" stroke="#1C7D78" stroke-width="3.77953" stroke-linecap="round" stroke-linejoin="round"/>
<path d="M375.734 785.394C379.67 785.394 382.861 782.733 382.861 779.45C382.861 776.167 379.67 773.506 375.734 773.506C371.798 773.506 368.608 776.167 368.608 779.45C368.608 782.733 371.798 785.394 375.734 785.394Z" fill="#1C7D78" stroke="#F9FCFC" stroke-width="2.64567" stroke-linecap="round" stroke-linejoin="round"/>
<path d="M409.004 785.616C412.94 785.616 416.131 782.954 416.131 779.671C416.131 776.388 412.94 773.727 409.004 773.727C405.068 773.727 401.878 776.388 401.878 779.671C401.878 782.954 405.068 785.616 409.004 785.616Z" fill="#1C7D78" stroke="white" stroke-width="2.64567" stroke-linecap="round" stroke-linejoin="round"/>
<path d="M235.642 771.787H345.518" stroke="#FAFDFD" stroke-width="3.77953" stroke-linecap="round" stroke-linejoin="round"/>
<path d="M235.182 786.785H345.058" stroke="#FAFDFD" stroke-width="3.77953" stroke-linecap="round" stroke-linejoin="round"/>
<path d="M226.759 809.87H426.91V845.06H226.759V809.87Z" fill="#1C7D78" stroke="#1C7D78" stroke-width="3.77953" stroke-linecap="round" stroke-linejoin="round"/>
<path d="M376.497 833.532C380.433 833.532 383.624 830.871 383.624 827.588C383.624 824.305 380.433 821.643 376.497 821.643C372.561 821.643 369.37 824.305 369.37 827.588C369.37 830.871 372.561 833.532 376.497 833.532Z" fill="#1C7D78" stroke="#F9FCFC" stroke-width="2.64567" stroke-linecap="round" stroke-linejoin="round"/>
<path d="M409.767 833.753C413.703 833.753 416.893 831.092 416.893 827.809C416.893 824.526 413.703 821.865 409.767 821.865C405.831 821.865 402.64 824.526 402.64 827.809C402.64 831.092 405.831 833.753 409.767 833.753Z" fill="#1C7D78" stroke="white" stroke-width="2.64567" stroke-linecap="round" stroke-linejoin="round"/>
<path d="M236.404 819.925H346.281" stroke="#FAFDFD" stroke-width="3.77953" stroke-linecap="round" stroke-linejoin="round"/>
<path d="M235.944 834.923H345.821" stroke="#FAFDFD" stroke-width="3.77953" stroke-linecap="round" stroke-linejoin="round"/>
<path d="M226.005 857.704H426.156V892.894H226.005V857.704Z" fill="#1C7D78" stroke="#1C7D78" stroke-width="3.77953" stroke-linecap="round" stroke-linejoin="round"/>
<path d="M375.743 881.366C379.679 881.366 382.87 878.705 382.87 875.422C382.87 872.139 379.679 869.477 375.743 869.477C371.807 869.477 368.616 872.139 368.616 875.422C368.616 878.705 371.807 881.366 375.743 881.366Z" fill="#1C7D78" stroke="#F9FCFC" stroke-width="2.64567" stroke-linecap="round" stroke-linejoin="round"/>
<path d="M409.013 881.587C412.949 881.587 416.14 878.926 416.14 875.643C416.14 872.36 412.949 869.698 409.013 869.698C405.077 869.698 401.886 872.36 401.886 875.643C401.886 878.926 405.077 881.587 409.013 881.587Z" fill="#1C7D78" stroke="white" stroke-width="2.64567" stroke-linecap="round" stroke-linejoin="round"/>
<path d="M235.651 867.759H345.527" stroke="#FAFDFD" stroke-width="3.77953" stroke-linecap="round" stroke-linejoin="round"/>
<path d="M235.19 882.757H345.067" stroke="#FAFDFD" stroke-width="3.77953" stroke-linecap="round" stroke-linejoin="round"/>
<path d="M225.598 905.842H425.749V941.031H225.598V905.842Z" fill="#1C7D78" stroke="#1C7D78" stroke-width="3.77953" stroke-linecap="round" stroke-linejoin="round"/>
<path d="M375.336 929.504C379.272 929.504 382.463 926.842 382.463 923.559C382.463 920.276 379.272 917.615 375.336 917.615C371.4 917.615 368.209 920.276 368.209 923.559C368.209 926.842 371.4 929.504 375.336 929.504Z" fill="#1C7D78" stroke="#F9FCFC" stroke-width="2.64567" stroke-linecap="round" stroke-linejoin="round"/>
<path d="M408.606 929.725C412.542 929.725 415.733 927.063 415.733 923.78C415.733 920.497 412.542 917.836 408.606 917.836C404.67 917.836 401.479 920.497 401.479 923.78C401.479 927.063 404.67 929.725 408.606 929.725Z" fill="#1C7D78" stroke="white" stroke-width="2.64567" stroke-linecap="round" stroke-linejoin="round"/>
<path d="M235.244 915.896H345.12" stroke="#FAFDFD" stroke-width="3.77953" stroke-linecap="round" stroke-linejoin="round"/>
<path d="M234.783 930.894H344.66" stroke="#FAFDFD" stroke-width="3.77953" stroke-linecap="round" stroke-linejoin="round"/>
<path d="M225.097 953.979H425.247V989.169H225.097V953.979Z" fill="#1C7D78" stroke="#1C7D78" stroke-width="3.77953" stroke-linecap="round" stroke-linejoin="round"/>
<path d="M374.835 977.641C378.771 977.641 381.961 974.98 381.961 971.697C381.961 968.414 378.771 965.752 374.835 965.752C370.899 965.752 367.708 968.414 367.708 971.697C367.708 974.98 370.899 977.641 374.835 977.641Z" fill="#1C7D78" stroke="#F9FCFC" stroke-width="2.64567" stroke-linecap="round" stroke-linejoin="round"/>
<path d="M408.104 977.862C412.04 977.862 415.231 975.201 415.231 971.918C415.231 968.635 412.04 965.973 408.104 965.973C404.168 965.973 400.977 968.635 400.977 971.918C400.977 975.201 404.168 977.862 408.104 977.862Z" fill="#1C7D78" stroke="white" stroke-width="2.64567" stroke-linecap="round" stroke-linejoin="round"/>
<path d="M234.742 964.034H344.619" stroke="#FAFDFD" stroke-width="3.77953" stroke-linecap="round" stroke-linejoin="round"/>
<path d="M234.282 979.032H344.158" stroke="#FAFDFD" stroke-width="3.77953" stroke-linecap="round" stroke-linejoin="round"/>
<path d="M764.669 696.42H543.869C539.547 696.42 536.043 699.924 536.043 704.246V996.996C536.043 1001.32 539.547 1004.82 543.869 1004.82H764.669C768.991 1004.82 772.495 1001.32 772.495 996.996V704.246C772.495 699.924 768.991 696.42 764.669 696.42Z" stroke="#1C7D78" stroke-width="7.55907" stroke-linecap="round" stroke-linejoin="round"/>
<path d="M553.914 713.079H754.065V748.269H553.914V713.079Z" fill="#1C7D78" stroke="#1C7D78" stroke-width="3.77953" stroke-linecap="round" stroke-linejoin="round"/>
<path d="M703.652 736.741C707.588 736.741 710.778 734.08 710.778 730.797C710.778 727.514 707.588 724.852 703.652 724.852C699.716 724.852 696.525 727.514 696.525 730.797C696.525 734.08 699.716 736.741 703.652 736.741Z" fill="#1C7D78" stroke="#F9FCFC" stroke-width="2.64567" stroke-linecap="round" stroke-linejoin="round"/>
<path d="M736.921 736.962C740.857 736.962 744.048 734.301 744.048 731.018C744.048 727.735 740.857 725.073 736.921 725.073C732.985 725.073 729.795 727.735 729.795 731.018C729.795 734.301 732.985 736.962 736.921 736.962Z" fill="#1C7D78" stroke="white" stroke-width="2.64567" stroke-linecap="round" stroke-linejoin="round"/>
<path d="M563.559 723.134H673.436" stroke="#FAFDFD" stroke-width="3.77953" stroke-linecap="round" stroke-linejoin="round"/>
<path d="M563.099 738.132H672.975" stroke="#FAFDFD" stroke-width="3.77953" stroke-linecap="round" stroke-linejoin="round"/>
<path d="M554.187 761.229H754.337V796.418H554.187V761.229Z" fill="#1C7D78" stroke="#1C7D78" stroke-width="3.77953" stroke-linecap="round" stroke-linejoin="round"/>
<path d="M703.925 784.89C707.861 784.89 711.051 782.229 711.051 778.946C711.051 775.663 707.861 773.002 703.925 773.002C699.989 773.002 696.798 775.663 696.798 778.946C696.798 782.229 699.989 784.89 703.925 784.89Z" fill="#1C7D78" stroke="#F9FCFC" stroke-width="2.64567" stroke-linecap="round" stroke-linejoin="round"/>
<path d="M737.194 785.111C741.13 785.111 744.321 782.45 744.321 779.167C744.321 775.884 741.13 773.223 737.194 773.223C733.258 773.223 730.068 775.884 730.068 779.167C730.068 782.45 733.258 785.111 737.194 785.111Z" fill="#1C7D78" stroke="white" stroke-width="2.64567" stroke-linecap="round" stroke-linejoin="round"/>
<path d="M563.832 771.283H673.709" stroke="#FAFDFD" stroke-width="3.77953" stroke-linecap="round" stroke-linejoin="round"/>
<path d="M563.372 786.281H673.248" stroke="#FAFDFD" stroke-width="3.77953" stroke-linecap="round" stroke-linejoin="round"/>
<path d="M554.949 809.366H755.1V844.556H554.949V809.366Z" fill="#1C7D78" stroke="#1C7D78" stroke-width="3.77953" stroke-linecap="round" stroke-linejoin="round"/>
<path d="M704.687 833.028C708.623 833.028 711.814 830.367 711.814 827.084C711.814 823.801 708.623 821.139 704.687 821.139C700.751 821.139 697.56 823.801 697.56 827.084C697.56 830.367 700.751 833.028 704.687 833.028Z" fill="#1C7D78" stroke="#F9FCFC" stroke-width="2.64567" stroke-linecap="round" stroke-linejoin="round"/>
<path d="M737.957 833.249C741.893 833.249 745.083 830.588 745.083 827.305C745.083 824.022 741.893 821.36 737.957 821.36C734.021 821.36 730.83 824.022 730.83 827.305C730.83 830.588 734.021 833.249 737.957 833.249Z" fill="#1C7D78" stroke="white" stroke-width="2.64567" stroke-linecap="round" stroke-linejoin="round"/>
<path d="M564.594 819.421H674.471" stroke="#FAFDFD" stroke-width="3.77953" stroke-linecap="round" stroke-linejoin="round"/>
<path d="M564.134 834.419H674.011" stroke="#FAFDFD" stroke-width="3.77953" stroke-linecap="round" stroke-linejoin="round"/>
<path d="M554.195 857.2H754.346V892.389H554.195V857.2Z" fill="#1C7D78" stroke="#1C7D78" stroke-width="3.77953" stroke-linecap="round" stroke-linejoin="round"/>
<path d="M703.933 880.862C707.869 880.862 711.06 878.201 711.06 874.918C711.06 871.635 707.869 868.973 703.933 868.973C699.997 868.973 696.806 871.635 696.806 874.918C696.806 878.201 699.997 880.862 703.933 880.862Z" fill="#1C7D78" stroke="#F9FCFC" stroke-width="2.64567" stroke-linecap="round" stroke-linejoin="round"/>
<path d="M737.203 881.083C741.139 881.083 744.33 878.422 744.33 875.139C744.33 871.856 741.139 869.194 737.203 869.194C733.267 869.194 730.076 871.856 730.076 875.139C730.076 878.422 733.267 881.083 737.203 881.083Z" fill="#1C7D78" stroke="white" stroke-width="2.64567" stroke-linecap="round" stroke-linejoin="round"/>
<path d="M563.841 867.255H673.717" stroke="#FAFDFD" stroke-width="3.77953" stroke-linecap="round" stroke-linejoin="round"/>
<path d="M563.381 882.253H673.257" stroke="#FAFDFD" stroke-width="3.77953" stroke-linecap="round" stroke-linejoin="round"/>
<path d="M553.788 905.338H753.939V940.527H553.788V905.338Z" fill="#1C7D78" stroke="#1C7D78" stroke-width="3.77953" stroke-linecap="round" stroke-linejoin="round"/>
<path d="M703.526 929C707.462 929 710.653 926.338 710.653 923.055C710.653 919.772 707.462 917.111 703.526 917.111C699.59 917.111 696.399 919.772 696.399 923.055C696.399 926.338 699.59 929 703.526 929Z" fill="#1C7D78" stroke="#F9FCFC" stroke-width="2.64567" stroke-linecap="round" stroke-linejoin="round"/>
<path d="M736.796 929.221C740.732 929.221 743.923 926.56 743.923 923.277C743.923 919.994 740.732 917.332 736.796 917.332C732.86 917.332 729.669 919.994 729.669 923.277C729.669 926.56 732.86 929.221 736.796 929.221Z" fill="#1C7D78" stroke="white" stroke-width="2.64567" stroke-linecap="round" stroke-linejoin="round"/>
<path d="M563.434 915.392H673.31" stroke="#FAFDFD" stroke-width="3.77953" stroke-linecap="round" stroke-linejoin="round"/>
<path d="M562.974 930.39H672.85" stroke="#FAFDFD" stroke-width="3.77953" stroke-linecap="round" stroke-linejoin="round"/>
<path d="M553.287 953.476H753.438V988.665H553.287V953.476Z" fill="#1C7D78" stroke="#1C7D78" stroke-width="3.77953" stroke-linecap="round" stroke-linejoin="round"/>
<path d="M703.025 977.137C706.961 977.137 710.152 974.476 710.152 971.193C710.152 967.91 706.961 965.248 703.025 965.248C699.089 965.248 695.898 967.91 695.898 971.193C695.898 974.476 699.089 977.137 703.025 977.137Z" fill="#1C7D78" stroke="#F9FCFC" stroke-width="2.64567" stroke-linecap="round" stroke-linejoin="round"/>
<path d="M736.295 977.358C740.231 977.358 743.421 974.697 743.421 971.414C743.421 968.131 740.231 965.47 736.295 965.47C732.359 965.47 729.168 968.131 729.168 971.414C729.168 974.697 732.359 977.358 736.295 977.358Z" fill="#1C7D78" stroke="white" stroke-width="2.64567" stroke-linecap="round" stroke-linejoin="round"/>
<path d="M562.932 963.53H672.809" stroke="#FAFDFD" stroke-width="3.77953" stroke-linecap="round" stroke-linejoin="round"/>
<path d="M562.472 978.528H672.348" stroke="#FAFDFD" stroke-width="3.77953" stroke-linecap="round" stroke-linejoin="round"/>
<path d="M1110.85 694.303H890.055C885.733 694.303 882.229 697.807 882.229 702.129V994.88C882.229 999.202 885.733 1002.71 890.055 1002.71H1110.85C1115.18 1002.71 1118.68 999.202 1118.68 994.88V702.129C1118.68 697.807 1115.18 694.303 1110.85 694.303Z" stroke="#1C7D78" stroke-width="7.55907" stroke-linecap="round" stroke-linejoin="round"/>
<path d="M900.099 710.962H1100.25V746.152H900.099V710.962Z" fill="#1C7D78" stroke="#1C7D78" stroke-width="3.77953" stroke-linecap="round" stroke-linejoin="round"/>
<path d="M1049.84 734.624C1053.77 734.624 1056.96 731.963 1056.96 728.68C1056.96 725.397 1053.77 722.735 1049.84 722.735C1045.9 722.735 1042.71 725.397 1042.71 728.68C1042.71 731.963 1045.9 734.624 1049.84 734.624Z" fill="#1C7D78" stroke="#F9FCFC" stroke-width="2.64567" stroke-linecap="round" stroke-linejoin="round"/>
<path d="M1083.11 734.845C1087.04 734.845 1090.23 732.184 1090.23 728.901C1090.23 725.618 1087.04 722.956 1083.11 722.956C1079.17 722.956 1075.98 725.618 1075.98 728.901C1075.98 732.184 1079.17 734.845 1083.11 734.845Z" fill="#1C7D78" stroke="white" stroke-width="2.64567" stroke-linecap="round" stroke-linejoin="round"/>
<path d="M909.745 721.017H1019.62" stroke="#FAFDFD" stroke-width="3.77953" stroke-linecap="round" stroke-linejoin="round"/>
<path d="M909.285 736.015H1019.16" stroke="#FAFDFD" stroke-width="3.77953" stroke-linecap="round" stroke-linejoin="round"/>
<path d="M900.372 759.112H1100.52V794.301H900.372V759.112Z" fill="#1C7D78" stroke="#1C7D78" stroke-width="3.77953" stroke-linecap="round" stroke-linejoin="round"/>
<path d="M1050.11 782.773C1054.05 782.773 1057.24 780.112 1057.24 776.829C1057.24 773.546 1054.05 770.885 1050.11 770.885C1046.17 770.885 1042.98 773.546 1042.98 776.829C1042.98 780.112 1046.17 782.773 1050.11 782.773Z" fill="#1C7D78" stroke="#F9FCFC" stroke-width="2.64567" stroke-linecap="round" stroke-linejoin="round"/>
<path d="M1083.38 782.995C1087.32 782.995 1090.51 780.333 1090.51 777.05C1090.51 773.767 1087.32 771.106 1083.38 771.106C1079.44 771.106 1076.25 773.767 1076.25 777.05C1076.25 780.333 1079.44 782.995 1083.38 782.995Z" fill="#1C7D78" stroke="white" stroke-width="2.64567" stroke-linecap="round" stroke-linejoin="round"/>
<path d="M910.018 769.166H1019.89" stroke="#FAFDFD" stroke-width="3.77953" stroke-linecap="round" stroke-linejoin="round"/>
<path d="M909.557 784.164H1019.43" stroke="#FAFDFD" stroke-width="3.77953" stroke-linecap="round" stroke-linejoin="round"/>
<path d="M901.134 807.249H1101.29V842.439H901.134V807.249Z" fill="#1C7D78" stroke="#1C7D78" stroke-width="3.77953" stroke-linecap="round" stroke-linejoin="round"/>
<path d="M1050.87 830.911C1054.81 830.911 1058 828.25 1058 824.967C1058 821.684 1054.81 819.022 1050.87 819.022C1046.94 819.022 1043.75 821.684 1043.75 824.967C1043.75 828.25 1046.94 830.911 1050.87 830.911Z" fill="#1C7D78" stroke="#F9FCFC" stroke-width="2.64567" stroke-linecap="round" stroke-linejoin="round"/>
<path d="M1084.14 831.132C1088.08 831.132 1091.27 828.471 1091.27 825.188C1091.27 821.905 1088.08 819.243 1084.14 819.243C1080.21 819.243 1077.02 821.905 1077.02 825.188C1077.02 828.471 1080.21 831.132 1084.14 831.132Z" fill="#1C7D78" stroke="white" stroke-width="2.64567" stroke-linecap="round" stroke-linejoin="round"/>
<path d="M910.78 817.304H1020.66" stroke="#FAFDFD" stroke-width="3.77953" stroke-linecap="round" stroke-linejoin="round"/>
<path d="M910.32 832.302H1020.2" stroke="#FAFDFD" stroke-width="3.77953" stroke-linecap="round" stroke-linejoin="round"/>
<path d="M900.381 855.083H1100.53V890.273H900.381V855.083Z" fill="#1C7D78" stroke="#1C7D78" stroke-width="3.77953" stroke-linecap="round" stroke-linejoin="round"/>
<path d="M1050.12 878.745C1054.05 878.745 1057.25 876.084 1057.25 872.801C1057.25 869.518 1054.05 866.856 1050.12 866.856C1046.18 866.856 1042.99 869.518 1042.99 872.801C1042.99 876.084 1046.18 878.745 1050.12 878.745Z" fill="#1C7D78" stroke="#F9FCFC" stroke-width="2.64567" stroke-linecap="round" stroke-linejoin="round"/>
<path d="M1083.39 878.966C1087.32 878.966 1090.52 876.305 1090.52 873.022C1090.52 869.739 1087.32 867.078 1083.39 867.078C1079.45 867.078 1076.26 869.739 1076.26 873.022C1076.26 876.305 1079.45 878.966 1083.39 878.966Z" fill="#1C7D78" stroke="white" stroke-width="2.64567" stroke-linecap="round" stroke-linejoin="round"/>
<path d="M910.026 865.138H1019.9" stroke="#FAFDFD" stroke-width="3.77953" stroke-linecap="round" stroke-linejoin="round"/>
<path d="M909.566 880.136H1019.44" stroke="#FAFDFD" stroke-width="3.77953" stroke-linecap="round" stroke-linejoin="round"/>
<path d="M899.974 903.221H1100.12V938.41H899.974V903.221Z" fill="#1C7D78" stroke="#1C7D78" stroke-width="3.77953" stroke-linecap="round" stroke-linejoin="round"/>
<path d="M1049.71 926.883C1053.65 926.883 1056.84 924.221 1056.84 920.938C1056.84 917.655 1053.65 914.994 1049.71 914.994C1045.78 914.994 1042.58 917.655 1042.58 920.938C1042.58 924.221 1045.78 926.883 1049.71 926.883Z" fill="#1C7D78" stroke="#F9FCFC" stroke-width="2.64567" stroke-linecap="round" stroke-linejoin="round"/>
<path d="M1082.98 927.104C1086.92 927.104 1090.11 924.442 1090.11 921.159C1090.11 917.876 1086.92 915.215 1082.98 915.215C1079.05 915.215 1075.85 917.876 1075.85 921.159C1075.85 924.442 1079.05 927.104 1082.98 927.104Z" fill="#1C7D78" stroke="white" stroke-width="2.64567" stroke-linecap="round" stroke-linejoin="round"/>
<path d="M909.62 913.275H1019.5" stroke="#FAFDFD" stroke-width="3.77953" stroke-linecap="round" stroke-linejoin="round"/>
<path d="M909.159 928.273H1019.04" stroke="#FAFDFD" stroke-width="3.77953" stroke-linecap="round" stroke-linejoin="round"/>
<path d="M899.472 951.359H1099.62V986.548H899.472V951.359Z" fill="#1C7D78" stroke="#1C7D78" stroke-width="3.77953" stroke-linecap="round" stroke-linejoin="round"/>
<path d="M1049.21 975.02C1053.15 975.02 1056.34 972.359 1056.34 969.076C1056.34 965.793 1053.15 963.131 1049.21 963.131C1045.27 963.131 1042.08 965.793 1042.08 969.076C1042.08 972.359 1045.27 975.02 1049.21 975.02Z" fill="#1C7D78" stroke="#F9FCFC" stroke-width="2.64567" stroke-linecap="round" stroke-linejoin="round"/>
<path d="M1082.48 975.241C1086.42 975.241 1089.61 972.58 1089.61 969.297C1089.61 966.014 1086.42 963.353 1082.48 963.353C1078.54 963.353 1075.35 966.014 1075.35 969.297C1075.35 972.58 1078.54 975.241 1082.48 975.241Z" fill="#1C7D78" stroke="white" stroke-width="2.64567" stroke-linecap="round" stroke-linejoin="round"/>
<path d="M909.118 961.413H1018.99" stroke="#FAFDFD" stroke-width="3.77953" stroke-linecap="round" stroke-linejoin="round"/>
<path d="M908.657 976.411H1018.53" stroke="#FAFDFD" stroke-width="3.77953" stroke-linecap="round" stroke-linejoin="round"/>
<circle cx="665" cy="665" r="655" stroke="#1C7D78" stroke-width="20"/>
</svg>