<svg width="1300" height="1300" viewBox="0 0 1300 1300" fill="none" xmlns="http://www.w3.org/2000/svg">
<path d="M325 355.638V331.421L360.218 296.256C379.588 276.915 395.436 260.682 395.436 260.184C395.436 259.685 379.588 243.415 360.218 224.029L325 188.781V164.891C325 151.751 325.29 141 325.644 141.001C326.876 141.003 444.397 259.171 444.397 260.407C444.397 261.661 329.299 377.458 326.503 379.017C325.087 379.807 325 378.449 325 355.638ZM473.603 355.925V332.055L508.821 296.693C528.19 277.244 544.038 260.83 544.038 260.216C544.038 259.603 528.19 243.257 508.821 223.891L473.603 188.681V164.84C473.603 151.728 473.893 141 474.249 141C475.51 141 593 259.134 593 260.402C593 261.667 475.502 379.795 474.244 379.795C473.891 379.795 473.603 369.054 473.603 355.925ZM398.872 355.553V332.17L434.09 296.914C453.46 277.524 469.308 261.091 469.308 260.397C469.308 259.704 453.46 243.271 434.09 223.881L398.872 188.625V165.293C398.872 152.46 399.185 141.767 399.568 141.53C399.951 141.293 427.104 167.942 459.909 200.749L519.553 260.397L460.288 319.667C427.693 352.265 400.54 378.936 399.948 378.936C399.112 378.936 398.872 373.714 398.872 355.553Z" fill="#070707"/>
<path fill-rule="evenodd" clip-rule="evenodd" d="M977.073 346.033L838.426 108.975C835.325 103.675 827.665 103.675 824.564 108.975L706.737 310.431C704.666 313.975 708.404 318.066 712.118 316.324C713.643 315.607 715.404 314.884 717.337 314.164L717.298 314.243C717.298 314.243 720.517 312.995 725.957 311.272C731.952 309.43 738.522 307.686 744.469 306.213C761.111 302.371 782.917 299.244 802.581 302.509C820.677 305.512 833.279 310.362 842.458 315.13C846.666 317.319 850.641 311.825 847.239 308.519C834.078 295.729 813.828 280.29 783.028 273.82C781.679 273.537 781.003 272.016 781.7 270.826L828.087 191.513C829.613 188.908 833.377 188.908 834.902 191.513L923.494 342.986C925.361 346.176 923.796 350.251 920.291 351.424C913.349 353.745 905.057 355.48 895.773 355.48C889.867 355.48 883.926 354.783 877.97 353.399C877.97 353.399 860.802 350.69 837.855 336.999C814.908 323.31 770.665 305.847 721.018 334.119C699.865 347.712 685.771 366.303 678.344 377.976C677.18 379.803 679.189 381.982 681.099 380.962C698.157 371.849 744.149 350.328 785.591 358.065C810.224 362.662 838.374 381.257 867.636 391.92C916.044 409.858 963.503 379.805 963.605 379.74C968.622 376.425 971.569 373.905 972.071 373.468L972.676 372.94C980.411 366.189 982.257 354.893 977.073 346.033Z" fill="#00ADD4"/>
<path d="M650.2 766.4C557.7 766.4 483 691.7 483 599.2C483 506.7 557.7 432 650.2 432C742.7 432 817.4 506.7 817.4 599.2C817.4 691.7 742.7 766.4 650.2 766.4Z" fill="black"/>
<path d="M739.6 574.4H706.8V623.9H739.6C753.2 623.9 764.5 612.6 764.5 599C764.5 585.3 753.2 574.4 739.6 574.4Z" fill="#FFF100"/>
<path d="M546.1 599.2C546.1 637.4 577.2 668.5 615.4 668.5C653.6 668.5 684.7 637.4 684.7 599.2C684.7 561 653.6 529.9 615.4 529.9C577.2 529.9 546.1 561 546.1 599.2Z" fill="#FFF100"/>
<path opacity="0.973" fill-rule="evenodd" clip-rule="evenodd" d="M392.433 507.198C367.366 507.198 342.302 507.198 317.235 507.198C317.235 503.53 317.235 499.862 317.235 496.193C326.602 496.807 334.549 496.196 341.078 494.359C336.627 490.586 331.737 487.223 326.406 484.272C285.445 483.049 244.482 483.049 203.521 484.272C196.669 486.858 189.945 489.609 183.346 492.525C177.024 495.376 173.355 500.267 172.341 507.198C200.463 507.198 228.588 507.198 256.71 507.198C256.11 525.87 256.721 544.211 258.544 562.221C258.544 570.169 258.544 578.117 258.544 586.064C257.933 586.064 257.321 586.064 256.71 586.064C222.838 571.878 189.213 557.205 155.834 542.046C178.79 530.875 202.022 520.177 225.53 509.949C207.2 509.033 188.859 508.727 170.507 509.032C154.947 507.211 139.05 506.599 122.821 507.198C153.577 457.714 198.512 432.648 257.627 432C316.742 432.648 361.677 457.714 392.433 507.198Z" fill="#B8E1F3"/>
<path fill-rule="evenodd" clip-rule="evenodd" d="M341.078 494.359C288.187 494.967 235.608 494.356 183.346 492.525C189.945 489.609 196.669 486.858 203.521 484.272C244.482 483.049 285.445 483.049 326.406 484.272C331.737 487.223 336.627 490.586 341.078 494.359Z" fill="#F5FAFD"/>
<path fill-rule="evenodd" clip-rule="evenodd" d="M183.346 492.525C235.608 494.356 288.187 494.967 341.078 494.359C334.549 496.196 326.602 496.807 317.235 496.193C317.235 499.862 317.235 503.53 317.235 507.198C297.06 507.198 276.885 507.198 256.71 507.198C228.587 507.198 200.463 507.198 172.341 507.198C173.355 500.267 177.024 495.376 183.346 492.525Z" fill="#EAF7FD"/>
<path fill-rule="evenodd" clip-rule="evenodd" d="M122.821 507.198C139.05 506.599 154.947 507.211 170.507 509.032C170.507 510.255 169.896 510.866 168.673 510.866C153.389 509.643 138.104 508.421 122.821 507.198Z" fill="#4B94CB"/>
<path opacity="0.985" fill-rule="evenodd" clip-rule="evenodd" d="M122.821 507.198C138.104 508.421 153.39 509.643 168.673 510.866C164.112 519.988 159.526 529.158 154.917 538.378C158.45 554.435 164.565 569.719 173.258 584.23C183.713 600.291 195.024 615.577 207.189 630.083C207.316 639.902 207.926 649.684 209.023 659.428C208.75 661.358 209.054 663.192 209.94 664.93C225.91 681.812 241.5 698.929 256.71 716.285C257.768 718.62 258.99 718.62 260.378 716.285C272.626 695.448 284.854 674.662 297.06 653.926C306.157 646.978 315.021 639.642 323.654 631.917C324.571 615.421 324.876 598.914 324.571 582.396C336.187 568.946 347.804 555.496 359.419 542.046C359.977 540.854 360.588 539.631 361.253 538.378C357.585 529.207 353.917 520.037 350.249 510.866C364.87 509.036 379.543 508.425 394.267 509.032C415.897 545.385 422.316 584.513 413.525 626.414C398.007 685.953 361.019 725.386 302.562 744.714C223.885 761.91 162.443 737.15 118.235 670.433C94.7699 625.299 91.7125 578.836 109.065 531.041C112.773 522.378 117.359 514.431 122.821 507.198Z" fill="#277ABE"/>
<path fill-rule="evenodd" clip-rule="evenodd" d="M317.235 509.032C317.235 526.15 317.235 543.269 317.235 560.387C299.193 569.27 280.852 577.829 262.212 586.064C260.989 586.064 260.378 586.675 260.378 587.898C259.767 587.898 259.155 587.898 258.544 587.898C258.544 587.288 258.544 586.675 258.544 586.064C258.544 578.117 258.544 570.169 258.544 562.221C258.544 544.491 258.544 526.762 258.544 509.032C278.108 509.032 297.671 509.032 317.235 509.032Z" fill="#68C1EA"/>
<path fill-rule="evenodd" clip-rule="evenodd" d="M317.235 507.198C342.302 507.198 367.366 507.198 392.433 507.198C393.656 507.198 394.267 507.809 394.267 509.032C379.543 508.425 364.87 509.036 350.249 510.866C353.917 520.037 357.585 529.207 361.253 538.378C360.588 539.631 359.977 540.854 359.419 542.046C345.135 547.66 331.073 553.773 317.235 560.387C317.235 543.269 317.235 526.15 317.235 509.032C317.235 508.421 317.235 507.809 317.235 507.198Z" fill="#4E8BC9"/>
<path fill-rule="evenodd" clip-rule="evenodd" d="M256.71 507.198C276.885 507.198 297.06 507.198 317.235 507.198C317.235 507.809 317.235 508.421 317.235 509.032C297.671 509.032 278.108 509.032 258.544 509.032C258.544 526.762 258.544 544.491 258.544 562.221C256.721 544.211 256.11 525.87 256.71 507.198Z" fill="#A2D8F1"/>
<path fill-rule="evenodd" clip-rule="evenodd" d="M170.507 509.032C188.859 508.727 207.2 509.033 225.53 509.949C202.022 520.177 178.79 530.875 155.834 542.046C189.213 557.205 222.838 571.878 256.71 586.064C256.051 589.496 254.217 592.247 251.207 594.318C235.656 605.295 220.983 617.216 207.189 630.083C195.024 615.577 183.713 600.291 173.258 584.23C164.565 569.72 158.45 554.435 154.917 538.378C159.526 529.158 164.112 519.988 168.673 510.866C169.896 510.866 170.507 510.255 170.507 509.032Z" fill="#90D4F0"/>
<path fill-rule="evenodd" clip-rule="evenodd" d="M359.419 542.046C347.804 555.496 336.187 568.946 324.571 582.396C304.969 583.827 285.404 585.661 265.88 587.898C264.2 587.819 262.977 587.209 262.212 586.064C280.852 577.829 299.193 569.27 317.235 560.387C331.073 553.773 345.135 547.66 359.419 542.046Z" fill="#266FA8"/>
<path fill-rule="evenodd" clip-rule="evenodd" d="M324.571 582.396C324.876 598.914 324.571 615.421 323.654 631.917C315.021 639.642 306.157 646.978 297.06 653.926C296.449 652.703 295.837 651.481 295.226 650.258C282.622 629.934 271.007 609.148 260.378 587.898C260.378 586.675 260.989 586.064 262.212 586.064C262.977 587.209 264.2 587.82 265.88 587.898C285.404 585.661 304.969 583.827 324.571 582.396Z" fill="#4D8AC8"/>
<path fill-rule="evenodd" clip-rule="evenodd" d="M256.71 586.064C257.321 586.064 257.933 586.064 258.544 586.064C258.544 586.675 258.544 587.288 258.544 587.898C258.544 602.571 258.544 617.244 258.544 631.917C257.933 631.917 257.321 631.917 256.71 631.917C240.207 631.218 223.7 630.607 207.189 630.083C220.983 617.216 235.656 605.295 251.207 594.318C254.217 592.247 256.051 589.496 256.71 586.064Z" fill="#ABDCF1"/>
<path fill-rule="evenodd" clip-rule="evenodd" d="M258.544 587.898C259.155 587.898 259.767 587.898 260.378 587.898C271.007 609.148 282.622 629.934 295.226 650.258C282.306 645.161 270.078 639.048 258.544 631.917C258.544 617.244 258.544 602.571 258.544 587.898Z" fill="#54A5D7"/>
<path fill-rule="evenodd" clip-rule="evenodd" d="M207.189 630.083C223.7 630.607 240.207 631.218 256.71 631.917C256.71 645.366 256.71 658.818 256.71 672.267C243.183 670.726 229.732 668.586 216.36 665.848C213.559 663.955 211.114 661.814 209.023 659.428C207.926 649.684 207.316 639.902 207.189 630.083Z" fill="#B6E0F2"/>
<path fill-rule="evenodd" clip-rule="evenodd" d="M256.71 631.917C257.32 631.917 257.933 631.917 258.544 631.917C270.078 639.048 282.306 645.161 295.226 650.258C295.837 651.481 296.449 652.703 297.06 653.926C284.65 659.212 272.422 665.02 260.378 671.35C258.624 677.575 258.014 683.994 258.544 690.608C256.748 684.876 256.136 678.763 256.71 672.267C256.71 658.817 256.71 645.366 256.71 631.917Z" fill="#58AFDE"/>
<path fill-rule="evenodd" clip-rule="evenodd" d="M297.06 653.926C284.854 674.662 272.626 695.448 260.378 716.285C258.99 718.62 257.768 718.62 256.71 716.285C258.518 708.087 259.129 699.527 258.544 690.608C258.014 683.994 258.625 677.575 260.378 671.35C272.423 665.02 284.65 659.212 297.06 653.926Z" fill="#266FA8"/>
<path fill-rule="evenodd" clip-rule="evenodd" d="M209.023 659.428C211.114 661.814 213.559 663.955 216.36 665.848C229.732 668.586 243.183 670.726 256.71 672.267C256.136 678.763 256.748 684.876 258.544 690.608C259.129 699.527 258.518 708.087 256.71 716.285C241.5 698.929 225.91 681.812 209.94 664.931C209.054 663.192 208.75 661.358 209.023 659.428Z" fill="#8FD3F0"/>
<path d="M1017.05 703.996C1004.3 690.395 1003.92 689.806 1006.21 687.234C1009.84 683.158 1164.78 541.333 1167 540.049C1168.93 538.937 1187.92 548.109 1192.07 552.153C1193.66 553.704 1181.32 566.899 1113.97 635.632C1069.97 680.533 1033.14 717.455 1032.12 717.681C1031.1 717.907 1024.31 711.749 1017.05 703.996ZM981.878 667.864C975.005 660.955 970.658 655.528 971.091 654.397C971.875 652.356 1060.95 580.359 1062.61 580.421C1064.66 580.498 1085.63 596.424 1085.63 597.907C1085.63 599.468 996.085 679.437 994.338 679.437C993.817 679.437 988.21 674.229 981.878 667.864ZM949.333 634.669C943.952 628.657 940.574 623.804 941.298 623.127C945.052 619.623 983.781 592.768 985.059 592.783C987.14 592.809 1005.83 608.835 1005.83 610.595C1005.83 612.759 963.892 645.043 961.08 645.043C959.726 645.043 954.439 640.375 949.333 634.669ZM922.645 607.275C914.937 599.481 914.017 598.027 915.767 596.401C918.274 594.071 1041.39 514.593 1043.9 513.68C1045.87 512.966 1062.93 523.291 1062.93 525.198C1062.93 526.562 936.717 614.946 933.645 615.734C932.425 616.047 927.81 612.498 922.645 607.275ZM1004.76 594.725C999.674 590.506 995.543 586.327 995.576 585.438C995.608 584.55 1000.1 580.688 1005.55 576.856C1011 573.024 1035.45 555.535 1059.87 537.991C1084.3 520.447 1105.29 506.093 1106.52 506.093C1109.8 506.093 1126.44 515.714 1125.91 517.308C1125.14 519.623 1018.35 602.359 1016.11 602.378C1014.95 602.388 1009.84 598.943 1004.76 594.725ZM897.854 582.336C891.787 575.921 890.905 574.372 892.495 572.923C893.87 571.67 970.131 526.628 979.355 521.621C980.879 520.794 997.046 532.454 996.529 534.007C995.86 536.013 909.854 590.009 907.323 590.012C906.109 590.013 901.848 586.558 897.854 582.336ZM1082.24 582.849C1076.66 578.844 1071.88 574.92 1071.62 574.129C1071.24 572.999 1121.83 530.954 1133.31 522.858C1135.54 521.284 1137.29 521.808 1146.86 526.906C1152.91 530.127 1157.84 533.417 1157.83 534.217C1157.81 536.264 1097.59 589.238 1094.74 589.727C1093.45 589.948 1087.83 586.853 1082.24 582.849ZM877.337 560.572L870 553.143L873.257 551.033C875.048 549.872 911.405 530.04 954.051 506.961L1031.59 465L1039 468.636C1043.08 470.636 1046.42 472.95 1046.42 473.778C1046.42 474.91 886.999 568.002 885.059 568.002C884.847 568.002 881.372 564.658 877.337 560.572ZM996.547 523.116C992.953 520.418 990.016 517.497 990.021 516.623C990.025 515.75 1004.56 506.478 1022.32 496.02L1054.6 477.004L1062.89 481.422C1067.45 483.852 1071.18 486.31 1071.18 486.883C1071.18 488.514 1007.87 528.11 1005.34 528.063C1004.1 528.042 1000.14 525.814 996.547 523.116ZM1061.21 514.888C1056.86 512.199 1053.31 509.275 1053.32 508.39C1053.35 506.891 1075.34 492.16 1078.95 491.226C1080.6 490.796 1095.4 498.602 1096.6 500.538C1096.96 501.121 1096.19 502.55 1094.88 503.713C1090.41 507.691 1072.07 519.851 1070.59 519.814C1069.78 519.793 1065.56 517.577 1061.21 514.888Z" fill="#50ABF1"/>
<path d="M948.725 1078.35C951.301 1056.89 950.529 1053.74 966.511 1057.22L970.569 1057.57C982.858 1058.13 998.935 1055.6 1008.38 1051.21C1028.71 1041.78 1040.77 1026.03 1020.72 1030.16C974.99 1039.6 971.846 1024.11 971.846 1024.11C1020.13 952.468 1040.32 861.52 1022.9 839.257C975.372 778.534 893.111 807.249 891.735 807.994L891.297 808.075C882.261 806.2 872.149 805.08 860.79 804.897C840.096 804.557 824.393 810.322 812.482 819.356C812.482 819.356 665.733 758.897 672.56 895.389C674.012 924.425 714.18 1115.1 762.087 1057.51C779.597 1036.45 796.519 1018.64 796.519 1018.64C804.921 1024.22 814.982 1027.07 825.533 1026.05L826.348 1025.35C826.093 1027.97 826.205 1030.52 826.675 1033.55C814.335 1047.34 817.961 1049.76 793.287 1054.84C768.323 1059.99 782.989 1069.15 792.562 1071.54C804.17 1074.44 831.025 1078.56 849.175 1053.15L848.452 1056.05C853.294 1059.92 852.966 1083.89 853.653 1101.01C854.34 1118.14 855.487 1134.11 858.977 1143.54C862.467 1152.95 866.586 1177.22 899.014 1170.27C926.116 1164.46 946.837 1156.1 948.725 1078.35Z" fill="black" stroke="black" stroke-width="49.8604"/>
<path d="M1020.72 1030.16C974.99 1039.6 971.846 1024.11 971.846 1024.11C1020.13 952.462 1040.32 861.511 1022.9 839.252C975.376 778.532 893.111 807.249 891.739 807.994L891.297 808.073C882.261 806.198 872.149 805.08 860.785 804.895C840.091 804.556 824.394 810.32 812.482 819.353C812.482 819.353 665.73 758.896 672.555 895.388C674.007 924.425 714.174 1115.1 762.084 1057.51C779.594 1036.45 796.513 1018.64 796.513 1018.64C804.917 1024.22 814.977 1027.07 825.524 1026.05L826.343 1025.35C826.088 1027.97 826.205 1030.52 826.671 1033.55C814.329 1047.34 817.956 1049.76 793.283 1054.84C768.318 1059.99 782.984 1069.15 792.559 1071.54C804.168 1074.44 831.024 1078.56 849.171 1053.15L848.447 1056.05C853.283 1059.92 856.679 1081.25 856.109 1100.57C855.54 1119.9 855.16 1133.17 858.971 1143.54C862.781 1153.9 866.579 1177.22 899.013 1170.27C926.115 1164.46 940.159 1149.41 942.113 1124.31C943.499 1106.46 946.637 1109.1 946.835 1093.14L949.352 1085.59C952.254 1061.39 949.813 1053.59 966.51 1057.22L970.567 1057.57C982.857 1058.13 998.941 1055.6 1008.38 1051.21C1028.71 1041.78 1040.76 1026.02 1020.72 1030.16H1020.72Z" fill="#336791"/>
<path d="M851.134 1044.03C849.875 1089.05 851.451 1134.38 855.856 1145.4C860.264 1156.42 869.696 1177.85 902.133 1170.9C929.232 1165.09 939.092 1153.85 943.371 1129.03C946.522 1110.77 952.597 1060.07 953.377 1049.68" stroke="white" stroke-width="16.6201" stroke-linecap="round" stroke-linejoin="round"/>
<path d="M812.256 818.347C812.256 818.347 665.404 758.326 672.231 894.817C673.683 923.855 713.852 1114.53 761.761 1056.94C779.268 1035.88 795.101 1019.36 795.101 1019.36" stroke="white" stroke-width="16.6201" stroke-linecap="round" stroke-linejoin="round"/>
<path d="M891.578 807.392C886.494 808.986 973.266 775.672 1022.58 838.684C1040 860.944 1019.81 951.894 971.526 1023.55" stroke="white" stroke-width="16.6201" stroke-linecap="round" stroke-linejoin="round"/>
<path d="M971.525 1023.55C971.525 1023.55 974.671 1039.04 1020.41 1029.6C1040.44 1025.46 1028.39 1041.21 1008.06 1050.65C991.383 1058.39 953.989 1060.37 953.378 1049.68C951.806 1022.08 973.059 1030.46 971.525 1023.55ZM971.525 1023.55C970.138 1017.32 960.635 1011.21 954.348 995.964C948.859 982.66 879.071 880.635 973.701 895.788C977.168 895.07 949.021 805.777 860.46 804.325C771.919 802.873 774.824 913.21 774.824 913.21" stroke="white" stroke-width="16.6201" stroke-linecap="round" stroke-linejoin="bevel"/>
<path d="M826.348 1032.99C814.004 1046.77 817.635 1049.19 792.96 1054.28C767.995 1059.42 782.663 1068.58 792.236 1070.97C803.844 1073.88 830.701 1077.99 848.847 1052.58C854.373 1044.84 848.814 1032.5 841.223 1029.35C837.556 1027.83 832.652 1025.93 826.348 1032.99Z" stroke="white" stroke-width="16.6201" stroke-linecap="round" stroke-linejoin="round"/>
<path d="M825.54 1032.74C824.296 1024.64 828.204 1014.99 832.392 1003.7C838.685 986.769 853.206 969.831 841.59 916.113C832.932 876.083 774.859 907.782 774.823 913.21C774.788 918.636 777.45 940.722 773.853 966.441C769.16 1000 795.208 1028.39 825.203 1025.48" stroke="white" stroke-width="16.6201" stroke-linecap="round" stroke-linejoin="round"/>
<path d="M811.722 912.397C811.46 914.25 815.116 919.197 819.883 919.858C824.642 920.522 828.715 916.656 828.973 914.804C829.231 912.95 825.58 910.908 820.811 910.244C816.05 909.58 811.975 910.547 811.723 912.397H811.722Z" fill="white" stroke="white" stroke-width="5.54"/>
<path d="M956.668 908.617C956.926 910.471 953.275 915.418 948.507 916.079C943.745 916.742 939.671 912.877 939.41 911.025C939.159 909.171 942.811 907.129 947.574 906.465C952.337 905.801 956.409 906.768 956.668 908.618V908.617Z" fill="white" stroke="white" stroke-width="2.77"/>
<path d="M973.701 895.788C974.486 910.329 970.569 920.234 970.075 935.713C969.344 958.214 980.803 983.967 963.537 1009.75" stroke="white" stroke-width="16.6201" stroke-linecap="round" stroke-linejoin="round"/>
<mask id="mask0_3_420" style="mask-type:luminance" maskUnits="userSpaceOnUse" x="211" y="762" width="383" height="383">
<path d="M402.1 762C507.633 762 593.2 847.567 593.2 953.1C593.2 1058.63 507.633 1144.2 402.1 1144.2C296.567 1144.2 211 1058.63 211 953.1C211 847.567 296.567 762 402.1 762Z" fill="white"/>
</mask>
<g mask="url(#mask0_3_420)">
<path d="M592.427 953.07C592.427 1030.7 545.989 1097.46 479.408 1127.12L416.183 1063.42C413.539 1060.74 412.053 1057.15 412.053 1053.4V1026.19C412.053 1022.27 415.232 1019.09 419.154 1019.09H480.21L496.907 1026.37C499.938 1027.67 503.444 1026.49 505.048 1023.57L541.295 957.557C542.454 955.477 543.048 953.1 543.048 950.723V935.184C543.048 933.402 542.335 931.708 541.028 930.49L467.791 857.461C467.196 856.867 466.424 856.451 465.592 856.243L394.316 839.308C392.087 838.773 390.008 837.703 388.284 836.218L383.768 832.296L360.891 812.479C360.089 811.795 358.871 811.825 358.098 812.538C349.274 820.53 344.491 827.126 342.173 835.831C338.311 849.469 341.609 861.561 347.046 868.87C347.373 869.345 347.729 869.761 348.086 870.177L375.36 897.481C376.697 898.789 377.41 900.601 377.41 902.473L377.44 933.966C377.44 936.016 374.974 937.026 373.518 935.6L329.1 891.212C327.912 890.024 325.951 890.024 324.763 891.212L306.461 909.425C305.243 910.614 305.243 912.574 306.461 913.793L369.626 976.958C376.905 984.237 380.976 994.101 380.976 1004.38V1067.13C380.976 1071.35 382.639 1075.36 385.61 1078.33L445.715 1138.47C434.366 1141.14 422.6 1142.77 410.538 1143.31L363.09 1095.86C356.464 1089.23 352.75 1080.26 352.75 1070.93V1005.99C352.75 1002.24 351.265 998.647 348.62 996.002L286.436 933.788C285.247 932.6 283.286 932.6 282.098 933.788L263.677 952.179C262.459 953.367 262.459 955.328 263.677 956.517L317.246 1010.09C318.553 1011.42 319.296 1013.2 319.296 1015.08V1046.48C319.296 1048.53 316.83 1049.54 315.374 1048.12L244.514 977.285C243.414 976.185 241.513 976.958 241.513 978.532L241.424 1016.15C241.424 1018.49 242.345 1020.78 244.009 1022.45L360.416 1138.88C273.096 1119.36 208.415 1039.8 211.951 945.732C215.575 849.409 292.437 769.784 388.611 763.159C499.819 755.464 592.427 843.437 592.427 953.07Z" fill="black"/>
</g>
<circle cx="650" cy="650" r="640" stroke="#1C7D78" stroke-width="20"/>
</svg>