<svg width="1008" height="1008" viewBox="0 0 1008 1008" fill="none" xmlns="http://www.w3.org/2000/svg">
<path d="M347.917 203.184C328.328 190.987 300.976 183.41 271.037 183.41C210.789 183.41 162 213.534 162 250.68C162 284.685 202.658 312.591 255.328 317.396V297.806C219.845 293.371 193.233 273.966 193.233 250.68C193.233 224.252 227.977 202.63 271.037 202.63C292.475 202.63 311.88 207.989 325.925 216.675L305.966 229.057H368.246V190.617L347.917 203.184Z" fill="#CCCCCC"/>
<path d="M255.329 150.144V297.806V317.396L286.561 297.806V130L255.329 150.144Z" fill="#FF6200"/>
<path d="M390.29 240.127C392.264 233.218 395.471 227.297 399.666 222.115C404.107 216.934 409.288 212.74 415.703 209.779C422.118 206.571 429.52 205.091 437.909 205.091C446.544 205.091 453.946 206.571 460.361 209.779C466.529 212.74 471.957 216.934 476.152 222.115C480.346 227.297 483.554 233.218 485.528 240.127C487.748 246.788 488.735 253.944 488.735 261.345C488.735 268.747 487.748 275.902 485.528 282.811C483.554 289.473 480.346 295.394 476.152 300.575C471.957 305.757 466.529 309.951 460.361 312.912C453.946 316.119 446.544 317.6 437.909 317.6C429.52 317.6 422.118 316.119 415.703 312.912C409.288 309.951 404.107 305.757 399.666 300.575C395.471 295.394 392.264 289.473 390.29 282.811C388.069 275.902 387.082 268.747 387.082 261.345C387.082 253.944 388.069 246.788 390.29 240.127ZM399.666 278.863C401.146 284.538 403.613 289.473 407.067 294.161C410.275 298.602 414.469 302.056 419.651 305.017C424.832 307.731 430.753 308.964 437.909 308.964C445.064 308.964 451.232 307.731 456.413 305.017C461.595 302.056 465.542 298.602 468.997 294.161C472.204 289.473 474.671 284.538 476.152 278.863C477.632 273.188 478.619 267.267 478.619 261.345C478.619 255.424 477.632 249.749 476.152 244.074C474.671 238.4 472.204 233.218 468.997 228.777C465.542 224.336 461.595 220.635 456.413 217.921C451.232 215.207 445.064 213.973 437.909 213.973C430.753 213.973 424.832 215.207 419.651 217.921C414.469 220.635 410.275 224.336 407.067 228.777C403.613 233.218 401.146 238.4 399.666 244.074C398.185 249.749 397.445 255.424 397.445 261.345C397.445 267.267 398.185 273.188 399.666 278.863Z" fill="#FF6200"/>
<path d="M504.032 237.413V252.216H504.279C506.499 246.788 510.2 242.594 515.135 239.633C520.07 236.672 525.744 235.192 532.159 235.192C538.081 235.192 543.262 236.179 547.703 238.4C552.145 240.62 555.845 243.581 558.806 247.529C561.52 251.23 563.741 255.671 565.221 260.605C566.702 265.54 567.442 270.968 567.442 276.396C567.442 282.071 566.702 287.252 565.221 292.187C563.741 297.121 561.52 301.562 558.806 305.263C555.845 309.211 552.145 312.172 547.703 314.392C543.262 316.366 538.081 317.6 532.159 317.6C529.199 317.6 526.485 317.106 523.524 316.613C520.81 315.873 518.096 314.639 515.875 313.405C513.408 311.925 511.187 310.198 509.214 307.977C507.486 306.004 506.006 303.536 505.019 300.576H504.772V344H495.15V237.413H504.032ZM556.339 264.553C555.352 260.359 553.872 256.904 551.898 253.697C549.677 250.736 546.963 248.022 543.756 246.048C540.548 244.074 536.847 243.334 532.159 243.334C526.978 243.334 522.537 244.074 519.083 246.048C515.382 247.775 512.668 250.243 510.447 253.203C508.473 256.164 506.993 259.865 506.006 263.813C505.266 267.76 504.772 271.955 504.772 276.396C504.772 280.59 505.266 284.538 506.253 288.486C507.24 292.433 508.72 296.134 510.941 299.095C513.161 302.303 515.875 304.77 519.329 306.744C522.784 308.718 527.225 309.705 532.159 309.705C536.847 309.705 540.548 308.718 543.756 306.744C546.963 304.77 549.677 302.303 551.898 299.095C553.872 296.134 555.352 292.433 556.339 288.486C557.326 284.538 557.819 280.59 557.819 276.396C557.819 272.448 557.326 268.501 556.339 264.553Z" fill="#FF6200"/>
<path d="M583.479 289.719C584.466 293.42 585.946 296.628 588.167 299.589C590.141 302.549 592.855 305.017 596.062 306.744C599.27 308.718 603.218 309.705 607.659 309.705C614.567 309.705 619.995 307.977 623.943 304.276C627.891 300.576 630.605 295.888 632.085 289.719H641.707C639.734 298.602 636.033 305.51 630.605 310.198C625.177 315.133 617.528 317.6 607.659 317.6C601.49 317.6 596.309 316.366 591.868 314.392C587.18 312.172 583.726 309.211 580.765 305.263C578.051 301.562 575.831 297.121 574.597 292.187C573.117 287.252 572.623 282.071 572.623 276.396C572.623 271.215 573.117 266.28 574.597 261.345C575.831 256.411 578.051 251.97 580.765 248.022C583.726 244.074 587.18 241.114 591.868 238.646C596.309 236.426 601.49 235.192 607.659 235.192C613.827 235.192 619.255 236.426 623.696 238.893C628.137 241.36 631.838 244.815 634.552 248.762C637.266 252.957 639.24 257.645 640.474 262.826C641.707 268.007 642.201 273.435 641.954 278.863H581.999C581.999 282.318 582.492 286.018 583.479 289.719ZM630.605 260.605C629.371 257.151 627.644 254.19 625.67 251.723C623.449 249.256 620.982 247.035 618.021 245.555C614.814 244.074 611.606 243.334 607.659 243.334C603.711 243.334 600.257 244.074 597.296 245.555C594.335 247.035 591.621 249.256 589.647 251.723C587.427 254.19 585.7 257.151 584.466 260.605C583.232 263.813 582.492 267.267 581.999 270.968H632.332C632.332 267.267 631.592 263.813 630.605 260.605Z" fill="#FF6200"/>
<path d="M656.265 237.413V250.736H656.512C658.485 246.048 661.693 242.347 666.381 239.387C670.822 236.672 676.003 235.192 681.678 235.192C687.106 235.192 691.547 235.932 695.248 237.166C698.949 238.646 701.91 240.62 704.131 243.334C706.351 245.801 707.831 249.009 708.818 252.71C709.805 256.411 710.052 260.605 710.052 265.293V315.379H700.676V266.774C700.676 263.319 700.43 260.359 699.689 257.398C699.196 254.684 697.962 252.216 696.482 249.996C695.002 247.775 693.028 246.295 690.314 245.061C687.846 243.828 684.639 243.334 680.938 243.334C676.99 243.334 673.536 243.828 670.575 245.308C667.614 246.542 665.147 248.516 663.173 250.736C660.953 253.203 659.472 255.917 658.239 259.372C657.005 262.579 656.512 266.033 656.265 269.981V315.379H646.889V237.413H656.265Z" fill="#FF6200"/>
<path d="M728.31 207.558V315.379H718.194V207.558H728.31Z" fill="#FF6200"/>
<path d="M773.461 207.558C789.992 207.805 802.329 212.493 810.718 221.375C818.86 230.258 823.054 243.581 823.054 261.346C823.054 279.357 818.86 292.68 810.718 301.562C802.329 310.445 789.992 314.886 773.461 315.379H736.205V207.558H773.461ZM768.527 306.497C776.175 306.497 782.837 305.757 788.512 304.03C793.94 302.303 798.628 299.835 802.329 296.134C805.783 292.433 808.497 287.746 810.224 282.071C811.951 276.396 812.691 269.488 812.691 261.346C812.691 253.45 811.951 246.542 810.224 240.867C808.497 234.945 805.783 230.258 802.329 226.803C798.628 223.102 793.94 220.388 788.512 218.908C782.837 217.181 776.175 216.194 768.527 216.194H746.568V306.497H768.527Z" fill="#FF6200"/>
<path fill-rule="evenodd" clip-rule="evenodd" d="M491.148 370.756C606.254 362.774 682.576 419.103 726.215 487.732C748.096 522.143 769.564 574.406 769.663 628.104C769.769 686.448 750.868 736.974 726.215 774.046C700.876 812.149 668.103 843.621 627.064 864.285C558.463 898.829 462.591 899.773 399.794 866.513C329.86 829.473 276.09 776.605 256.081 684.921C248.073 648.23 247.153 600.822 258.309 560.146C260.927 550.605 265.684 540.563 269.45 531.181C287.547 486.095 318.35 446.89 356.346 419.774C371.615 408.878 390.137 398.042 406.479 390.808C426.813 381.808 461.048 372.842 491.148 370.756Z" fill="white"/>
<path fill-rule="evenodd" clip-rule="evenodd" d="M709.489 634.592C709.489 743.379 621.3 831.563 512.514 831.563C403.729 831.563 315.541 743.379 315.541 634.592C315.541 525.807 403.729 437.617 512.514 437.617C621.299 437.617 709.489 525.807 709.489 634.592Z" fill="black"/>
<path fill-rule="evenodd" clip-rule="evenodd" d="M491.148 370.756C606.254 362.774 682.576 419.103 726.215 487.732C748.096 522.143 769.564 574.406 769.663 628.104C769.769 686.448 750.868 736.974 726.215 774.046C700.876 812.149 668.103 843.621 627.064 864.285C558.463 898.829 462.591 899.773 399.794 866.513C329.86 829.473 276.09 776.605 256.081 684.921C248.073 648.23 247.153 600.822 258.309 560.146C260.927 550.605 265.684 540.563 269.45 531.181C287.547 486.095 318.35 446.89 356.346 419.774C371.615 408.878 390.137 398.042 406.479 390.808C426.813 381.808 461.048 372.842 491.148 370.756ZM452.155 389.695C409.401 400.78 378.053 420.639 350.776 442.056C311.443 472.94 286.369 516.038 271.678 567.945C255.334 625.693 265.832 695.576 288.389 739.51C311.78 785.071 343.187 820.438 387.54 845.346C430.69 869.578 491.381 885.138 554.65 873.197C610.864 862.589 653.557 838.1 688.338 801.897C734.871 753.459 772.272 664.242 747.384 570.173C740.731 545.031 732.033 518.828 718.417 496.644C711.061 484.66 700.266 472.87 689.452 460.995C648.636 416.172 582.669 377.548 497.832 383.01C481.687 384.049 467.498 385.717 452.155 389.695Z" fill="black"/>
<path d="M524.427 870.826L752.04 643.216" stroke="white" stroke-width="2"/>
<path d="M504.528 852.8L733.134 624.197" stroke="white" stroke-width="2"/>
<path d="M484.629 834.776L714.229 605.179" stroke="white" stroke-width="2"/>
<path d="M464.73 816.75L695.324 586.161" stroke="white" stroke-width="2"/>
<path d="M444.832 798.725L676.42 567.141" stroke="white" stroke-width="2"/>
<path d="M424.933 780.701L657.513 548.123" stroke="white" stroke-width="2"/>
<path d="M405.035 762.675L638.609 529.105" stroke="white" stroke-width="2"/>
<path d="M385.136 744.65L619.702 510.086" stroke="white" stroke-width="2"/>
<path d="M365.237 726.625L600.798 491.067" stroke="white" stroke-width="2"/>
<path d="M345.339 708.599L581.892 472.049" stroke="white" stroke-width="2"/>
<path d="M325.44 690.575L562.987 453.031" stroke="white" stroke-width="2"/>
<path d="M305.542 672.55L544.082 434.011" stroke="white" stroke-width="2"/>
<path d="M285.643 654.524L525.177 414.993" stroke="white" stroke-width="2"/>
<path d="M265.744 636.499L506.271 395.975" stroke="white" stroke-width="2"/>
<path d="M265.667 638.8L497.829 870.973" stroke="white" stroke-width="2"/>
<path d="M284.494 619.704L517.108 852.329" stroke="white" stroke-width="2"/>
<path d="M303.321 600.607L536.386 833.683" stroke="white" stroke-width="2"/>
<path d="M322.149 581.511L555.666 815.039" stroke="white" stroke-width="2"/>
<path d="M340.975 562.414L574.944 796.393" stroke="white" stroke-width="2"/>
<path d="M359.802 543.318L594.225 777.748" stroke="white" stroke-width="2"/>
<path d="M378.63 524.221L613.503 759.103" stroke="white" stroke-width="2"/>
<path d="M397.456 505.125L632.782 740.457" stroke="white" stroke-width="2"/>
<path d="M416.283 486.029L652.062 721.812" stroke="white" stroke-width="2"/>
<path d="M435.111 466.932L671.34 703.167" stroke="white" stroke-width="2"/>
<path d="M453.938 447.836L690.62 684.522" stroke="white" stroke-width="2"/>
<path d="M472.764 428.739L709.898 665.877" stroke="white" stroke-width="2"/>
<path d="M491.592 409.643L729.177 647.232" stroke="white" stroke-width="2"/>
<path d="M510.419 390.547L748.457 628.587" stroke="white" stroke-width="2"/>
<path fill-rule="evenodd" clip-rule="evenodd" d="M676.083 462.109C655.597 441.623 630.411 423.163 600.326 411.976C569.142 400.38 533.867 390.605 492.262 394.15C425.988 399.8 379.456 429.534 344.091 464.337C319.321 488.712 300.688 518.583 288.388 553.461C270.329 604.674 271.425 665.123 291.73 717.229C309.05 761.674 337.399 797.523 377.513 825.293C415.224 851.4 469.349 871.647 530.139 866.513C604.181 860.26 658.355 822.273 693.906 778.503C703.002 767.305 712.047 754.648 717.301 739.511C722.449 728.604 724.969 721.19 727.328 717.229C737.202 695.103 742.434 671.758 744.038 645.93C748.974 566.488 718.409 504.436 676.083 462.109ZM654.261 704.145C654.12 704.447 653.993 704.728 653.845 705.04C650.173 715.551 643.845 724.34 637.486 732.116C612.623 762.51 574.74 788.887 522.962 793.231C480.449 796.794 442.599 782.736 416.228 764.607C393.312 748.854 375.892 729.353 363.677 705.918C362.932 704.508 355.838 688.164 355.817 687.445C346.14 657.429 345.3 609.164 355.233 580.2C361.861 560.869 372.908 539.953 387.54 523.383C407.742 500.502 427.959 485.841 459.955 475.478C474.564 470.746 487.642 465.929 505.63 465.452C549.497 464.284 594.166 483.979 618.151 505.557C640.191 525.387 665.311 564.013 671.626 600.252C678.126 637.552 671.19 673.969 654.261 704.145Z" fill="black"/>
<path d="M578.015 739.923C567.214 739.923 557.735 733.083 554.426 722.901L542.395 686.243H482.209L471.031 722.567C467.656 732.946 458.105 739.895 447.248 739.895C444.641 739.895 442.052 739.482 439.552 738.671C426.575 734.775 419.207 720.807 423.183 707.551L473.984 546.636C477.282 536.399 486.993 529.259 497.601 529.259H524.614C535.282 529.259 544.992 536.278 548.227 546.327L601.652 707.183C605.924 720.334 598.85 734.452 585.892 738.67C583.329 739.502 580.68 739.923 578.015 739.923Z" fill="white"/>
<path d="M524.615 531.863C534.008 531.863 542.819 538.028 545.749 547.125L599.181 708.002C602.995 719.746 596.831 732.37 585.088 736.192C582.74 736.954 580.356 737.318 578.015 737.318C568.646 737.318 559.956 731.494 556.905 722.097L544.281 683.638H480.286L468.541 721.801C465.467 731.257 456.684 737.289 447.25 737.289C444.966 737.289 442.646 736.936 440.358 736.192C428.613 732.666 422.156 720.041 425.679 708.298L476.468 547.419C479.4 538.322 487.916 531.863 497.602 531.863H524.615ZM524.615 526.654H497.601C485.689 526.654 475.204 534.356 471.509 545.82L420.711 706.729L420.7 706.765L420.689 706.8C416.305 721.415 424.432 736.818 438.808 741.166C441.549 742.05 444.39 742.498 447.25 742.498C459.237 742.498 469.785 734.827 473.496 723.412L473.509 723.373L473.521 723.333L484.134 688.847H540.508L551.957 723.721C555.606 734.963 566.081 742.527 578.017 742.527C580.955 742.527 583.876 742.063 586.698 741.147C601.025 736.484 608.848 720.894 604.137 706.392L550.701 545.503C547.113 534.403 536.39 526.654 524.615 526.654Z" fill="black"/>
<path d="M378.509 477.976L378.446 477.89C372.11 469.208 373.969 457.062 383.299 450.253C392.629 443.445 404.614 445.356 410.949 454.037L411.013 454.123C417.348 462.805 415.489 474.952 406.159 481.76C396.829 488.568 384.844 486.658 378.509 477.976ZM402.523 460.451L402.46 460.365C399.277 456.003 393.35 454.502 388.729 457.875C384.15 461.216 383.794 467.168 386.977 471.531L387.041 471.617C390.225 475.98 396.151 477.48 400.73 474.139C405.351 470.766 405.707 464.814 402.523 460.451Z" fill="white"/>
<path d="M439.587 421.07L449.108 418.016L475.799 449.043L465.208 452.441L460.57 446.91L446.822 451.321L446.318 458.503L435.932 461.835L439.587 421.07ZM455.252 440.136L448.029 431.278L447.257 442.701L455.252 440.136Z" fill="white"/>
<path d="M492.945 430.404L493.029 409.389L503.563 409.431L503.48 430.233C503.459 435.633 506.176 438.21 510.347 438.228C514.518 438.244 517.255 435.796 517.275 430.556L517.359 409.487L527.893 409.529L527.811 430.277C527.763 442.362 520.845 447.629 510.203 447.586C499.562 447.543 492.899 442.115 492.945 430.404Z" fill="white"/>
<path d="M565.938 426.732L555.199 423.455L557.852 414.76L589.253 424.344L586.599 433.038L575.86 429.761L567.588 456.866L557.667 453.838L565.938 426.732Z" fill="white"/>
<path d="M617.301 436.476L625.937 442.223L618.176 453.886L629.26 461.263L637.022 449.599L645.658 455.346L624.921 486.509L616.284 480.761L624.164 468.92L613.079 461.542L605.199 473.384L596.563 467.637L617.301 436.476Z" fill="white"/>
<path d="M647.807 777.13L647.873 777.214C654.537 785.648 653.142 797.858 644.079 805.018C635.015 812.178 622.965 810.726 616.302 802.292L616.236 802.208C609.573 793.773 610.968 781.564 620.03 774.404C629.094 767.245 641.144 768.696 647.807 777.13ZM624.477 795.561L624.543 795.645C627.891 799.884 633.871 801.156 638.361 797.609C642.808 794.095 642.938 788.134 639.589 783.896L639.523 783.811C636.176 779.573 630.195 778.3 625.747 781.814C621.257 785.361 621.129 791.323 624.477 795.561Z" fill="white"/>
<path d="M589.25 836.434L579.872 839.904L551.842 810.082L562.273 806.22L567.151 811.543L580.691 806.531L580.878 799.335L591.108 795.548L589.25 836.434ZM572.762 818.076L580.367 826.607L580.636 815.161L572.762 818.076Z" fill="white"/>
<path d="M535.573 829.316L536.499 850.311L525.976 850.775L525.058 829.994C524.82 824.599 521.982 822.155 517.815 822.339C513.648 822.524 511.032 825.102 511.263 830.336L512.192 851.384L501.668 851.849L500.753 831.121C500.22 819.049 506.878 813.455 517.509 812.986C528.14 812.516 535.056 817.617 535.573 829.316Z" fill="white"/>
<path d="M462.447 836.181L473.29 839.108L470.92 847.885L439.218 839.328L441.587 830.55L452.43 833.477L459.816 806.112L469.833 808.816L462.447 836.181Z" fill="white"/>
<path d="M411.199 828.555L402.3 823.222L409.503 811.204L398.082 804.358L390.88 816.376L381.981 811.043L401.226 778.934L410.124 784.268L402.812 796.469L414.233 803.315L421.546 791.114L430.444 796.448L411.199 828.555Z" fill="white"/>
<g filter="url(#filter0_d_3_585)">
<circle cx="504" cy="500" r="491" stroke="#1C7D78" stroke-width="18" shape-rendering="crispEdges"/>
</g>
<defs>
<filter id="filter0_d_3_585" x="0" y="0" width="1008" height="1008" filterUnits="userSpaceOnUse" color-interpolation-filters="sRGB">
<feFlood flood-opacity="0" result="BackgroundImageFix"/>
<feColorMatrix in="SourceAlpha" type="matrix" values="0 0 0 0 0 0 0 0 0 0 0 0 0 0 0 0 0 0 127 0" result="hardAlpha"/>
<feOffset dy="4"/>
<feGaussianBlur stdDeviation="2"/>
<feComposite in2="hardAlpha" operator="out"/>
<feColorMatrix type="matrix" values="0 0 0 0 0 0 0 0 0 0 0 0 0 0 0 0 0 0 0.25 0"/>
<feBlend mode="normal" in2="BackgroundImageFix" result="effect1_dropShadow_3_585"/>
<feBlend mode="normal" in="SourceGraphic" in2="effect1_dropShadow_3_585" result="shape"/>
</filter>
</defs>
</svg>