<svg width="315" height="315" viewBox="0 0 315 315" fill="none" xmlns="http://www.w3.org/2000/svg">
<circle cx="157.5" cy="157.5" r="157.5" fill="#D9D9D9"/>
<circle cx="150" cy="113" r="75" fill="#1C7D78"/>
<path d="M166.924 118.934C179.528 121.854 191.162 127.984 200.697 136.729C210.231 145.475 217.341 156.538 221.336 168.843C225.33 181.149 226.074 194.279 223.494 206.957C220.913 219.635 215.098 231.43 206.611 241.195C198.125 250.961 187.256 258.365 175.062 262.689C162.868 267.012 149.763 268.107 137.02 265.868C124.278 263.629 112.331 258.132 102.341 249.911C92.3514 241.689 84.6582 231.023 80.0093 218.95L90.5079 214.907C94.4595 225.17 100.999 234.236 109.49 241.224C117.981 248.212 128.136 252.885 138.967 254.788C149.799 256.691 160.938 255.76 171.303 252.085C181.668 248.411 190.906 242.117 198.119 233.816C205.333 225.515 210.276 215.49 212.47 204.713C214.663 193.937 214.031 182.777 210.635 172.317C207.24 161.857 201.196 152.453 193.092 145.02C184.988 137.586 175.099 132.376 164.385 129.894L166.924 118.934Z" fill="black"/>
<path d="M180 123C180 131.284 173.284 138 165 138C156.716 138 150 131.284 150 123C150 114.716 156.716 108 165 108C173.284 108 180 114.716 180 123Z" fill="black"/>
<path fill-rule="evenodd" clip-rule="evenodd" d="M206.451 162.38C203.046 155.89 198.533 150.011 193.092 145.02C187.908 140.264 181.992 136.419 175.598 133.615C172.884 136.325 169.138 138 165 138C156.716 138 150 131.284 150 123C150 114.716 156.716 108 165 108C173.284 108 180 114.716 180 123C180 123.087 179.999 123.174 179.998 123.26C187.565 126.563 194.565 131.105 200.697 136.729C205.774 141.386 210.164 146.701 213.761 152.51C211.593 156.001 209.146 159.302 206.451 162.38Z" fill="white"/>
</svg>
