<svg xmlns="http://www.w3.org/2000/svg" fill="none" viewBox="0 0 500 500" height="500" width="500">
<path fill="#FDFBF8" d="M500 250C500 388.071 388.071 500 250 500C111.929 500 0 388.071 0 250C0 111.929 111.929 0 250 0C388.071 0 500 111.929 500 250Z"></path>
<path fill="#338A86" d="M336.367 191.684C336.367 246.737 291.737 291.367 236.684 291.367C181.63 291.367 137 246.737 137 191.684C137 136.63 181.63 92 236.684 92C291.737 92 336.367 136.63 336.367 191.684ZM166.905 191.684C166.905 230.221 198.146 261.462 236.684 261.462C275.221 261.462 306.462 230.221 306.462 191.684C306.462 153.146 275.221 121.905 236.684 121.905C198.146 121.905 166.905 153.146 166.905 191.684Z"></path>
<path fill="#0A3146" d="M271.055 193.642C287.62 197.703 302.866 205.947 315.334 217.585C327.803 229.223 337.076 243.865 342.269 260.111C347.461 276.358 348.398 293.664 344.99 310.376C341.582 327.088 333.942 342.646 322.803 355.562C311.664 368.477 297.397 378.319 281.367 384.145C265.337 389.971 248.08 391.587 231.248 388.837C214.415 386.088 198.569 379.065 185.226 368.442C171.883 357.818 161.489 343.949 155.038 328.16L178.108 318.734C182.946 330.576 190.741 340.978 200.749 348.946C210.756 356.913 222.64 362.18 235.265 364.242C247.889 366.304 260.832 365.093 272.854 360.723C284.877 356.354 295.577 348.972 303.931 339.286C312.286 329.599 318.015 317.93 320.571 305.397C323.127 292.863 322.425 279.883 318.531 267.698C314.636 255.513 307.681 244.531 298.33 235.803C288.978 227.075 277.544 220.892 265.12 217.846L271.055 193.642Z"></path>
<path fill="#0A3146" d="M294.395 202.701C294.395 215.74 283.825 226.311 270.786 226.311C257.747 226.311 247.176 215.74 247.176 202.701C247.176 189.662 257.747 179.092 270.786 179.092C283.825 179.092 294.395 189.662 294.395 202.701Z"></path>
</svg>
